<svg xmlns="http://www.w3.org/2000/svg" xmlns:xlink="http://www.w3.org/1999/xlink" width="500" zoomAndPan="magnify" viewBox="0 0 375 374.999991" height="500" preserveAspectRatio="xMidYMid meet" version="1.0"><defs><g/><clipPath id="917fee9fb5"><path d="M 51.109375 50.339844 L 323.886719 50.339844 L 323.886719 324.839844 L 51.109375 324.839844 Z M 51.109375 50.339844 " clip-rule="nonzero"/></clipPath><clipPath id="0516ecf883"><path d="M 51.425781 180.527344 C 51.949219 175.867188 51.632812 171.136719 52.085938 166.445312 C 52.253906 164.59375 52.574219 162.761719 53.042969 160.960938 C 54.363281 155.988281 56.972656 151.789062 60.71875 148.269531 C 61.332031 147.691406 62.074219 147.265625 62.882812 147.035156 C 63.648438 146.808594 64.449219 146.492188 65.0625 146.003906 C 65.976562 145.277344 66.859375 144.445312 66.386719 143.003906 C 66.285156 142.703125 66.539062 142.15625 66.808594 141.890625 C 67.292969 141.394531 67.847656 140.976562 68.457031 140.652344 C 71.394531 139.125 74.347656 137.621094 77.320312 136.171875 C 77.894531 135.890625 78.53125 135.765625 79.167969 135.816406 C 80.25 135.929688 81.296875 136.304688 82.375 136.457031 C 83.140625 136.566406 83.917969 136.570312 84.679688 136.464844 C 85.679688 136.320312 86.664062 135.804688 87.644531 135.835938 C 88.941406 135.898438 90.226562 136.148438 91.453125 136.589844 C 95.007812 137.824219 98.144531 140.042969 100.488281 142.984375 C 100.722656 143.3125 100.816406 143.714844 100.753906 144.109375 C 100.585938 144.925781 100.625 145.675781 101.003906 146.414062 C 101.359375 147.097656 101.648438 147.820312 102.050781 148.46875 C 104.007812 151.640625 105.015625 155.074219 105.199219 158.800781 C 105.363281 162.117188 105.472656 165.410156 104.511719 168.628906 C 104.070312 170.109375 103.652344 171.625 102.191406 172.554688 C 101.882812 172.75 101.671875 173.261719 101.609375 173.65625 C 101.488281 174.464844 101.507812 175.296875 101.445312 176.117188 C 101.421875 176.777344 101.355469 177.441406 101.246094 178.09375 C 101.191406 178.382812 100.902344 178.628906 100.71875 178.890625 C 100.496094 178.71875 100.230469 178.582031 100.050781 178.375 C 99.5625 177.800781 99.046875 177.824219 98.746094 178.511719 C 98.5625 178.960938 98.429688 179.425781 98.347656 179.902344 C 98.082031 181.21875 97.78125 182.5625 96.8125 183.515625 C 95.578125 184.742188 95.300781 186.179688 95.421875 187.804688 C 95.578125 189.917969 94.953125 191.902344 94.382812 193.890625 C 94.300781 194.191406 94.058594 194.449219 93.808594 194.867188 C 93.652344 194.546875 93.566406 194.4375 93.5625 194.328125 C 93.550781 193.296875 93.5625 192.269531 93.546875 191.238281 C 93.546875 190.9375 93.53125 190.582031 93.375 190.359375 C 93.285156 190.234375 93.167969 190.132812 93.035156 190.054688 C 92.902344 189.980469 92.753906 189.933594 92.601562 189.917969 C 92.402344 189.917969 92.117188 190.246094 92.03125 190.488281 C 91.894531 190.847656 91.847656 191.238281 91.886719 191.621094 C 92.050781 192.777344 91.90625 193.886719 91.734375 195.035156 C 91.480469 196.78125 91.460938 198.566406 91.394531 200.332031 C 91.300781 202.679688 90.511719 204.75 89.117188 206.628906 C 88.867188 206.960938 88.628906 207.511719 88.734375 207.867188 C 88.988281 208.71875 89.351562 209.535156 89.816406 210.296875 C 90.285156 211.089844 90.328125 211.269531 89.566406 211.792969 C 88.90625 212.257812 88.609375 212.808594 88.867188 213.628906 C 89.253906 214.867188 89.511719 216.148438 89.980469 217.347656 C 91.453125 221.117188 93.003906 224.859375 94.527344 228.609375 C 94.707031 229.050781 94.957031 229.472656 95.09375 229.925781 C 95.113281 230.035156 95.101562 230.148438 95.066406 230.253906 C 95.03125 230.359375 94.96875 230.453125 94.886719 230.527344 C 94.117188 230.992188 93.992188 231.230469 94.308594 232.082031 C 94.566406 232.777344 94.824219 233.472656 95.132812 234.140625 C 95.515625 234.964844 96.023438 235.699219 96.945312 236.023438 C 97.488281 236.21875 97.671875 236.609375 97.585938 237.171875 C 97.492188 237.769531 97.738281 238.226562 98.242188 238.542969 C 98.847656 238.925781 99.441406 239.324219 100.074219 239.660156 C 100.335938 239.796875 100.867188 239.925781 100.949219 239.8125 C 101.148438 239.542969 101.304688 239.085938 101.214844 238.789062 C 100.652344 236.957031 100.191406 235.066406 99.359375 233.359375 C 98.324219 231.167969 97.5 228.882812 96.898438 226.535156 C 96.742188 225.957031 96.875 225.296875 96.875 224.679688 L 97.167969 224.644531 C 97.324219 224.945312 97.460938 225.257812 97.570312 225.578125 C 98.1875 227.898438 98.75 230.214844 99.40625 232.519531 C 99.625 233.292969 100.023438 234.027344 100.417969 234.730469 C 100.691406 235.21875 101.191406 235.347656 101.667969 234.976562 C 102.1875 234.582031 102.476562 234.8125 102.648438 235.300781 C 102.757812 235.609375 102.761719 235.949219 102.828125 236.269531 C 102.945312 236.84375 102.980469 237.460938 103.238281 237.960938 C 103.375 238.226562 103.90625 238.414062 104.25 238.398438 C 104.460938 238.386719 104.785156 237.933594 104.820312 237.660156 C 104.886719 237.144531 104.894531 236.5625 104.722656 236.082031 C 103.855469 233.664062 103.046875 231.214844 101.984375 228.882812 C 100.019531 224.554688 99.539062 220.082031 100.398438 215.472656 C 100.828125 213.183594 101.574219 210.953125 102.1875 208.699219 C 102.328125 208.183594 102.496094 207.675781 102.660156 207.164062 L 102.875 207.179688 C 102.957031 207.378906 103.101562 207.578125 103.121094 207.785156 C 103.246094 209.308594 103.363281 210.835938 103.457031 212.363281 C 103.667969 215.71875 103.722656 219.089844 104.117188 222.421875 C 104.347656 224.363281 105.09375 226.25 105.679688 228.140625 C 105.769531 228.4375 106.25 228.613281 106.554688 228.84375 C 106.75 228.542969 107.09375 228.257812 107.117188 227.945312 C 107.175781 227.109375 107.59375 226.492188 108.125 225.9375 C 108.742188 225.277344 108.890625 224.589844 108.5 223.753906 C 108.296875 223.253906 108.121094 222.742188 107.972656 222.222656 L 108.164062 222.144531 C 108.238281 222.238281 108.347656 222.324219 108.375 222.429688 C 108.746094 223.839844 109.191406 225.238281 109.445312 226.667969 C 109.644531 227.789062 109.773438 228.058594 110.929688 228.214844 C 111.050781 228.242188 111.167969 228.28125 111.28125 228.328125 C 111.28125 228.867188 111.167969 229.398438 111.300781 229.863281 C 111.984375 232.308594 112.652344 234.761719 113.472656 237.164062 C 114.945312 241.472656 117.214844 245.378906 119.902344 249.027344 C 120.882812 250.355469 122.097656 251.515625 123.246094 252.71875 C 124.984375 254.539062 126.703125 256.382812 128.527344 258.117188 C 129.617188 259.15625 130.875 260.023438 132.082031 260.929688 C 132.371094 261.144531 132.769531 261.214844 133.121094 261.351562 C 133.164062 261.277344 133.214844 261.207031 133.261719 261.132812 C 133.078125 260.808594 132.953125 260.417969 132.699219 260.167969 C 131.390625 258.898438 130.066406 257.648438 128.71875 256.421875 C 127.328125 255.164062 125.902344 253.949219 124.5 252.710938 C 124.121094 252.375 124.023438 252.03125 124.417969 251.585938 C 124.574219 251.417969 124.566406 251.066406 124.542969 250.8125 C 124.496094 250.480469 124.417969 250.148438 124.320312 249.824219 L 124.527344 249.683594 C 124.804688 249.914062 125.121094 250.113281 125.351562 250.386719 C 126.722656 252.011719 128.125 253.621094 129.429688 255.300781 C 131.265625 257.652344 133.4375 259.664062 135.769531 261.46875 C 138.761719 263.789062 141.925781 265.875 144.988281 268.101562 C 146.425781 269.148438 147.976562 270.140625 148.355469 272.09375 C 148.390625 272.355469 148.398438 272.617188 148.390625 272.882812 C 148.148438 272.882812 147.90625 272.859375 147.667969 272.816406 C 147.167969 272.679688 146.648438 272.589844 146.433594 273.191406 C 145.898438 274.691406 147.117188 276.019531 148.75 275.679688 C 148.640625 275.542969 148.542969 275.394531 148.464844 275.234375 C 148.367188 274.953125 148.308594 274.660156 148.238281 274.367188 C 148.484375 274.433594 148.757812 274.453125 148.976562 274.570312 C 151.703125 276.035156 154.386719 277.578125 157.152344 278.964844 C 158.855469 279.816406 160.671875 280.4375 162.445312 281.144531 C 162.855469 281.304688 163.195312 281.277344 163.21875 280.667969 C 163.246094 279.9375 163.421875 279.855469 164.058594 280.1875 C 164.320312 280.300781 164.558594 280.457031 164.761719 280.652344 C 165.320312 281.277344 165.84375 281.933594 166.371094 282.589844 C 166.9375 283.304688 167.289062 283.34375 167.894531 282.683594 C 168.210938 282.34375 168.515625 282.222656 168.976562 282.4375 C 169.519531 282.722656 170.089844 282.945312 170.679688 283.105469 C 171.035156 283.191406 171.636719 283.203125 171.800781 282.988281 C 172.484375 282.101562 173.15625 282.429688 173.882812 282.835938 C 174.261719 283.046875 174.640625 283.265625 175.039062 283.4375 C 176.667969 284.148438 178.324219 284.75 180.152344 284.328125 C 180.894531 284.15625 181.019531 283.851562 180.710938 283.167969 C 180.558594 282.824219 180.449219 282.460938 180.25 281.921875 C 180.761719 282.023438 181.03125 282.0625 181.289062 282.136719 C 183.53125 282.78125 185.808594 282.640625 188.09375 282.527344 C 190.65625 282.394531 193.191406 282.335938 195.625 283.464844 C 196.605469 283.921875 197.699219 284.144531 198.761719 284.394531 C 199.53125 284.574219 200.066406 284.238281 200.199219 283.632812 C 200.375 282.839844 200.574219 282.753906 201.300781 283.167969 C 201.5 283.28125 201.695312 283.40625 201.894531 283.515625 C 202.835938 284.03125 203.085938 284.007812 203.832031 283.238281 C 204.167969 282.886719 204.488281 282.863281 204.921875 283.0625 C 207 284.007812 208.894531 283.667969 210.609375 282.191406 C 211.035156 281.824219 211.496094 281.589844 212.070312 281.90625 C 213.792969 282.859375 215.53125 282.351562 217.28125 281.992188 C 218.148438 281.816406 219.027344 281.730469 219.910156 281.734375 C 220.191406 281.734375 220.683594 282.128906 220.703125 282.378906 C 220.734375 282.691406 220.449219 283.25 220.183594 283.335938 C 218.984375 283.730469 217.742188 283.992188 216.519531 284.308594 C 216.269531 284.371094 216.035156 284.480469 215.792969 284.566406 C 215.808594 284.65625 215.828125 284.746094 215.84375 284.835938 C 216.082031 284.878906 216.316406 284.910156 216.558594 284.929688 C 217.316406 284.960938 218.074219 284.972656 218.832031 285 C 219.167969 285.007812 219.5 285.042969 219.832031 285.050781 C 220.90625 285.070312 221.988281 285.023438 223.054688 285.128906 C 223.527344 285.171875 223.980469 285.511719 224.433594 285.71875 C 224.402344 285.816406 224.371094 285.914062 224.339844 286.007812 C 223.796875 285.960938 223.246094 285.839844 222.710938 285.890625 C 222.304688 285.933594 221.921875 286.113281 221.628906 286.402344 C 221.527344 286.515625 221.867188 287.019531 222.003906 287.355469 C 222.097656 287.578125 222.304688 287.839844 222.246094 288.007812 C 222.1875 288.179688 221.863281 288.300781 221.640625 288.332031 C 220.019531 288.539062 218.386719 288.679688 216.769531 288.917969 C 214.78125 289.207031 212.796875 289.539062 210.820312 289.914062 C 210.109375 290.046875 209.304688 290.121094 208.855469 290.996094 C 209.953125 291.371094 211.003906 291.421875 212.089844 291.378906 C 213.566406 291.320312 214.960938 290.835938 216.476562 290.847656 C 218.683594 290.867188 220.914062 290.507812 223.101562 290.136719 C 225.429688 289.746094 227.714844 289.117188 230.03125 288.664062 C 232.242188 288.242188 234.347656 287.386719 236.226562 286.152344 C 239.566406 283.941406 243.226562 282.394531 246.871094 280.824219 C 250.457031 279.28125 254.121094 277.90625 257.351562 275.660156 C 258.5625 274.816406 259.699219 273.851562 260.832031 272.898438 C 261.074219 272.699219 261.261719 272.445312 261.386719 272.160156 C 261.507812 271.871094 261.5625 271.558594 261.535156 271.246094 C 261.371094 271.253906 261.203125 271.277344 261.042969 271.3125 C 260.167969 271.585938 259.304688 271.882812 258.425781 272.136719 C 258.242188 272.191406 258.015625 272.101562 257.808594 272.078125 C 257.835938 271.867188 257.894531 271.664062 257.976562 271.46875 C 258.183594 271.160156 258.410156 270.863281 258.652344 270.578125 C 258.324219 270.503906 258.1875 270.476562 258.042969 270.425781 C 257.816406 270.351562 257.59375 270.269531 257.367188 270.1875 C 257.480469 269.921875 257.519531 269.570312 257.71875 269.417969 C 258.089844 269.105469 258.570312 268.953125 258.96875 268.683594 C 259.769531 268.140625 260.597656 267.617188 261.304688 266.96875 C 261.566406 266.730469 261.519531 266.15625 261.613281 265.730469 C 261.195312 265.804688 260.695312 265.757812 260.378906 265.980469 C 259.449219 266.621094 258.621094 267.390625 257.722656 268.074219 C 256.113281 269.292969 254.539062 270.570312 252.84375 271.660156 C 251.789062 272.363281 250.617188 272.875 249.382812 273.167969 C 248.40625 273.378906 247.539062 273.535156 246.78125 274.261719 C 245.320312 275.660156 243.390625 275.992188 241.488281 276.394531 C 241.640625 276.167969 241.84375 275.980469 242.085938 275.855469 C 244.40625 274.554688 246.722656 273.277344 249.03125 271.953125 C 250.808594 270.933594 252.269531 269.523438 253.636719 268.023438 C 253.824219 267.816406 253.957031 267.363281 253.855469 267.152344 C 253.75 266.945312 253.269531 266.707031 253.042969 266.777344 C 252.101562 267.0625 251.394531 266.523438 250.652344 266.175781 C 250.011719 265.867188 249.988281 265.4375 250.484375 264.875 C 250.980469 264.308594 251.527344 263.742188 252.03125 263.15625 C 252.996094 262.046875 253.996094 261.03125 255.519531 260.664062 C 256.007812 260.546875 256.4375 260.117188 256.847656 259.773438 C 257.078125 259.585938 257.203125 259.273438 257.390625 259.035156 C 258.546875 257.578125 260.203125 256.757812 261.65625 255.671875 C 262.5 255.039062 263.195312 254.203125 263.898438 253.40625 C 264.074219 253.207031 264.027344 252.8125 264.082031 252.507812 C 263.761719 252.570312 263.382812 252.542969 263.128906 252.710938 C 261.9375 253.503906 260.820312 254.414062 259.605469 255.160156 C 257.289062 256.597656 254.957031 258.039062 252.554688 259.332031 C 249.675781 260.878906 246.726562 262.269531 243.792969 263.707031 C 239.832031 265.648438 235.851562 267.550781 231.902344 269.511719 C 231.492188 269.71875 231.21875 270.203125 230.882812 270.558594 L 231.859375 271.410156 C 230.960938 271.707031 230.070312 271.988281 229.195312 272.300781 C 224.265625 274.066406 219.351562 275.878906 214.402344 277.597656 C 211.492188 278.59375 208.476562 279.257812 205.414062 279.582031 C 204.042969 279.738281 202.683594 279.972656 201.316406 280.136719 C 200.609375 280.222656 199.898438 280.265625 199.183594 280.265625 C 196.585938 280.253906 193.984375 280.164062 191.390625 280.214844 C 190.265625 280.234375 189.167969 280.386719 188.046875 280.039062 C 187.300781 279.808594 186.488281 279.785156 185.703125 279.683594 C 183.90625 279.457031 182.082031 279.34375 180.3125 278.984375 C 177.976562 278.511719 175.675781 277.886719 173.371094 277.253906 C 170.246094 276.390625 167.402344 274.90625 164.734375 273.078125 C 164.554688 272.929688 164.378906 272.769531 164.21875 272.601562 C 164.40625 272.582031 164.59375 272.582031 164.777344 272.601562 C 166.089844 272.910156 167.394531 273.25 168.710938 273.527344 C 169.933594 273.785156 171.171875 273.945312 172.390625 274.210938 C 173.730469 274.5 175.039062 274.980469 176.390625 275.160156 C 179.046875 275.527344 181.480469 276.539062 183.9375 277.503906 C 184.625 277.777344 185.191406 277.925781 185.820312 277.332031 C 186.300781 276.878906 186.855469 276.839844 187.308594 277.523438 C 187.453125 277.746094 187.796875 277.898438 188.078125 277.957031 C 188.585938 278.046875 189.097656 278.097656 189.609375 278.113281 C 191.449219 278.226562 193.289062 278.320312 195.125 278.445312 C 195.722656 278.484375 196.070312 278.320312 196.054688 277.652344 C 196.03125 277.070312 196.300781 276.832031 196.910156 276.878906 C 197.527344 276.929688 198.148438 276.929688 198.765625 276.878906 C 201.097656 276.691406 203.441406 277.242188 205.78125 276.464844 C 207.917969 275.753906 210.167969 275.371094 212.367188 274.847656 C 213.398438 274.601562 214.421875 274.246094 215.472656 274.128906 C 217.171875 273.933594 218.898438 273.898438 220.613281 273.792969 C 221.136719 273.765625 221.515625 273.566406 221.53125 272.984375 C 221.546875 272.351562 221.828125 272.332031 222.332031 272.535156 C 222.847656 272.734375 223.382812 272.890625 223.929688 273 C 224.019531 273.015625 224.308594 272.632812 224.285156 272.605469 C 223.601562 271.71875 224.378906 271.480469 224.925781 271.203125 C 229.339844 268.972656 233.816406 266.851562 238.164062 264.5 C 241.558594 262.667969 244.8125 260.585938 248.089844 258.542969 C 249.988281 257.386719 251.820312 256.125 253.582031 254.765625 C 256.117188 252.765625 258.648438 250.734375 260.96875 248.496094 C 263.566406 246.007812 266.019531 243.375 268.316406 240.605469 C 271.632812 236.566406 274.253906 232.046875 276.644531 227.402344 C 279.136719 222.582031 281.109375 217.507812 282.519531 212.269531 C 283.101562 210.085938 283.324219 207.8125 283.855469 205.613281 C 284.296875 203.75 284.449219 201.832031 284.304688 199.921875 C 284.296875 199.769531 284.367188 199.621094 284.375 199.472656 C 284.425781 198.355469 284.496094 197.234375 284.503906 196.117188 C 284.511719 194.515625 284.347656 192.90625 284.503906 191.324219 C 284.578125 190.484375 284.773438 189.703125 284.390625 188.902344 C 284.175781 188.453125 284.34375 188.140625 284.742188 187.863281 C 284.996094 187.691406 285.320312 187.402344 285.335938 187.148438 C 285.40625 186.292969 285.375 185.429688 285.25 184.582031 C 284.847656 182.332031 284.011719 180.152344 284.410156 177.78125 C 284.476562 177.21875 284.359375 176.652344 284.082031 176.160156 C 282.570312 173.542969 282.226562 170.585938 281.511719 167.734375 C 280.835938 165.039062 279.925781 162.457031 277.847656 160.449219 C 277.386719 160.003906 277.019531 159.472656 276.765625 158.882812 C 274.308594 152.921875 270.921875 147.496094 267.277344 142.210938 C 264.449219 138.105469 261.375 134.1875 257.863281 130.652344 C 255.167969 127.9375 252.226562 125.464844 249.46875 122.808594 C 246.558594 120.011719 243.367188 117.566406 240.113281 115.203125 C 238.359375 113.925781 236.527344 112.753906 234.355469 112.25 C 233.789062 112.117188 233.390625 112.21875 233.144531 112.738281 C 232.902344 113.253906 232.527344 113.238281 232.128906 113.035156 C 231.355469 112.644531 230.589844 112.230469 229.855469 111.773438 C 229.554688 111.585938 229.335938 111.261719 228.949219 110.867188 C 229.917969 111.136719 230.65625 111.417969 231.421875 111.523438 C 231.746094 111.566406 232.117188 111.246094 232.464844 111.09375 C 232.253906 110.75 232.121094 110.253906 231.8125 110.089844 C 229.769531 109.007812 227.710938 107.941406 225.613281 106.964844 C 218.699219 103.746094 211.582031 101.105469 204.101562 99.527344 C 202.535156 99.199219 200.980469 98.796875 199.402344 98.554688 C 197.492188 98.261719 195.535156 98.207031 193.644531 97.855469 C 191.257812 97.398438 188.828125 97.203125 186.398438 97.273438 C 183.855469 97.363281 181.296875 97.101562 178.761719 97.199219 C 176.011719 97.304688 173.265625 97.621094 170.523438 97.890625 C 169.054688 98.039062 167.585938 98.238281 166.132812 98.492188 C 164.355469 98.800781 162.585938 99.179688 160.820312 99.554688 C 159.878906 99.753906 158.941406 99.988281 158.007812 100.238281 C 157.5 100.375 157.347656 100.6875 157.507812 101.238281 C 157.644531 101.699219 157.617188 102.21875 157.679688 102.90625 C 157.960938 102.921875 158.410156 103.0625 158.773438 102.9375 C 159.546875 102.679688 160.292969 102.347656 161 101.941406 C 162.367188 101.152344 162.878906 101.074219 164.5625 101.6875 C 163.960938 101.953125 163.46875 102.222656 162.941406 102.390625 C 161.902344 102.71875 160.828125 102.945312 159.792969 103.296875 C 157.585938 104.042969 155.347656 103.863281 153.097656 103.625 C 152.972656 103.613281 152.769531 103.484375 152.757812 103.390625 C 152.75 103.304688 152.761719 103.222656 152.789062 103.144531 C 152.820312 103.066406 152.863281 102.992188 152.921875 102.933594 C 153.101562 102.808594 153.351562 102.789062 153.5625 102.703125 C 154.261719 102.417969 154.945312 102.109375 155.429688 101.261719 C 153.820312 101.527344 152.355469 101.695312 150.921875 102.019531 C 149.65625 102.332031 148.410156 102.714844 147.191406 103.167969 C 146.78125 103.3125 146.199219 103.59375 146.109375 103.921875 C 145.671875 105.578125 144.367188 105.933594 142.988281 106.433594 C 140.570312 107.3125 138.226562 108.402344 135.851562 109.398438 C 134.8125 109.835938 133.78125 110.285156 132.734375 110.691406 C 132.523438 110.773438 132.171875 110.796875 132.015625 110.675781 C 131.453125 110.226562 131.660156 109.148438 132.328125 108.808594 C 133.050781 108.4375 133.742188 108 134.480469 107.664062 C 136.027344 106.953125 137.59375 106.292969 139.152344 105.609375 C 139.707031 105.371094 140.082031 105.515625 140.316406 106.089844 C 140.539062 106.644531 141.019531 106.792969 141.523438 106.585938 C 142.335938 106.273438 143.121094 105.890625 143.871094 105.445312 C 144.179688 105.25 144.558594 104.714844 144.488281 104.4375 C 144.296875 103.683594 144.644531 103.46875 145.234375 103.3125 C 146.125 103.074219 147.019531 102.847656 147.894531 102.550781 C 148.410156 102.378906 148.707031 101.953125 148.550781 101.398438 C 148.378906 100.800781 147.832031 100.957031 147.445312 101.0625 C 144.878906 101.78125 142.265625 102.371094 139.78125 103.304688 C 133.914062 105.5 128.113281 107.863281 122.28125 110.15625 C 121.980469 110.277344 121.664062 110.371094 121.363281 110.46875 C 121.335938 110.402344 121.304688 110.34375 121.277344 110.277344 C 121.480469 110.09375 121.699219 109.925781 121.933594 109.789062 C 122.535156 109.507812 123.1875 109.324219 123.761719 109 C 124.40625 108.652344 125.003906 108.230469 125.542969 107.734375 C 125.914062 107.378906 125.765625 107.023438 125.171875 107.03125 C 124.730469 107.03125 124.292969 107.03125 123.851562 107.03125 L 123.8125 106.75 C 124.320312 106.53125 124.8125 106.257812 125.339844 106.105469 C 127.21875 105.566406 129.113281 105.078125 130.996094 104.546875 C 134.195312 103.644531 136.835938 101.871094 138.992188 99.359375 C 139.3125 98.988281 139.539062 98.535156 139.917969 97.960938 C 139.242188 97.960938 138.730469 97.847656 138.296875 97.984375 C 137.230469 98.316406 136.1875 98.730469 135.15625 99.164062 C 131.03125 100.910156 126.964844 102.789062 122.621094 103.972656 C 121.847656 104.183594 121.019531 104.207031 120.214844 104.316406 C 120.191406 104.222656 120.164062 104.128906 120.140625 104.03125 C 120.523438 103.796875 120.894531 103.53125 121.296875 103.332031 C 123.648438 102.15625 125.980469 100.945312 128.363281 99.835938 C 132.199219 98.050781 136.074219 96.347656 139.917969 94.582031 C 142.210938 93.527344 144.480469 92.417969 146.753906 91.3125 C 146.910156 91.238281 147.03125 91.066406 147.300781 90.820312 C 147.070312 90.804688 146.835938 90.804688 146.601562 90.820312 C 145.445312 91.042969 144.273438 91.203125 143.144531 91.527344 C 140.414062 92.296875 137.703125 93.164062 134.980469 93.988281 C 132.113281 94.855469 129.367188 95.945312 126.820312 97.578125 C 124.9375 98.789062 122.90625 99.785156 120.644531 100.144531 C 120.355469 100.1875 120.042969 100.082031 119.742188 100.046875 C 119.742188 99.964844 119.742188 99.882812 119.742188 99.800781 C 120.273438 99.453125 120.863281 99.171875 121.3125 98.746094 C 121.621094 98.4375 121.972656 97.898438 121.90625 97.535156 C 121.785156 96.902344 122.039062 96.609375 122.476562 96.347656 C 123.648438 95.671875 124.875 95.089844 125.992188 94.339844 C 127.136719 93.585938 128.210938 92.726562 129.195312 91.773438 C 129.648438 91.300781 130.222656 90.960938 130.855469 90.796875 C 131.5625 90.609375 132.328125 90.480469 132.925781 90.101562 C 134.257812 89.25 135.507812 88.265625 136.769531 87.3125 C 137.003906 87.136719 137.144531 86.847656 137.324219 86.605469 L 137.246094 86.335938 C 136.71875 86.394531 136.164062 86.34375 135.679688 86.527344 C 133.707031 87.28125 131.75 88.074219 129.804688 88.910156 C 125.714844 90.671875 121.648438 92.496094 117.546875 94.234375 C 115.628906 95.046875 113.65625 95.738281 111.691406 96.429688 C 111.507812 96.488281 111.316406 96.511719 111.125 96.496094 C 110.933594 96.484375 110.746094 96.429688 110.574219 96.339844 C 110.113281 96.03125 109.683594 95.949219 109.214844 96.195312 C 108.222656 96.71875 107.242188 97.253906 106.261719 97.800781 C 105.433594 98.265625 104.621094 98.746094 103.796875 99.21875 C 103.746094 99.144531 103.691406 99.066406 103.644531 98.988281 C 104.527344 98.214844 105.332031 97.320312 106.304688 96.691406 C 108.984375 94.960938 111.765625 93.386719 114.441406 91.652344 C 115.746094 90.808594 116.914062 89.742188 118.121094 88.761719 C 118.273438 88.632812 118.363281 88.410156 118.480469 88.230469 L 118.335938 88.039062 L 112.175781 90.898438 C 112.128906 90.808594 112.082031 90.714844 112.035156 90.621094 C 112.21875 90.457031 112.410156 90.300781 112.609375 90.15625 C 113.550781 89.539062 114.464844 88.882812 115.445312 88.339844 C 120.132812 85.738281 124.832031 83.164062 129.542969 80.609375 C 131 79.820312 132.546875 79.191406 134.011719 78.414062 C 134.320312 78.25 134.4375 77.75 134.644531 77.40625 C 134.246094 77.292969 133.820312 77.035156 133.457031 77.097656 C 132.609375 77.246094 131.777344 77.488281 130.976562 77.8125 C 128.476562 78.835938 125.964844 79.835938 123.53125 80.992188 C 121.039062 82.179688 118.636719 83.546875 116.183594 84.816406 C 115.277344 85.28125 114.34375 85.707031 113.425781 86.148438 L 113.332031 85.980469 C 113.53125 85.785156 113.746094 85.609375 113.972656 85.453125 C 116.378906 84.039062 118.730469 82.515625 121.214844 81.261719 C 125.53125 79.074219 129.929688 77.039062 134.46875 75.339844 C 138.394531 73.871094 142.339844 72.445312 146.285156 71.027344 C 146.945312 70.785156 147.367188 70.484375 147.203125 69.699219 C 147.089844 69.175781 147.355469 68.875 147.800781 68.589844 C 149.910156 67.214844 152.203125 66.582031 154.714844 66.847656 C 155.808594 66.960938 156.609375 66.644531 157.316406 65.757812 C 157.644531 65.34375 158.398438 64.972656 158.886719 65.042969 C 160.785156 65.316406 162.414062 64.648438 164.03125 63.855469 C 164.386719 63.679688 164.667969 63.355469 164.984375 63.101562 L 164.84375 62.773438 C 157.46875 63.429688 150.320312 65.339844 143.117188 66.960938 L 143.035156 66.722656 L 146.953125 64.777344 C 146.707031 64.636719 146.425781 64.582031 146.148438 64.621094 C 145.285156 64.71875 144.429688 64.828125 143.570312 64.941406 C 143.140625 64.984375 142.710938 65.054688 142.289062 65.15625 C 140.09375 65.785156 137.871094 66.347656 135.714844 67.09375 C 129.976562 69.074219 124.398438 71.453125 118.917969 74.046875 C 115.207031 75.804688 111.550781 77.675781 107.863281 79.488281 C 107.265625 79.78125 106.644531 80.027344 105.847656 80.378906 C 106.015625 79.957031 106.125 79.777344 106.15625 79.585938 C 106.199219 79.320312 106.296875 78.90625 106.175781 78.8125 C 105.984375 78.65625 105.601562 78.644531 105.339844 78.714844 C 104.847656 78.839844 104.375 79.035156 103.9375 79.289062 C 102.277344 80.292969 100.582031 81.257812 99.015625 82.394531 C 97.363281 83.585938 95.613281 84.710938 94.574219 86.589844 C 94.371094 86.917969 94.074219 87.179688 93.722656 87.34375 C 93.449219 87.472656 93.078125 87.394531 92.746094 87.410156 C 92.855469 87.132812 92.902344 86.792969 93.085938 86.585938 C 94.210938 85.417969 95.308594 84.214844 96.527344 83.148438 C 98.917969 81.054688 101.332031 78.988281 103.824219 77.019531 C 105.726562 75.515625 107.746094 74.15625 109.746094 72.777344 C 112.144531 71.128906 114.605469 69.5625 116.996094 67.902344 C 119.726562 66.003906 122.410156 64.039062 125.128906 62.128906 C 125.292969 62.027344 125.46875 61.957031 125.65625 61.925781 C 125.84375 61.890625 126.039062 61.898438 126.222656 61.941406 C 127.882812 62.441406 129.214844 61.773438 130.34375 60.722656 C 131.472656 59.671875 132.6875 59.089844 134.28125 59.242188 C 135.710938 59.382812 137.054688 58.898438 138.339844 58.292969 C 140.292969 57.367188 142.203125 56.335938 144.210938 55.542969 C 145.507812 55.03125 146.894531 54.550781 148.367188 54.964844 C 148.796875 55.101562 149.257812 55.085938 149.675781 54.929688 C 150.097656 54.769531 150.453125 54.472656 150.683594 54.089844 C 150.878906 53.792969 150.976562 53.417969 151.207031 53.164062 C 151.441406 52.90625 151.835938 52.601562 152.03125 52.675781 C 153.847656 53.347656 155.519531 52.519531 157.210938 52.175781 C 158.867188 51.835938 160.457031 51.15625 162.09375 50.726562 C 162.832031 50.535156 163.753906 50.273438 164.3125 51.035156 C 164.75 51.632812 165.238281 51.605469 165.792969 51.53125 C 167.941406 51.238281 170.078125 50.855469 172.234375 50.648438 C 174.324219 50.445312 176.433594 50.339844 178.535156 50.339844 C 182.726562 50.339844 186.917969 50.4375 191.109375 50.492188 C 191.957031 50.503906 192.808594 50.457031 193.652344 50.519531 C 195.945312 50.6875 198.238281 50.957031 200.535156 51.074219 C 201.898438 51.140625 203.039062 51.382812 203.707031 52.742188 C 204.015625 53.382812 204.636719 53.589844 205.347656 53.261719 C 205.636719 53.105469 205.957031 53.003906 206.285156 52.964844 C 207.839844 52.925781 209.449219 52.375 210.914062 53.378906 C 210.96875 53.417969 211.070312 53.398438 211.140625 53.414062 C 212.453125 53.695312 213.769531 53.984375 215.085938 54.261719 C 216.726562 54.601562 218.390625 54.859375 220.007812 55.289062 C 221.628906 55.71875 223.253906 56.191406 224.464844 57.519531 C 224.742188 57.828125 225.1875 57.972656 225.570312 58.167969 C 226.085938 58.433594 226.621094 58.65625 227.132812 58.929688 C 227.59375 59.179688 228.023438 59.535156 228.511719 59.742188 C 231.949219 61.203125 235.367188 62.722656 238.855469 64.058594 C 243.085938 65.675781 247.433594 66.980469 251.488281 69.042969 C 253.996094 70.320312 256.503906 71.605469 258.535156 73.609375 C 260.761719 75.804688 263.199219 77.648438 266.136719 78.835938 C 266.957031 79.183594 267.640625 79.800781 268.074219 80.582031 C 269.105469 82.652344 270.816406 83.933594 272.691406 85.042969 C 274.960938 86.386719 276.976562 88.0625 278.875 89.835938 C 281.644531 92.410156 284.324219 95.082031 286.90625 97.855469 C 289.488281 100.636719 291.941406 103.539062 294.351562 106.476562 C 295.953125 108.429688 297.457031 110.472656 298.859375 112.574219 C 301.238281 116.144531 303.585938 119.742188 305.789062 123.425781 C 307.382812 126.089844 308.699219 128.917969 310.179688 131.652344 C 311.707031 134.476562 313.382812 137.226562 314.800781 140.101562 C 315.566406 141.648438 316.003906 143.382812 316.460938 145.066406 C 316.914062 146.753906 317.058594 148.535156 318.09375 149.960938 C 318.914062 151.0625 319.488281 152.328125 319.773438 153.671875 C 319.925781 154.417969 319.984375 155.183594 320.101562 155.941406 C 320.425781 158.03125 320.769531 160.113281 321.085938 162.207031 C 321.445312 164.566406 322.242188 166.746094 323.667969 168.675781 C 323.976562 169.097656 323.953125 169.457031 323.589844 169.832031 C 322.664062 170.78125 322.453125 171.890625 322.816406 173.160156 C 322.925781 173.53125 323.027344 174.125 322.832031 174.324219 C 322.03125 175.136719 322.039062 176.15625 321.816406 177.148438 C 321.644531 177.929688 321.816406 178.527344 322.183594 179.175781 C 322.609375 179.894531 322.976562 180.648438 323.277344 181.429688 C 323.621094 182.371094 323.421875 182.550781 322.398438 182.375 C 321.933594 183.40625 321.582031 184.425781 321.914062 185.621094 C 322.210938 186.6875 322.035156 187.761719 321.570312 188.765625 C 321.199219 189.558594 320.542969 189.789062 319.878906 189.375 C 319.726562 189.28125 319.648438 189.066406 319.535156 188.910156 C 319.707031 188.839844 319.902344 188.675781 320.042969 188.710938 C 320.796875 188.898438 320.914062 188.339844 321.074219 187.863281 C 321.144531 187.589844 321.183594 187.308594 321.191406 187.027344 C 321.292969 185.867188 321.695312 184.707031 321.050781 183.554688 C 320.902344 183.300781 320.984375 182.835938 321.105469 182.523438 C 321.613281 181.234375 321.492188 179.960938 321.082031 178.695312 C 320.914062 178.179688 320.789062 177.46875 320.066406 177.539062 C 319.339844 177.605469 319.5625 178.351562 319.371094 178.8125 C 319.257812 179.085938 318.980469 179.445312 318.738281 179.476562 C 318.164062 179.550781 317.855469 179.839844 317.855469 180.347656 C 317.855469 182.136719 317.925781 183.925781 317.929688 185.714844 C 317.933594 186.210938 317.851562 186.703125 317.683594 187.167969 C 317.375 187.976562 316.777344 188.710938 316.648438 189.539062 C 316.3125 191.609375 316.105469 193.699219 316.03125 195.792969 C 315.964844 198.175781 315.65625 200.472656 314.601562 202.628906 C 314.246094 203.359375 314.25 204.070312 314.460938 204.851562 C 314.777344 206.035156 314.808594 207.238281 314.195312 208.355469 C 314.058594 208.609375 313.761719 208.773438 313.453125 209.050781 C 313.367188 208.730469 313.308594 208.628906 313.320312 208.535156 C 313.550781 206.628906 312.925781 204.699219 313.496094 202.796875 C 313.601562 202.402344 313.652344 201.992188 313.648438 201.578125 C 313.714844 198.9375 313.78125 196.292969 313.804688 193.652344 C 313.832031 191.074219 313.832031 188.5 313.804688 185.925781 C 313.785156 184.082031 313.746094 182.234375 313.628906 180.398438 C 313.601562 179.988281 313.296875 179.441406 312.953125 179.238281 C 311.96875 178.65625 311.871094 178.5 312.605469 177.578125 C 313.015625 177.070312 312.894531 176.675781 312.589844 176.199219 C 312.304688 175.753906 311.988281 175.289062 311.875 174.789062 C 311.664062 173.871094 311.671875 172.902344 311.449219 171.988281 C 310.777344 169.304688 310.09375 166.621094 309.316406 163.964844 C 308.3125 160.53125 306.914062 157.246094 305.289062 154.0625 C 305.054688 153.597656 304.625 153.242188 304.28125 152.832031 L 303.902344 152.960938 C 303.882812 153.484375 303.746094 154.042969 303.867188 154.535156 C 304.164062 155.839844 304.660156 157.109375 304.914062 158.421875 C 305.164062 159.734375 305.542969 160.988281 306.441406 162.03125 C 306.660156 162.3125 306.84375 162.621094 306.996094 162.945312 C 307.238281 163.410156 307.234375 163.789062 306.714844 164.121094 C 306.589844 164.214844 306.484375 164.335938 306.402344 164.472656 C 306.324219 164.613281 306.273438 164.765625 306.253906 164.921875 C 306.199219 165.53125 306.210938 166.140625 306.289062 166.746094 C 306.558594 168.871094 306.953125 170.988281 307.144531 173.117188 C 307.425781 176.234375 307.675781 179.359375 307.753906 182.484375 C 307.828125 185.664062 307.714844 188.855469 307.613281 192.039062 C 307.535156 194.476562 307.421875 196.917969 307.183594 199.34375 C 306.925781 201.957031 306.515625 204.554688 306.160156 207.160156 C 305.925781 208.859375 305.75 210.5625 305.40625 212.230469 C 304.929688 214.542969 304.371094 216.839844 303.753906 219.117188 C 302.871094 222.375 301.988281 225.636719 300.953125 228.851562 C 299.277344 233.988281 297.191406 238.976562 294.714844 243.777344 C 290.449219 252.09375 285.1875 259.851562 279.042969 266.890625 C 277.8125 268.308594 276.453125 269.613281 275.144531 270.960938 C 274.429688 271.699219 273.738281 272.464844 272.957031 273.125 C 272.691406 273.347656 272.183594 273.320312 271.785156 273.34375 C 271.0625 273.386719 270.277344 273.210938 269.628906 273.445312 C 268.835938 273.730469 268.167969 274.359375 267.425781 274.804688 C 267.0625 274.996094 266.6875 275.160156 266.300781 275.304688 L 266.300781 274.082031 C 265.710938 274.257812 265.066406 274.320312 264.582031 274.625 C 262.214844 276.089844 259.875 277.609375 257.554688 279.140625 C 254.441406 281.199219 251.378906 283.335938 248.25 285.359375 C 243.269531 288.574219 238.21875 291.679688 232.824219 294.15625 C 230.054688 295.425781 227.183594 296.484375 224.3125 297.519531 C 222.429688 298.199219 220.472656 298.675781 218.542969 299.21875 C 217.328125 299.558594 216.179688 300.203125 214.832031 299.945312 C 214.554688 299.890625 214.226562 300.105469 213.859375 300.21875 C 214.03125 300.527344 214.148438 300.722656 214.25 300.921875 C 214.523438 301.460938 214.359375 301.851562 213.761719 301.914062 C 212.574219 302.054688 211.378906 302.222656 210.183594 302.242188 C 207.023438 302.285156 203.859375 302.15625 200.703125 302.277344 C 199.035156 302.34375 197.386719 302.8125 195.722656 303.050781 C 195.089844 303.144531 194.4375 303.113281 193.796875 303.132812 C 192.609375 303.164062 191.28125 302.863281 190.265625 303.296875 C 188.554688 304.03125 186.820312 303.949219 185.132812 303.867188 C 182.386719 303.730469 179.664062 303.183594 176.925781 302.882812 C 176.230469 302.808594 175.4375 302.632812 174.667969 303.335938 L 176.453125 304.476562 L 176.351562 304.722656 C 175.128906 304.550781 173.890625 304.445312 172.6875 304.1875 C 171.667969 303.972656 171.617188 303.671875 172.363281 302.859375 C 172.164062 302.738281 171.984375 302.550781 171.785156 302.527344 C 170.675781 302.375 169.5625 302.183594 168.445312 302.175781 C 168.023438 302.175781 167.527344 302.550781 167.191406 302.882812 C 166.765625 303.300781 166.347656 303.414062 165.800781 303.257812 C 165.320312 303.097656 164.828125 302.960938 164.328125 302.859375 C 162.695312 302.582031 161.050781 302.335938 159.410156 302.085938 C 158.671875 301.972656 157.929688 301.863281 157.1875 301.75 L 157.125 301.972656 C 157.6875 302.253906 158.230469 302.605469 158.828125 302.8125 C 160.316406 303.335938 161.851562 303.742188 163.328125 304.300781 C 164.441406 304.726562 165.503906 305.304688 166.5625 305.867188 C 166.757812 305.96875 166.828125 306.304688 166.957031 306.53125 C 166.722656 306.648438 166.492188 306.851562 166.253906 306.855469 C 165.933594 306.863281 165.613281 306.691406 165.285156 306.648438 C 164.890625 306.597656 164.488281 306.605469 164.089844 306.585938 L 164.03125 306.894531 L 165.683594 307.53125 L 165.621094 307.8125 C 165.1875 307.792969 164.753906 307.746094 164.324219 307.679688 C 163.132812 307.429688 161.941406 307.160156 160.757812 306.867188 C 158.738281 306.359375 156.722656 305.839844 154.707031 305.304688 C 153.019531 304.855469 151.335938 304.378906 149.648438 303.914062 C 148.371094 303.570312 147.09375 303.234375 145.8125 302.921875 C 144.800781 302.671875 143.789062 302.4375 142.765625 302.253906 C 142.554688 302.21875 142.304688 302.449219 142.0625 302.554688 C 142.179688 302.796875 142.230469 303.121094 142.417969 303.265625 C 142.800781 303.550781 143.253906 303.742188 143.683594 303.96875 C 147.976562 306.207031 152.578125 307.59375 157.238281 308.796875 C 159.03125 309.261719 160.84375 309.648438 162.632812 310.121094 C 164.449219 310.605469 166.253906 311.121094 168.042969 311.667969 C 169.4375 312.097656 170.792969 312.597656 172.152344 313.101562 C 172.332031 313.167969 172.445312 313.410156 172.585938 313.566406 C 172.472656 313.644531 172.363281 313.78125 172.238281 313.800781 C 171 313.96875 169.753906 314.128906 168.511719 314.273438 C 168.046875 314.324219 167.375 314.144531 167.335938 314.773438 C 167.316406 315.035156 167.988281 315.347656 168.367188 315.617188 C 168.457031 315.679688 168.621094 315.640625 168.738281 315.679688 C 169.316406 315.875 169.917969 316.035156 170.457031 316.296875 C 170.753906 316.453125 170.957031 316.789062 171.199219 317.046875 L 171.035156 317.257812 C 170.785156 317.246094 170.539062 317.21875 170.296875 317.167969 C 169.347656 316.878906 168.425781 316.460938 167.457031 316.296875 C 166.378906 316.109375 165.285156 316.054688 164.195312 316.125 C 163.316406 316.183594 163.113281 316.820312 163.746094 317.445312 C 164.304688 318 164.925781 318.628906 165.636719 318.859375 C 167.445312 319.449219 169.316406 319.832031 171.164062 320.296875 C 172.292969 320.582031 173.445312 320.800781 174.539062 321.1875 C 175.121094 321.390625 175.605469 321.871094 176.109375 322.269531 C 176.160156 322.332031 176.199219 322.410156 176.21875 322.488281 C 176.238281 322.566406 176.242188 322.652344 176.226562 322.734375 C 176.210938 322.820312 175.992188 322.898438 175.859375 322.914062 C 175.628906 322.953125 175.394531 322.941406 175.167969 322.886719 C 173.535156 322.378906 171.898438 321.894531 170.160156 321.972656 C 169.953125 321.957031 169.753906 321.914062 169.558594 321.84375 C 168.136719 321.535156 166.71875 321.203125 165.289062 320.953125 C 164.757812 320.859375 164.183594 320.980469 163.628906 321.003906 L 163.601562 321.296875 C 163.839844 321.421875 164.066406 321.617188 164.316406 321.664062 C 165.925781 321.945312 167.539062 322.195312 169.152344 322.464844 C 169.453125 322.5 169.75 322.578125 170.027344 322.699219 C 170.761719 323.054688 171.480469 323.441406 172.191406 323.835938 C 172.527344 324.023438 172.835938 324.257812 173.15625 324.472656 C 173.128906 324.550781 173.101562 324.625 173.074219 324.710938 C 172.757812 324.710938 172.433594 324.765625 172.128906 324.710938 C 170.640625 324.402344 169.148438 324.078125 167.667969 323.714844 C 164.660156 322.976562 161.660156 322.199219 158.652344 321.464844 C 156.796875 321.011719 154.957031 320.488281 153.074219 320.226562 C 152.007812 320.074219 151.21875 319.703125 150.621094 318.882812 C 150.3125 318.441406 149.90625 318.078125 149.429688 317.816406 C 148.957031 317.558594 148.429688 317.414062 147.890625 317.390625 C 146.210938 317.304688 144.550781 316.675781 142.824219 317.1875 C 142.496094 317.285156 142.023438 317.070312 141.667969 316.890625 C 140.753906 316.4375 139.824219 315.988281 138.984375 315.417969 C 137.464844 314.386719 135.746094 313.683594 133.9375 313.351562 C 132.546875 313.085938 131.136719 312.855469 129.742188 312.558594 C 129.101562 312.425781 128.507812 312.082031 127.859375 311.980469 C 126.96875 311.839844 126.777344 312.152344 127.128906 312.984375 C 127.253906 313.28125 127.324219 313.601562 127.417969 313.914062 L 127.207031 314.039062 C 127.023438 313.929688 126.738281 313.863281 126.671875 313.707031 C 126.3125 312.839844 125.550781 312.515625 124.796875 312.121094 C 124.546875 311.988281 124.253906 311.515625 124.3125 311.292969 C 124.5625 310.382812 124.035156 310.054688 123.386719 309.710938 C 121.453125 308.667969 119.488281 307.675781 117.628906 306.515625 C 113.796875 304.121094 109.960938 301.726562 106.246094 299.148438 C 103.398438 297.179688 100.726562 294.957031 97.992188 292.824219 C 97.261719 292.261719 96.480469 291.714844 95.90625 291.007812 C 93.480469 288.019531 91.09375 285.003906 88.75 281.953125 C 86.769531 279.359375 84.835938 276.734375 82.414062 274.515625 C 82.179688 274.28125 81.914062 274.078125 81.621094 273.914062 C 81.414062 273.8125 81.140625 273.847656 80.894531 273.816406 C 80.878906 274.0625 80.789062 274.328125 80.863281 274.539062 C 81.019531 274.917969 81.210938 275.28125 81.441406 275.621094 C 83.679688 279.1875 86.300781 282.5 89.257812 285.492188 C 91.34375 287.621094 93.601562 289.578125 95.785156 291.613281 C 97.496094 293.207031 99.167969 294.839844 100.921875 296.382812 C 103.253906 298.425781 105.664062 300.386719 108.007812 302.410156 C 108.351562 302.707031 108.53125 303.183594 108.78125 303.582031 L 108.550781 303.800781 C 108.175781 303.617188 107.761719 303.492188 107.433594 303.242188 C 103.082031 300.046875 98.695312 296.894531 94.417969 293.605469 C 91.945312 291.707031 89.636719 289.585938 87.261719 287.550781 C 85.949219 286.421875 84.917969 285.167969 84.984375 283.261719 C 85.011719 282.335938 84.203125 281.628906 83.449219 281.851562 C 82.695312 282.070312 82.324219 281.734375 81.949219 281.25 C 80.550781 279.453125 79.125 277.671875 77.777344 275.839844 C 73.804688 270.507812 70.296875 264.84375 67.292969 258.910156 C 63.816406 251.992188 61.035156 244.746094 58.984375 237.28125 C 57.5625 232.101562 56.355469 226.882812 55.535156 221.574219 C 55.402344 220.71875 55.140625 219.886719 55.035156 219.03125 C 54.816406 217.28125 54.640625 215.527344 54.480469 213.769531 C 54.28125 211.527344 54.105469 209.289062 53.925781 207.042969 C 53.886719 206.53125 53.882812 206.015625 53.835938 205.503906 C 53.671875 203.542969 53.527344 201.578125 53.308594 199.621094 C 53.234375 198.960938 53.089844 198.25 52.769531 197.679688 C 51.644531 195.703125 51.011719 193.589844 51.023438 191.335938 C 51.078125 187.746094 51.019531 184.15625 51.425781 180.527344 Z M 51.425781 180.527344 " clip-rule="nonzero"/></clipPath><linearGradient x1="1896.975793" gradientTransform="matrix(-0.154581, 0, 0, 0.154561, 323.883447, 50.338469)" y1="191.048496" x2="-126.415606" gradientUnits="userSpaceOnUse" y2="1593.140366" id="0d62dfcf02"><stop stop-opacity="1" stop-color="rgb(0%, 100%, 100%)" offset="0"/><stop stop-opacity="1" stop-color="rgb(0%, 100%, 100%)" offset="0.0625"/><stop stop-opacity="1" stop-color="rgb(0.0442505%, 99.906921%, 99.966431%)" offset="0.0703125"/><stop stop-opacity="1" stop-color="rgb(0.160217%, 99.67041%, 99.884033%)" offset="0.078125"/><stop stop-opacity="1" stop-color="rgb(0.299072%, 99.383545%, 99.786377%)" offset="0.0859375"/><stop stop-opacity="1" stop-color="rgb(0.439453%, 99.098206%, 99.687195%)" offset="0.09375"/><stop stop-opacity="1" stop-color="rgb(0.579834%, 98.812866%, 99.588013%)" offset="0.101562"/><stop stop-opacity="1" stop-color="rgb(0.718689%, 98.527527%, 99.488831%)" offset="0.109375"/><stop stop-opacity="1" stop-color="rgb(0.85907%, 98.240662%, 99.389648%)" offset="0.117188"/><stop stop-opacity="1" stop-color="rgb(0.997925%, 97.955322%, 99.290466%)" offset="0.125"/><stop stop-opacity="1" stop-color="rgb(1.138306%, 97.669983%, 99.191284%)" offset="0.132812"/><stop stop-opacity="1" stop-color="rgb(1.278687%, 97.384644%, 99.092102%)" offset="0.140625"/><stop stop-opacity="1" stop-color="rgb(1.417542%, 97.099304%, 98.994446%)" offset="0.148438"/><stop stop-opacity="1" stop-color="rgb(1.557922%, 96.812439%, 98.895264%)" offset="0.15625"/><stop stop-opacity="1" stop-color="rgb(1.698303%, 96.5271%, 98.796082%)" offset="0.164062"/><stop stop-opacity="1" stop-color="rgb(1.837158%, 96.24176%, 98.696899%)" offset="0.171875"/><stop stop-opacity="1" stop-color="rgb(1.977539%, 95.956421%, 98.597717%)" offset="0.179688"/><stop stop-opacity="1" stop-color="rgb(2.116394%, 95.669556%, 98.498535%)" offset="0.1875"/><stop stop-opacity="1" stop-color="rgb(2.256775%, 95.384216%, 98.399353%)" offset="0.195313"/><stop stop-opacity="1" stop-color="rgb(2.397156%, 95.098877%, 98.300171%)" offset="0.203125"/><stop stop-opacity="1" stop-color="rgb(2.536011%, 94.813538%, 98.202515%)" offset="0.210938"/><stop stop-opacity="1" stop-color="rgb(2.676392%, 94.528198%, 98.103333%)" offset="0.21875"/><stop stop-opacity="1" stop-color="rgb(2.816772%, 94.241333%, 98.00415%)" offset="0.226562"/><stop stop-opacity="1" stop-color="rgb(2.955627%, 93.955994%, 97.904968%)" offset="0.234375"/><stop stop-opacity="1" stop-color="rgb(3.096008%, 93.670654%, 97.805786%)" offset="0.242188"/><stop stop-opacity="1" stop-color="rgb(3.234863%, 93.385315%, 97.706604%)" offset="0.25"/><stop stop-opacity="1" stop-color="rgb(3.375244%, 93.09845%, 97.607422%)" offset="0.257812"/><stop stop-opacity="1" stop-color="rgb(3.515625%, 92.81311%, 97.50824%)" offset="0.265625"/><stop stop-opacity="1" stop-color="rgb(3.65448%, 92.527771%, 97.410583%)" offset="0.273438"/><stop stop-opacity="1" stop-color="rgb(3.794861%, 92.242432%, 97.311401%)" offset="0.28125"/><stop stop-opacity="1" stop-color="rgb(3.933716%, 91.957092%, 97.212219%)" offset="0.289062"/><stop stop-opacity="1" stop-color="rgb(4.074097%, 91.670227%, 97.113037%)" offset="0.296875"/><stop stop-opacity="1" stop-color="rgb(4.214478%, 91.384888%, 97.013855%)" offset="0.304687"/><stop stop-opacity="1" stop-color="rgb(4.353333%, 91.099548%, 96.914673%)" offset="0.3125"/><stop stop-opacity="1" stop-color="rgb(4.493713%, 90.814209%, 96.815491%)" offset="0.320312"/><stop stop-opacity="1" stop-color="rgb(4.634094%, 90.52887%, 96.716309%)" offset="0.328125"/><stop stop-opacity="1" stop-color="rgb(4.772949%, 90.242004%, 96.618652%)" offset="0.335938"/><stop stop-opacity="1" stop-color="rgb(4.91333%, 89.956665%, 96.51947%)" offset="0.34375"/><stop stop-opacity="1" stop-color="rgb(5.052185%, 89.671326%, 96.420288%)" offset="0.351563"/><stop stop-opacity="1" stop-color="rgb(5.192566%, 89.385986%, 96.321106%)" offset="0.359375"/><stop stop-opacity="1" stop-color="rgb(5.332947%, 89.099121%, 96.221924%)" offset="0.367188"/><stop stop-opacity="1" stop-color="rgb(5.471802%, 88.813782%, 96.122742%)" offset="0.375"/><stop stop-opacity="1" stop-color="rgb(5.612183%, 88.528442%, 96.02356%)" offset="0.382813"/><stop stop-opacity="1" stop-color="rgb(5.752563%, 88.243103%, 95.924377%)" offset="0.390625"/><stop stop-opacity="1" stop-color="rgb(5.891418%, 87.957764%, 95.826721%)" offset="0.398438"/><stop stop-opacity="1" stop-color="rgb(6.031799%, 87.670898%, 95.727539%)" offset="0.40625"/><stop stop-opacity="1" stop-color="rgb(6.170654%, 87.385559%, 95.628357%)" offset="0.410803"/><stop stop-opacity="1" stop-color="rgb(6.240845%, 87.243652%, 95.579529%)" offset="0.414062"/><stop stop-opacity="1" stop-color="rgb(6.311035%, 87.10022%, 95.529175%)" offset="0.421875"/><stop stop-opacity="1" stop-color="rgb(6.451416%, 86.81488%, 95.429993%)" offset="0.429688"/><stop stop-opacity="1" stop-color="rgb(6.590271%, 86.528015%, 95.330811%)" offset="0.4375"/><stop stop-opacity="1" stop-color="rgb(6.730652%, 86.242676%, 95.231628%)" offset="0.445312"/><stop stop-opacity="1" stop-color="rgb(6.869507%, 85.957336%, 95.132446%)" offset="0.453125"/><stop stop-opacity="1" stop-color="rgb(7.009888%, 85.671997%, 95.03479%)" offset="0.460937"/><stop stop-opacity="1" stop-color="rgb(7.150269%, 85.386658%, 94.935608%)" offset="0.46875"/><stop stop-opacity="1" stop-color="rgb(7.289124%, 85.099792%, 94.836426%)" offset="0.476562"/><stop stop-opacity="1" stop-color="rgb(7.429504%, 84.814453%, 94.737244%)" offset="0.484375"/><stop stop-opacity="1" stop-color="rgb(7.569885%, 84.529114%, 94.638062%)" offset="0.492187"/><stop stop-opacity="1" stop-color="rgb(7.70874%, 84.243774%, 94.538879%)" offset="0.5"/><stop stop-opacity="1" stop-color="rgb(7.849121%, 83.956909%, 94.439697%)" offset="0.507812"/><stop stop-opacity="1" stop-color="rgb(7.987976%, 83.67157%, 94.340515%)" offset="0.515625"/><stop stop-opacity="1" stop-color="rgb(8.128357%, 83.38623%, 94.242859%)" offset="0.523438"/><stop stop-opacity="1" stop-color="rgb(8.268738%, 83.100891%, 94.143677%)" offset="0.53125"/><stop stop-opacity="1" stop-color="rgb(8.407593%, 82.815552%, 94.044495%)" offset="0.539062"/><stop stop-opacity="1" stop-color="rgb(8.547974%, 82.528687%, 93.945312%)" offset="0.546875"/><stop stop-opacity="1" stop-color="rgb(8.688354%, 82.243347%, 93.84613%)" offset="0.554687"/><stop stop-opacity="1" stop-color="rgb(8.827209%, 81.958008%, 93.746948%)" offset="0.5625"/><stop stop-opacity="1" stop-color="rgb(8.96759%, 81.672668%, 93.647766%)" offset="0.570312"/><stop stop-opacity="1" stop-color="rgb(9.106445%, 81.385803%, 93.55011%)" offset="0.578125"/><stop stop-opacity="1" stop-color="rgb(9.246826%, 81.100464%, 93.450928%)" offset="0.585938"/><stop stop-opacity="1" stop-color="rgb(9.387207%, 80.815125%, 93.351746%)" offset="0.589197"/><stop stop-opacity="1" stop-color="rgb(9.457397%, 80.673218%, 93.302917%)" offset="0.59375"/><stop stop-opacity="1" stop-color="rgb(9.526062%, 80.529785%, 93.252563%)" offset="0.601562"/><stop stop-opacity="1" stop-color="rgb(9.666443%, 80.244446%, 93.153381%)" offset="0.609375"/><stop stop-opacity="1" stop-color="rgb(9.805298%, 79.957581%, 93.054199%)" offset="0.617188"/><stop stop-opacity="1" stop-color="rgb(9.945679%, 79.672241%, 92.955017%)" offset="0.625"/><stop stop-opacity="1" stop-color="rgb(10.08606%, 79.386902%, 92.855835%)" offset="0.632812"/><stop stop-opacity="1" stop-color="rgb(10.224915%, 79.101562%, 92.758179%)" offset="0.640625"/><stop stop-opacity="1" stop-color="rgb(10.365295%, 78.814697%, 92.658997%)" offset="0.648438"/><stop stop-opacity="1" stop-color="rgb(10.505676%, 78.529358%, 92.559814%)" offset="0.65625"/><stop stop-opacity="1" stop-color="rgb(10.644531%, 78.244019%, 92.460632%)" offset="0.664062"/><stop stop-opacity="1" stop-color="rgb(10.784912%, 77.958679%, 92.36145%)" offset="0.671875"/><stop stop-opacity="1" stop-color="rgb(10.923767%, 77.67334%, 92.262268%)" offset="0.679688"/><stop stop-opacity="1" stop-color="rgb(11.064148%, 77.386475%, 92.163086%)" offset="0.6875"/><stop stop-opacity="1" stop-color="rgb(11.204529%, 77.101135%, 92.063904%)" offset="0.695312"/><stop stop-opacity="1" stop-color="rgb(11.343384%, 76.815796%, 91.966248%)" offset="0.703125"/><stop stop-opacity="1" stop-color="rgb(11.483765%, 76.530457%, 91.867065%)" offset="0.710938"/><stop stop-opacity="1" stop-color="rgb(11.624146%, 76.243591%, 91.767883%)" offset="0.71875"/><stop stop-opacity="1" stop-color="rgb(11.763%, 75.958252%, 91.668701%)" offset="0.726562"/><stop stop-opacity="1" stop-color="rgb(11.903381%, 75.672913%, 91.569519%)" offset="0.734375"/><stop stop-opacity="1" stop-color="rgb(12.042236%, 75.387573%, 91.470337%)" offset="0.742188"/><stop stop-opacity="1" stop-color="rgb(12.182617%, 75.102234%, 91.371155%)" offset="0.75"/><stop stop-opacity="1" stop-color="rgb(12.322998%, 74.815369%, 91.271973%)" offset="0.757813"/><stop stop-opacity="1" stop-color="rgb(12.461853%, 74.530029%, 91.174316%)" offset="0.765625"/><stop stop-opacity="1" stop-color="rgb(12.602234%, 74.24469%, 91.075134%)" offset="0.773438"/><stop stop-opacity="1" stop-color="rgb(12.741089%, 73.959351%, 90.975952%)" offset="0.78125"/><stop stop-opacity="1" stop-color="rgb(12.88147%, 73.672485%, 90.87677%)" offset="0.789062"/><stop stop-opacity="1" stop-color="rgb(13.021851%, 73.387146%, 90.777588%)" offset="0.796875"/><stop stop-opacity="1" stop-color="rgb(13.160706%, 73.101807%, 90.678406%)" offset="0.804688"/><stop stop-opacity="1" stop-color="rgb(13.301086%, 72.816467%, 90.579224%)" offset="0.8125"/><stop stop-opacity="1" stop-color="rgb(13.441467%, 72.531128%, 90.480042%)" offset="0.820313"/><stop stop-opacity="1" stop-color="rgb(13.580322%, 72.244263%, 90.382385%)" offset="0.828125"/><stop stop-opacity="1" stop-color="rgb(13.720703%, 71.958923%, 90.283203%)" offset="0.835938"/><stop stop-opacity="1" stop-color="rgb(13.859558%, 71.673584%, 90.184021%)" offset="0.84375"/><stop stop-opacity="1" stop-color="rgb(13.999939%, 71.388245%, 90.084839%)" offset="0.851562"/><stop stop-opacity="1" stop-color="rgb(14.14032%, 71.101379%, 89.985657%)" offset="0.859375"/><stop stop-opacity="1" stop-color="rgb(14.279175%, 70.81604%, 89.886475%)" offset="0.867188"/><stop stop-opacity="1" stop-color="rgb(14.419556%, 70.530701%, 89.787292%)" offset="0.875"/><stop stop-opacity="1" stop-color="rgb(14.559937%, 70.245361%, 89.68811%)" offset="0.882812"/><stop stop-opacity="1" stop-color="rgb(14.698792%, 69.960022%, 89.590454%)" offset="0.890625"/><stop stop-opacity="1" stop-color="rgb(14.839172%, 69.673157%, 89.491272%)" offset="0.898438"/><stop stop-opacity="1" stop-color="rgb(14.978027%, 69.387817%, 89.39209%)" offset="0.90625"/><stop stop-opacity="1" stop-color="rgb(15.118408%, 69.102478%, 89.292908%)" offset="0.914063"/><stop stop-opacity="1" stop-color="rgb(15.258789%, 68.817139%, 89.193726%)" offset="0.921875"/><stop stop-opacity="1" stop-color="rgb(15.397644%, 68.530273%, 89.094543%)" offset="0.929687"/><stop stop-opacity="1" stop-color="rgb(15.538025%, 68.244934%, 88.995361%)" offset="0.9375"/><stop stop-opacity="1" stop-color="rgb(15.67688%, 67.959595%, 88.896179%)" offset="0.945312"/><stop stop-opacity="1" stop-color="rgb(15.817261%, 67.674255%, 88.798523%)" offset="0.953125"/><stop stop-opacity="1" stop-color="rgb(15.957642%, 67.388916%, 88.699341%)" offset="0.960937"/><stop stop-opacity="1" stop-color="rgb(16.062927%, 67.172241%, 88.624573%)" offset="0.96875"/><stop stop-opacity="1" stop-color="rgb(16.099548%, 67.098999%, 88.598633%)" offset="1"/></linearGradient></defs><g clip-path="url(#917fee9fb5)"><g clip-path="url(#0516ecf883)"><path fill="url(#0d62dfcf02)" d="M 323.886719 50.339844 L 323.886719 324.765625 L 51.109375 324.765625 L 51.109375 50.339844 Z M 323.886719 50.339844 " fill-rule="nonzero"/></g></g><g fill="#000000" fill-opacity="1"><g transform="translate(5.388759, 194.052952)"><g><path d="M 21.515625 -1.640625 L 21.515625 0 L 4.34375 0 L 4.34375 -24.890625 L 20.984375 -24.890625 L 20.984375 -23.265625 L 6.15625 -23.265625 L 6.15625 -13.4375 L 19.421875 -13.4375 L 19.421875 -11.84375 L 6.15625 -11.84375 L 6.15625 -1.640625 Z M 21.515625 -1.640625 "/></g></g></g><g fill="#000000" fill-opacity="1"><g transform="translate(36.298026, 194.052952)"><g><path d="M 4.34375 -24.890625 L 14.1875 -24.890625 C 16.769531 -24.890625 19.0625 -24.351562 21.0625 -23.28125 C 23.070312 -22.21875 24.632812 -20.742188 25.75 -18.859375 C 26.863281 -16.972656 27.421875 -14.835938 27.421875 -12.453125 C 27.421875 -10.054688 26.863281 -7.914062 25.75 -6.03125 C 24.632812 -4.144531 23.070312 -2.664062 21.0625 -1.59375 C 19.0625 -0.53125 16.769531 0 14.1875 0 L 4.34375 0 Z M 14.046875 -1.640625 C 16.347656 -1.640625 18.375 -2.09375 20.125 -3 C 21.882812 -3.914062 23.238281 -5.191406 24.1875 -6.828125 C 25.132812 -8.460938 25.609375 -10.335938 25.609375 -12.453125 C 25.609375 -14.554688 25.132812 -16.425781 24.1875 -18.0625 C 23.238281 -19.695312 21.882812 -20.972656 20.125 -21.890625 C 18.375 -22.804688 16.347656 -23.265625 14.046875 -23.265625 L 6.15625 -23.265625 L 6.15625 -1.640625 Z M 14.046875 -1.640625 "/></g></g></g><g fill="#000000" fill-opacity="1"><g transform="translate(72.791193, 194.052952)"><g><path d="M 37.625 -24.890625 L 29.203125 0 L 27.28125 0 L 19.5625 -22.328125 L 11.8125 0 L 9.890625 0 L 1.421875 -24.890625 L 3.34375 -24.890625 L 10.921875 -2.484375 L 18.703125 -24.890625 L 20.453125 -24.890625 L 28.203125 -2.453125 L 35.84375 -24.890625 Z M 37.625 -24.890625 "/></g></g></g><g fill="#000000" fill-opacity="1"><g transform="translate(118.958409, 194.052952)"><g><path d="M 4.34375 -24.890625 L 6.15625 -24.890625 L 6.15625 0 L 4.34375 0 Z M 4.34375 -24.890625 "/></g></g></g><g fill="#000000" fill-opacity="1"><g transform="translate(136.565865, 194.052952)"><g><path d="M 24.609375 -24.890625 L 24.609375 0 L 23.109375 0 L 6.15625 -21.625 L 6.15625 0 L 4.34375 0 L 4.34375 -24.890625 L 5.875 -24.890625 L 22.796875 -3.265625 L 22.796875 -24.890625 Z M 24.609375 -24.890625 "/></g></g></g><g fill="#000000" fill-opacity="1"><g transform="translate(172.632247, 194.052952)"><g/></g></g><g fill="#000000" fill-opacity="1"><g transform="translate(188.888178, 194.052952)"><g><path d="M 14.859375 0.171875 C 12.421875 0.171875 10.222656 -0.367188 8.265625 -1.453125 C 6.304688 -2.546875 4.765625 -4.050781 3.640625 -5.96875 C 2.515625 -7.894531 1.953125 -10.054688 1.953125 -12.453125 C 1.953125 -14.835938 2.515625 -16.988281 3.640625 -18.90625 C 4.765625 -20.832031 6.304688 -22.34375 8.265625 -23.4375 C 10.222656 -24.53125 12.421875 -25.078125 14.859375 -25.078125 C 16.660156 -25.078125 18.320312 -24.785156 19.84375 -24.203125 C 21.363281 -23.617188 22.65625 -22.757812 23.71875 -21.625 L 22.578125 -20.453125 C 20.585938 -22.421875 18.039062 -23.40625 14.9375 -23.40625 C 12.851562 -23.40625 10.957031 -22.929688 9.25 -21.984375 C 7.539062 -21.035156 6.195312 -19.722656 5.21875 -18.046875 C 4.25 -16.378906 3.765625 -14.515625 3.765625 -12.453125 C 3.765625 -10.390625 4.25 -8.519531 5.21875 -6.84375 C 6.195312 -5.175781 7.539062 -3.867188 9.25 -2.921875 C 10.957031 -1.972656 12.851562 -1.5 14.9375 -1.5 C 18.019531 -1.5 20.566406 -2.492188 22.578125 -4.484375 L 23.71875 -3.3125 C 22.65625 -2.164062 21.359375 -1.296875 19.828125 -0.703125 C 18.296875 -0.117188 16.640625 0.171875 14.859375 0.171875 Z M 14.859375 0.171875 "/></g></g></g><g fill="#000000" fill-opacity="1"><g transform="translate(221.469048, 194.052952)"><g><path d="M 24.609375 -24.890625 L 24.609375 0 L 22.796875 0 L 22.796875 -11.84375 L 6.15625 -11.84375 L 6.15625 0 L 4.34375 0 L 4.34375 -24.890625 L 6.15625 -24.890625 L 6.15625 -13.4375 L 22.796875 -13.4375 L 22.796875 -24.890625 Z M 24.609375 -24.890625 "/></g></g></g><g fill="#000000" fill-opacity="1"><g transform="translate(257.535416, 194.052952)"><g><path d="M 4.34375 -24.890625 L 6.15625 -24.890625 L 6.15625 0 L 4.34375 0 Z M 4.34375 -24.890625 "/></g></g></g><g fill="#000000" fill-opacity="1"><g transform="translate(275.142866, 194.052952)"><g><path d="M 22.125 -12.34375 L 23.859375 -12.34375 L 23.859375 -3.015625 C 22.773438 -1.972656 21.453125 -1.179688 19.890625 -0.640625 C 18.335938 -0.0976562 16.695312 0.171875 14.96875 0.171875 C 12.5 0.171875 10.273438 -0.367188 8.296875 -1.453125 C 6.316406 -2.546875 4.765625 -4.050781 3.640625 -5.96875 C 2.515625 -7.894531 1.953125 -10.054688 1.953125 -12.453125 C 1.953125 -14.835938 2.515625 -16.988281 3.640625 -18.90625 C 4.765625 -20.832031 6.316406 -22.34375 8.296875 -23.4375 C 10.273438 -24.53125 12.507812 -25.078125 15 -25.078125 C 16.832031 -25.078125 18.507812 -24.785156 20.03125 -24.203125 C 21.5625 -23.617188 22.875 -22.769531 23.96875 -21.65625 L 22.828125 -20.453125 C 21.785156 -21.492188 20.617188 -22.242188 19.328125 -22.703125 C 18.035156 -23.171875 16.609375 -23.40625 15.046875 -23.40625 C 12.910156 -23.40625 10.984375 -22.929688 9.265625 -21.984375 C 7.546875 -21.035156 6.195312 -19.722656 5.21875 -18.046875 C 4.25 -16.378906 3.765625 -14.515625 3.765625 -12.453125 C 3.765625 -10.410156 4.253906 -8.550781 5.234375 -6.875 C 6.222656 -5.207031 7.570312 -3.894531 9.28125 -2.9375 C 10.988281 -1.976562 12.910156 -1.5 15.046875 -1.5 C 17.890625 -1.5 20.25 -2.253906 22.125 -3.765625 Z M 22.125 -12.34375 "/></g></g></g><g fill="#000000" fill-opacity="1"><g transform="translate(309.751027, 194.052952)"><g><path d="M 24.609375 -24.890625 L 24.609375 0 L 23.109375 0 L 6.15625 -21.625 L 6.15625 0 L 4.34375 0 L 4.34375 -24.890625 L 5.875 -24.890625 L 22.796875 -3.265625 L 22.796875 -24.890625 Z M 24.609375 -24.890625 "/></g></g></g><g fill="#000000" fill-opacity="1"><g transform="translate(345.817395, 194.052952)"><g><path d="M 21.515625 -1.640625 L 21.515625 0 L 4.34375 0 L 4.34375 -24.890625 L 20.984375 -24.890625 L 20.984375 -23.265625 L 6.15625 -23.265625 L 6.15625 -13.4375 L 19.421875 -13.4375 L 19.421875 -11.84375 L 6.15625 -11.84375 L 6.15625 -1.640625 Z M 21.515625 -1.640625 "/></g></g></g><g fill="#000000" fill-opacity="1"><g transform="translate(94.479676, 215.996022)"><g><path d="M 11.1875 -7.40625 L 8.6875 0 L 8.109375 0 L 5.8125 -6.640625 L 3.515625 0 L 2.9375 0 L 0.421875 -7.40625 L 1 -7.40625 L 3.25 -0.734375 L 5.5625 -7.40625 L 6.078125 -7.40625 L 8.390625 -0.734375 L 10.65625 -7.40625 Z M 11.1875 -7.40625 "/></g></g></g><g fill="#000000" fill-opacity="1"><g transform="translate(108.209509, 215.996022)"><g><path d="M 11.1875 -7.40625 L 8.6875 0 L 8.109375 0 L 5.8125 -6.640625 L 3.515625 0 L 2.9375 0 L 0.421875 -7.40625 L 1 -7.40625 L 3.25 -0.734375 L 5.5625 -7.40625 L 6.078125 -7.40625 L 8.390625 -0.734375 L 10.65625 -7.40625 Z M 11.1875 -7.40625 "/></g></g></g><g fill="#000000" fill-opacity="1"><g transform="translate(121.939341, 215.996022)"><g><path d="M 11.1875 -7.40625 L 8.6875 0 L 8.109375 0 L 5.8125 -6.640625 L 3.515625 0 L 2.9375 0 L 0.421875 -7.40625 L 1 -7.40625 L 3.25 -0.734375 L 5.5625 -7.40625 L 6.078125 -7.40625 L 8.390625 -0.734375 L 10.65625 -7.40625 Z M 11.1875 -7.40625 "/></g></g></g><g fill="#000000" fill-opacity="1"><g transform="translate(135.669172, 215.996022)"><g><path d="M 1.0625 0.046875 C 0.9375 0.046875 0.828125 0.00390625 0.734375 -0.078125 C 0.648438 -0.171875 0.609375 -0.28125 0.609375 -0.40625 C 0.609375 -0.539062 0.648438 -0.648438 0.734375 -0.734375 C 0.828125 -0.816406 0.9375 -0.859375 1.0625 -0.859375 C 1.175781 -0.859375 1.273438 -0.816406 1.359375 -0.734375 C 1.453125 -0.648438 1.5 -0.539062 1.5 -0.40625 C 1.5 -0.28125 1.453125 -0.171875 1.359375 -0.078125 C 1.273438 0.00390625 1.175781 0.046875 1.0625 0.046875 Z M 1.0625 0.046875 "/></g></g></g><g fill="#000000" fill-opacity="1"><g transform="translate(139.900244, 215.996022)"><g><path d="M 6.40625 -0.484375 L 6.40625 0 L 1.296875 0 L 1.296875 -7.40625 L 6.234375 -7.40625 L 6.234375 -6.921875 L 1.828125 -6.921875 L 1.828125 -4 L 5.78125 -4 L 5.78125 -3.515625 L 1.828125 -3.515625 L 1.828125 -0.484375 Z M 6.40625 -0.484375 "/></g></g></g><g fill="#000000" fill-opacity="1"><g transform="translate(149.092255, 215.996022)"><g><path d="M 1.296875 -7.40625 L 4.21875 -7.40625 C 4.988281 -7.40625 5.671875 -7.242188 6.265625 -6.921875 C 6.859375 -6.609375 7.320312 -6.171875 7.65625 -5.609375 C 7.988281 -5.046875 8.15625 -4.410156 8.15625 -3.703125 C 8.15625 -2.992188 7.988281 -2.359375 7.65625 -1.796875 C 7.320312 -1.234375 6.859375 -0.789062 6.265625 -0.46875 C 5.671875 -0.15625 4.988281 0 4.21875 0 L 1.296875 0 Z M 4.171875 -0.484375 C 4.859375 -0.484375 5.460938 -0.617188 5.984375 -0.890625 C 6.503906 -1.160156 6.90625 -1.539062 7.1875 -2.03125 C 7.46875 -2.519531 7.609375 -3.078125 7.609375 -3.703125 C 7.609375 -4.328125 7.46875 -4.882812 7.1875 -5.375 C 6.90625 -5.863281 6.503906 -6.242188 5.984375 -6.515625 C 5.460938 -6.785156 4.859375 -6.921875 4.171875 -6.921875 L 1.828125 -6.921875 L 1.828125 -0.484375 Z M 4.171875 -0.484375 "/></g></g></g><g fill="#000000" fill-opacity="1"><g transform="translate(159.944955, 215.996022)"><g><path d="M 11.1875 -7.40625 L 8.6875 0 L 8.109375 0 L 5.8125 -6.640625 L 3.515625 0 L 2.9375 0 L 0.421875 -7.40625 L 1 -7.40625 L 3.25 -0.734375 L 5.5625 -7.40625 L 6.078125 -7.40625 L 8.390625 -0.734375 L 10.65625 -7.40625 Z M 11.1875 -7.40625 "/></g></g></g><g fill="#000000" fill-opacity="1"><g transform="translate(173.674789, 215.996022)"><g><path d="M 1.296875 -7.40625 L 1.828125 -7.40625 L 1.828125 0 L 1.296875 0 Z M 1.296875 -7.40625 "/></g></g></g><g fill="#000000" fill-opacity="1"><g transform="translate(178.910735, 215.996022)"><g><path d="M 7.3125 -7.40625 L 7.3125 0 L 6.875 0 L 1.828125 -6.4375 L 1.828125 0 L 1.296875 0 L 1.296875 -7.40625 L 1.75 -7.40625 L 6.78125 -0.96875 L 6.78125 -7.40625 Z M 7.3125 -7.40625 "/></g></g></g><g fill="#000000" fill-opacity="1"><g transform="translate(189.636506, 215.996022)"><g><path d="M 4.421875 0.046875 C 3.691406 0.046875 3.035156 -0.113281 2.453125 -0.4375 C 1.878906 -0.757812 1.421875 -1.207031 1.078125 -1.78125 C 0.742188 -2.351562 0.578125 -2.992188 0.578125 -3.703125 C 0.578125 -4.410156 0.742188 -5.050781 1.078125 -5.625 C 1.421875 -6.195312 1.878906 -6.644531 2.453125 -6.96875 C 3.035156 -7.289062 3.691406 -7.453125 4.421875 -7.453125 C 4.953125 -7.453125 5.441406 -7.363281 5.890625 -7.1875 C 6.347656 -7.019531 6.738281 -6.769531 7.0625 -6.4375 L 6.71875 -6.078125 C 6.125 -6.660156 5.363281 -6.953125 4.4375 -6.953125 C 3.820312 -6.953125 3.257812 -6.8125 2.75 -6.53125 C 2.238281 -6.25 1.835938 -5.859375 1.546875 -5.359375 C 1.265625 -4.867188 1.125 -4.316406 1.125 -3.703125 C 1.125 -3.085938 1.265625 -2.53125 1.546875 -2.03125 C 1.835938 -1.539062 2.238281 -1.148438 2.75 -0.859375 C 3.257812 -0.578125 3.820312 -0.4375 4.4375 -0.4375 C 5.351562 -0.4375 6.113281 -0.734375 6.71875 -1.328125 L 7.0625 -0.984375 C 6.738281 -0.640625 6.347656 -0.378906 5.890625 -0.203125 C 5.441406 -0.0351562 4.953125 0.046875 4.421875 0.046875 Z M 4.421875 0.046875 "/></g></g></g><g fill="#000000" fill-opacity="1"><g transform="translate(199.325661, 215.996022)"><g><path d="M 7.3125 -7.40625 L 7.3125 0 L 6.78125 0 L 6.78125 -3.515625 L 1.828125 -3.515625 L 1.828125 0 L 1.296875 0 L 1.296875 -7.40625 L 1.828125 -7.40625 L 1.828125 -4 L 6.78125 -4 L 6.78125 -7.40625 Z M 7.3125 -7.40625 "/></g></g></g><g fill="#000000" fill-opacity="1"><g transform="translate(210.051432, 215.996022)"><g><path d="M 1.296875 -7.40625 L 1.828125 -7.40625 L 1.828125 0 L 1.296875 0 Z M 1.296875 -7.40625 "/></g></g></g><g fill="#000000" fill-opacity="1"><g transform="translate(215.287372, 215.996022)"><g><path d="M 6.578125 -3.671875 L 7.09375 -3.671875 L 7.09375 -0.90625 C 6.769531 -0.59375 6.375 -0.351562 5.90625 -0.1875 C 5.445312 -0.03125 4.960938 0.046875 4.453125 0.046875 C 3.722656 0.046875 3.0625 -0.113281 2.46875 -0.4375 C 1.882812 -0.757812 1.421875 -1.207031 1.078125 -1.78125 C 0.742188 -2.351562 0.578125 -2.992188 0.578125 -3.703125 C 0.578125 -4.410156 0.742188 -5.050781 1.078125 -5.625 C 1.421875 -6.195312 1.882812 -6.644531 2.46875 -6.96875 C 3.0625 -7.289062 3.726562 -7.453125 4.46875 -7.453125 C 5.007812 -7.453125 5.503906 -7.363281 5.953125 -7.1875 C 6.410156 -7.019531 6.800781 -6.769531 7.125 -6.4375 L 6.796875 -6.078125 C 6.484375 -6.390625 6.132812 -6.613281 5.75 -6.75 C 5.363281 -6.882812 4.9375 -6.953125 4.46875 -6.953125 C 3.832031 -6.953125 3.257812 -6.8125 2.75 -6.53125 C 2.238281 -6.25 1.835938 -5.859375 1.546875 -5.359375 C 1.265625 -4.867188 1.125 -4.316406 1.125 -3.703125 C 1.125 -3.097656 1.269531 -2.546875 1.5625 -2.046875 C 1.851562 -1.546875 2.25 -1.148438 2.75 -0.859375 C 3.257812 -0.578125 3.832031 -0.4375 4.46875 -0.4375 C 5.320312 -0.4375 6.023438 -0.664062 6.578125 -1.125 Z M 6.578125 -3.671875 "/></g></g></g><g fill="#000000" fill-opacity="1"><g transform="translate(225.57945, 215.996022)"><g><path d="M 7.3125 -7.40625 L 7.3125 0 L 6.875 0 L 1.828125 -6.4375 L 1.828125 0 L 1.296875 0 L 1.296875 -7.40625 L 1.75 -7.40625 L 6.78125 -0.96875 L 6.78125 -7.40625 Z M 7.3125 -7.40625 "/></g></g></g><g fill="#000000" fill-opacity="1"><g transform="translate(236.305214, 215.996022)"><g><path d="M 6.40625 -0.484375 L 6.40625 0 L 1.296875 0 L 1.296875 -7.40625 L 6.234375 -7.40625 L 6.234375 -6.921875 L 1.828125 -6.921875 L 1.828125 -4 L 5.78125 -4 L 5.78125 -3.515625 L 1.828125 -3.515625 L 1.828125 -0.484375 Z M 6.40625 -0.484375 "/></g></g></g><g fill="#000000" fill-opacity="1"><g transform="translate(245.497218, 215.996022)"><g><path d="M 1.0625 0.046875 C 0.9375 0.046875 0.828125 0.00390625 0.734375 -0.078125 C 0.648438 -0.171875 0.609375 -0.28125 0.609375 -0.40625 C 0.609375 -0.539062 0.648438 -0.648438 0.734375 -0.734375 C 0.828125 -0.816406 0.9375 -0.859375 1.0625 -0.859375 C 1.175781 -0.859375 1.273438 -0.816406 1.359375 -0.734375 C 1.453125 -0.648438 1.5 -0.539062 1.5 -0.40625 C 1.5 -0.28125 1.453125 -0.171875 1.359375 -0.078125 C 1.273438 0.00390625 1.175781 0.046875 1.0625 0.046875 Z M 1.0625 0.046875 "/></g></g></g><g fill="#000000" fill-opacity="1"><g transform="translate(249.728284, 215.996022)"><g><path d="M 4.421875 0.046875 C 3.691406 0.046875 3.035156 -0.113281 2.453125 -0.4375 C 1.878906 -0.757812 1.421875 -1.207031 1.078125 -1.78125 C 0.742188 -2.351562 0.578125 -2.992188 0.578125 -3.703125 C 0.578125 -4.410156 0.742188 -5.050781 1.078125 -5.625 C 1.421875 -6.195312 1.878906 -6.644531 2.453125 -6.96875 C 3.035156 -7.289062 3.691406 -7.453125 4.421875 -7.453125 C 4.953125 -7.453125 5.441406 -7.363281 5.890625 -7.1875 C 6.347656 -7.019531 6.738281 -6.769531 7.0625 -6.4375 L 6.71875 -6.078125 C 6.125 -6.660156 5.363281 -6.953125 4.4375 -6.953125 C 3.820312 -6.953125 3.257812 -6.8125 2.75 -6.53125 C 2.238281 -6.25 1.835938 -5.859375 1.546875 -5.359375 C 1.265625 -4.867188 1.125 -4.316406 1.125 -3.703125 C 1.125 -3.085938 1.265625 -2.53125 1.546875 -2.03125 C 1.835938 -1.539062 2.238281 -1.148438 2.75 -0.859375 C 3.257812 -0.578125 3.820312 -0.4375 4.4375 -0.4375 C 5.351562 -0.4375 6.113281 -0.734375 6.71875 -1.328125 L 7.0625 -0.984375 C 6.738281 -0.640625 6.347656 -0.378906 5.890625 -0.203125 C 5.441406 -0.0351562 4.953125 0.046875 4.421875 0.046875 Z M 4.421875 0.046875 "/></g></g></g><g fill="#000000" fill-opacity="1"><g transform="translate(259.417432, 215.996022)"><g><path d="M 4.4375 0.046875 C 3.707031 0.046875 3.050781 -0.113281 2.46875 -0.4375 C 1.882812 -0.769531 1.421875 -1.21875 1.078125 -1.78125 C 0.742188 -2.351562 0.578125 -2.992188 0.578125 -3.703125 C 0.578125 -4.410156 0.742188 -5.046875 1.078125 -5.609375 C 1.421875 -6.179688 1.882812 -6.628906 2.46875 -6.953125 C 3.050781 -7.285156 3.707031 -7.453125 4.4375 -7.453125 C 5.15625 -7.453125 5.804688 -7.289062 6.390625 -6.96875 C 6.984375 -6.644531 7.445312 -6.195312 7.78125 -5.625 C 8.113281 -5.050781 8.28125 -4.410156 8.28125 -3.703125 C 8.28125 -2.992188 8.113281 -2.351562 7.78125 -1.78125 C 7.445312 -1.207031 6.984375 -0.757812 6.390625 -0.4375 C 5.804688 -0.113281 5.15625 0.046875 4.4375 0.046875 Z M 4.4375 -0.4375 C 5.050781 -0.4375 5.609375 -0.578125 6.109375 -0.859375 C 6.609375 -1.148438 7.003906 -1.539062 7.296875 -2.03125 C 7.585938 -2.53125 7.734375 -3.085938 7.734375 -3.703125 C 7.734375 -4.316406 7.585938 -4.867188 7.296875 -5.359375 C 7.003906 -5.859375 6.609375 -6.25 6.109375 -6.53125 C 5.609375 -6.8125 5.050781 -6.953125 4.4375 -6.953125 C 3.8125 -6.953125 3.242188 -6.8125 2.734375 -6.53125 C 2.234375 -6.25 1.835938 -5.859375 1.546875 -5.359375 C 1.265625 -4.867188 1.125 -4.316406 1.125 -3.703125 C 1.125 -3.085938 1.265625 -2.53125 1.546875 -2.03125 C 1.835938 -1.539062 2.234375 -1.148438 2.734375 -0.859375 C 3.242188 -0.578125 3.8125 -0.4375 4.4375 -0.4375 Z M 4.4375 -0.4375 "/></g></g></g><g fill="#000000" fill-opacity="1"><g transform="translate(270.397068, 215.996022)"><g><path d="M 8.296875 0 L 8.28125 -6.34375 L 5.1875 -0.984375 L 4.921875 -0.984375 L 1.8125 -6.3125 L 1.8125 0 L 1.296875 0 L 1.296875 -7.40625 L 1.75 -7.40625 L 5.0625 -1.6875 L 8.375 -7.40625 L 8.8125 -7.40625 L 8.828125 0 Z M 8.296875 0 "/></g></g></g></svg>