<svg xmlns="http://www.w3.org/2000/svg" xmlns:xlink="http://www.w3.org/1999/xlink" width="500" zoomAndPan="magnify" viewBox="0 0 375 172.499995" height="230" preserveAspectRatio="xMidYMid meet" version="1.0"><defs><g/><clipPath id="7fd67b5ddb"><path d="M 113.335938 14.667969 L 255.1875 14.667969 L 255.1875 157.503906 L 113.335938 157.503906 Z M 113.335938 14.667969 " clip-rule="nonzero"/></clipPath><clipPath id="2e36e7f512"><path d="M 113.378906 82.414062 C 113.652344 79.988281 113.488281 77.527344 113.722656 75.085938 C 113.808594 74.121094 113.976562 73.167969 114.21875 72.230469 C 114.90625 69.644531 116.265625 67.460938 118.214844 65.628906 C 118.535156 65.328125 118.921875 65.105469 119.34375 64.984375 C 119.742188 64.867188 120.15625 64.703125 120.476562 64.449219 C 120.953125 64.070312 121.414062 63.640625 121.164062 62.886719 C 121.113281 62.730469 121.246094 62.445312 121.382812 62.308594 C 121.636719 62.050781 121.925781 61.835938 122.242188 61.664062 C 123.773438 60.871094 125.308594 60.085938 126.855469 59.332031 C 127.15625 59.1875 127.488281 59.125 127.816406 59.148438 C 128.382812 59.207031 128.925781 59.402344 129.488281 59.480469 C 129.886719 59.539062 130.289062 59.539062 130.6875 59.484375 C 131.207031 59.410156 131.71875 59.140625 132.230469 59.160156 C 132.90625 59.191406 133.574219 59.324219 134.210938 59.550781 C 136.0625 60.191406 137.695312 61.347656 138.914062 62.878906 C 139.035156 63.046875 139.085938 63.257812 139.054688 63.464844 C 138.964844 63.890625 138.984375 64.277344 139.183594 64.664062 C 139.367188 65.019531 139.519531 65.394531 139.730469 65.734375 C 140.746094 67.382812 141.269531 69.167969 141.367188 71.109375 C 141.453125 72.832031 141.507812 74.546875 141.007812 76.222656 C 140.777344 76.992188 140.5625 77.78125 139.800781 78.265625 C 139.640625 78.367188 139.53125 78.632812 139.5 78.839844 C 139.433594 79.257812 139.445312 79.691406 139.414062 80.117188 C 139.402344 80.464844 139.367188 80.808594 139.308594 81.148438 C 139.28125 81.296875 139.132812 81.425781 139.035156 81.5625 C 138.917969 81.472656 138.78125 81.402344 138.6875 81.292969 C 138.433594 80.996094 138.164062 81.007812 138.007812 81.363281 C 137.914062 81.597656 137.84375 81.839844 137.800781 82.089844 C 137.664062 82.773438 137.507812 83.472656 137.003906 83.96875 C 136.359375 84.605469 136.214844 85.355469 136.277344 86.199219 C 136.359375 87.296875 136.035156 88.332031 135.738281 89.367188 C 135.695312 89.523438 135.570312 89.660156 135.4375 89.875 C 135.359375 89.707031 135.3125 89.652344 135.3125 89.59375 C 135.304688 89.058594 135.3125 88.523438 135.300781 87.988281 C 135.300781 87.832031 135.292969 87.644531 135.210938 87.53125 C 135.164062 87.464844 135.105469 87.410156 135.035156 87.371094 C 134.96875 87.332031 134.890625 87.308594 134.808594 87.300781 C 134.707031 87.300781 134.558594 87.472656 134.511719 87.597656 C 134.441406 87.785156 134.417969 87.984375 134.4375 88.1875 C 134.523438 88.789062 134.449219 89.363281 134.359375 89.964844 C 134.226562 90.871094 134.21875 91.800781 134.179688 92.71875 C 134.132812 93.941406 133.722656 95.019531 132.996094 95.996094 C 132.867188 96.167969 132.742188 96.453125 132.796875 96.636719 C 132.929688 97.082031 133.121094 97.507812 133.359375 97.90625 C 133.605469 98.316406 133.625 98.410156 133.230469 98.683594 C 132.886719 98.925781 132.730469 99.210938 132.867188 99.636719 C 133.070312 100.28125 133.203125 100.949219 133.445312 101.574219 C 134.214844 103.535156 135.019531 105.480469 135.8125 107.433594 C 135.90625 107.664062 136.035156 107.882812 136.105469 108.117188 C 136.117188 108.175781 136.113281 108.234375 136.09375 108.289062 C 136.074219 108.34375 136.042969 108.390625 136 108.429688 C 135.597656 108.671875 135.535156 108.796875 135.699219 109.238281 C 135.832031 109.601562 135.964844 109.964844 136.128906 110.308594 C 136.328125 110.738281 136.589844 111.121094 137.070312 111.289062 C 137.355469 111.390625 137.449219 111.59375 137.402344 111.886719 C 137.355469 112.199219 137.484375 112.4375 137.746094 112.601562 C 138.0625 112.800781 138.371094 113.007812 138.699219 113.183594 C 138.835938 113.253906 139.113281 113.320312 139.15625 113.261719 C 139.257812 113.121094 139.339844 112.882812 139.292969 112.730469 C 139 111.777344 138.761719 110.792969 138.328125 109.902344 C 137.789062 108.761719 137.359375 107.574219 137.046875 106.351562 C 136.964844 106.050781 137.035156 105.710938 137.035156 105.386719 L 137.1875 105.367188 C 137.269531 105.523438 137.339844 105.6875 137.394531 105.855469 C 137.71875 107.0625 138.011719 108.269531 138.351562 109.46875 C 138.464844 109.867188 138.675781 110.25 138.878906 110.617188 C 139.023438 110.871094 139.28125 110.9375 139.53125 110.746094 C 139.800781 110.539062 139.949219 110.660156 140.039062 110.914062 C 140.097656 111.074219 140.097656 111.25 140.132812 111.417969 C 140.195312 111.714844 140.214844 112.039062 140.347656 112.296875 C 140.417969 112.4375 140.695312 112.535156 140.875 112.527344 C 140.984375 112.519531 141.152344 112.285156 141.167969 112.144531 C 141.203125 111.875 141.207031 111.570312 141.117188 111.320312 C 140.667969 110.0625 140.246094 108.789062 139.695312 107.574219 C 138.671875 105.320312 138.421875 102.996094 138.867188 100.597656 C 139.089844 99.40625 139.480469 98.246094 139.800781 97.070312 C 139.871094 96.804688 139.960938 96.539062 140.046875 96.273438 L 140.15625 96.28125 C 140.199219 96.386719 140.273438 96.488281 140.285156 96.597656 C 140.351562 97.390625 140.410156 98.183594 140.460938 98.980469 C 140.570312 100.726562 140.597656 102.480469 140.804688 104.210938 C 140.925781 105.222656 141.3125 106.203125 141.617188 107.1875 C 141.664062 107.34375 141.914062 107.433594 142.070312 107.554688 C 142.175781 107.398438 142.355469 107.25 142.367188 107.085938 C 142.394531 106.652344 142.613281 106.332031 142.890625 106.042969 C 143.210938 105.699219 143.289062 105.339844 143.085938 104.90625 C 142.980469 104.644531 142.886719 104.378906 142.808594 104.109375 L 142.910156 104.066406 C 142.949219 104.117188 143.003906 104.160156 143.019531 104.21875 C 143.214844 104.949219 143.445312 105.675781 143.578125 106.421875 C 143.679688 107.007812 143.75 107.144531 144.347656 107.226562 C 144.414062 107.242188 144.472656 107.261719 144.53125 107.285156 C 144.53125 107.566406 144.472656 107.84375 144.542969 108.085938 C 144.898438 109.359375 145.246094 110.632812 145.671875 111.882812 C 146.441406 114.125 147.621094 116.15625 149.019531 118.058594 C 149.53125 118.75 150.164062 119.351562 150.757812 119.976562 C 151.664062 120.925781 152.558594 121.882812 153.507812 122.785156 C 154.078125 123.328125 154.730469 123.777344 155.359375 124.25 C 155.507812 124.363281 155.71875 124.398438 155.898438 124.46875 C 155.921875 124.429688 155.949219 124.394531 155.972656 124.355469 C 155.878906 124.1875 155.8125 123.984375 155.679688 123.851562 C 155 123.191406 154.308594 122.542969 153.609375 121.902344 C 152.882812 121.25 152.144531 120.617188 151.414062 119.972656 C 151.214844 119.800781 151.164062 119.617188 151.371094 119.386719 C 151.453125 119.300781 151.445312 119.117188 151.433594 118.984375 C 151.410156 118.8125 151.371094 118.640625 151.320312 118.472656 L 151.425781 118.398438 C 151.570312 118.519531 151.734375 118.621094 151.855469 118.765625 C 152.570312 119.609375 153.296875 120.445312 153.980469 121.320312 C 154.933594 122.542969 156.066406 123.589844 157.277344 124.53125 C 158.835938 125.738281 160.484375 126.824219 162.074219 127.980469 C 162.824219 128.527344 163.632812 129.042969 163.828125 130.058594 C 163.847656 130.195312 163.851562 130.332031 163.847656 130.46875 C 163.722656 130.46875 163.59375 130.457031 163.472656 130.433594 C 163.210938 130.363281 162.941406 130.316406 162.828125 130.628906 C 162.550781 131.410156 163.183594 132.101562 164.035156 131.925781 C 163.976562 131.855469 163.925781 131.777344 163.886719 131.695312 C 163.835938 131.546875 163.804688 131.394531 163.769531 131.242188 C 163.898438 131.277344 164.039062 131.285156 164.152344 131.347656 C 165.570312 132.109375 166.96875 132.914062 168.410156 133.632812 C 169.292969 134.078125 170.238281 134.402344 171.164062 134.765625 C 171.375 134.851562 171.554688 134.835938 171.566406 134.519531 C 171.578125 134.140625 171.671875 134.097656 172.003906 134.269531 C 172.140625 134.328125 172.261719 134.410156 172.367188 134.511719 C 172.660156 134.839844 172.933594 135.179688 173.207031 135.519531 C 173.5 135.890625 173.683594 135.914062 174 135.570312 C 174.164062 135.390625 174.320312 135.328125 174.5625 135.441406 C 174.84375 135.589844 175.140625 135.707031 175.449219 135.789062 C 175.632812 135.832031 175.949219 135.839844 176.03125 135.730469 C 176.386719 135.265625 176.738281 135.4375 177.117188 135.648438 C 177.3125 135.757812 177.511719 135.871094 177.71875 135.960938 C 178.566406 136.332031 179.429688 136.644531 180.378906 136.425781 C 180.765625 136.335938 180.832031 136.175781 180.671875 135.820312 C 180.589844 135.644531 180.535156 135.453125 180.429688 135.171875 C 180.695312 135.226562 180.835938 135.246094 180.972656 135.285156 C 182.136719 135.621094 183.324219 135.546875 184.511719 135.488281 C 185.847656 135.417969 187.167969 135.386719 188.433594 135.976562 C 188.941406 136.210938 189.511719 136.332031 190.0625 136.457031 C 190.464844 136.554688 190.746094 136.378906 190.8125 136.0625 C 190.902344 135.648438 191.007812 135.605469 191.386719 135.820312 C 191.492188 135.878906 191.589844 135.945312 191.695312 136.003906 C 192.183594 136.269531 192.316406 136.257812 192.703125 135.855469 C 192.878906 135.675781 193.046875 135.664062 193.273438 135.765625 C 194.351562 136.257812 195.339844 136.082031 196.230469 135.3125 C 196.453125 135.121094 196.695312 135 196.992188 135.164062 C 197.886719 135.660156 198.792969 135.394531 199.703125 135.210938 C 200.15625 135.117188 200.613281 135.074219 201.074219 135.074219 C 201.21875 135.074219 201.476562 135.28125 201.484375 135.410156 C 201.5 135.574219 201.351562 135.863281 201.214844 135.910156 C 200.589844 136.113281 199.945312 136.25 199.308594 136.414062 C 199.179688 136.449219 199.054688 136.503906 198.929688 136.550781 C 198.9375 136.597656 198.949219 136.644531 198.957031 136.6875 C 199.078125 136.710938 199.203125 136.726562 199.328125 136.738281 C 199.722656 136.753906 200.117188 136.761719 200.511719 136.773438 C 200.6875 136.78125 200.859375 136.796875 201.03125 136.800781 C 201.59375 136.8125 202.15625 136.785156 202.707031 136.839844 C 202.957031 136.863281 203.191406 137.042969 203.425781 137.148438 C 203.410156 137.199219 203.394531 137.25 203.378906 137.300781 C 203.097656 137.273438 202.808594 137.210938 202.53125 137.238281 C 202.316406 137.261719 202.121094 137.355469 201.96875 137.503906 C 201.914062 137.5625 202.089844 137.824219 202.164062 138 C 202.210938 138.117188 202.320312 138.253906 202.289062 138.339844 C 202.257812 138.429688 202.089844 138.492188 201.972656 138.507812 C 201.128906 138.617188 200.28125 138.691406 199.4375 138.8125 C 198.402344 138.964844 197.371094 139.136719 196.34375 139.332031 C 195.972656 139.402344 195.550781 139.4375 195.320312 139.894531 C 195.890625 140.089844 196.4375 140.117188 197.003906 140.09375 C 197.769531 140.0625 198.496094 139.8125 199.285156 139.816406 C 200.433594 139.828125 201.59375 139.640625 202.734375 139.449219 C 203.945312 139.242188 205.136719 138.917969 206.339844 138.679688 C 207.492188 138.460938 208.585938 138.015625 209.566406 137.375 C 211.300781 136.222656 213.207031 135.417969 215.105469 134.601562 C 216.972656 133.796875 218.878906 133.085938 220.558594 131.914062 C 221.191406 131.476562 221.78125 130.976562 222.371094 130.476562 C 222.496094 130.375 222.597656 130.242188 222.660156 130.09375 C 222.722656 129.945312 222.75 129.78125 222.738281 129.617188 C 222.652344 129.621094 222.566406 129.632812 222.480469 129.652344 C 222.027344 129.792969 221.578125 129.949219 221.121094 130.082031 C 221.023438 130.109375 220.90625 130.0625 220.796875 130.050781 C 220.8125 129.941406 220.84375 129.835938 220.886719 129.734375 C 220.996094 129.574219 221.113281 129.417969 221.238281 129.269531 C 221.066406 129.230469 220.996094 129.21875 220.917969 129.191406 C 220.800781 129.152344 220.683594 129.109375 220.566406 129.066406 C 220.625 128.929688 220.648438 128.746094 220.75 128.664062 C 220.945312 128.503906 221.195312 128.425781 221.402344 128.285156 C 221.820312 128 222.25 127.730469 222.617188 127.390625 C 222.753906 127.269531 222.730469 126.96875 222.777344 126.75 C 222.5625 126.785156 222.300781 126.761719 222.136719 126.878906 C 221.652344 127.210938 221.21875 127.613281 220.753906 127.96875 C 219.917969 128.601562 219.09375 129.265625 218.214844 129.835938 C 217.664062 130.199219 217.054688 130.464844 216.414062 130.617188 C 215.902344 130.726562 215.453125 130.808594 215.058594 131.1875 C 214.296875 131.914062 213.292969 132.085938 212.304688 132.296875 C 212.382812 132.179688 212.488281 132.082031 212.613281 132.015625 C 213.820312 131.339844 215.027344 130.675781 216.230469 129.984375 C 217.15625 129.457031 217.914062 128.722656 218.628906 127.941406 C 218.722656 127.832031 218.792969 127.597656 218.738281 127.488281 C 218.6875 127.378906 218.4375 127.257812 218.316406 127.292969 C 217.828125 127.441406 217.460938 127.160156 217.074219 126.980469 C 216.742188 126.816406 216.730469 126.597656 216.984375 126.300781 C 217.242188 126.007812 217.53125 125.710938 217.789062 125.410156 C 218.292969 124.832031 218.8125 124.300781 219.605469 124.113281 C 219.863281 124.050781 220.085938 123.828125 220.296875 123.648438 C 220.417969 123.550781 220.484375 123.390625 220.582031 123.265625 C 221.183594 122.503906 222.046875 122.078125 222.800781 121.515625 C 223.238281 121.183594 223.601562 120.75 223.96875 120.335938 C 224.058594 120.230469 224.035156 120.027344 224.0625 119.867188 C 223.898438 119.898438 223.699219 119.886719 223.566406 119.972656 C 222.945312 120.386719 222.367188 120.859375 221.734375 121.246094 C 220.527344 121.996094 219.316406 122.746094 218.0625 123.417969 C 216.566406 124.222656 215.03125 124.945312 213.503906 125.695312 C 211.441406 126.703125 209.371094 127.695312 207.316406 128.714844 C 207.101562 128.824219 206.957031 129.074219 206.785156 129.261719 L 207.292969 129.703125 C 206.824219 129.859375 206.363281 130.003906 205.90625 130.167969 C 203.339844 131.085938 200.78125 132.027344 198.207031 132.921875 C 196.691406 133.441406 195.121094 133.785156 193.527344 133.957031 C 192.816406 134.035156 192.105469 134.15625 191.394531 134.242188 C 191.027344 134.289062 190.65625 134.3125 190.285156 134.3125 C 188.933594 134.304688 187.578125 134.257812 186.226562 134.285156 C 185.640625 134.292969 185.070312 134.375 184.488281 134.191406 C 184.101562 134.074219 183.675781 134.0625 183.269531 134.007812 C 182.332031 133.890625 181.382812 133.832031 180.460938 133.644531 C 179.246094 133.398438 178.046875 133.074219 176.851562 132.742188 C 175.222656 132.296875 173.742188 131.523438 172.355469 130.570312 C 172.261719 130.496094 172.171875 130.410156 172.085938 130.324219 C 172.183594 130.3125 172.28125 130.3125 172.378906 130.324219 C 173.0625 130.484375 173.738281 130.660156 174.425781 130.804688 C 175.058594 130.941406 175.707031 131.023438 176.339844 131.160156 C 177.035156 131.3125 177.71875 131.5625 178.421875 131.65625 C 179.804688 131.84375 181.070312 132.371094 182.347656 132.875 C 182.707031 133.015625 183.003906 133.09375 183.328125 132.785156 C 183.582031 132.546875 183.867188 132.527344 184.101562 132.882812 C 184.179688 133 184.355469 133.082031 184.503906 133.109375 C 184.769531 133.15625 185.035156 133.183594 185.300781 133.191406 C 186.257812 133.25 187.214844 133.300781 188.171875 133.363281 C 188.484375 133.382812 188.664062 133.296875 188.65625 132.949219 C 188.644531 132.648438 188.785156 132.523438 189.101562 132.546875 C 189.421875 132.574219 189.746094 132.574219 190.066406 132.546875 C 191.28125 132.453125 192.5 132.738281 193.71875 132.332031 C 194.832031 131.964844 196 131.765625 197.144531 131.492188 C 197.683594 131.363281 198.21875 131.179688 198.761719 131.117188 C 199.648438 131.015625 200.546875 130.996094 201.4375 130.945312 C 201.710938 130.929688 201.910156 130.824219 201.917969 130.523438 C 201.921875 130.191406 202.070312 130.183594 202.332031 130.289062 C 202.601562 130.394531 202.878906 130.472656 203.164062 130.53125 C 203.210938 130.539062 203.363281 130.339844 203.347656 130.324219 C 202.992188 129.863281 203.398438 129.738281 203.683594 129.597656 C 205.980469 128.433594 208.308594 127.332031 210.574219 126.109375 C 212.339844 125.15625 214.035156 124.070312 215.738281 123.007812 C 216.726562 122.40625 217.679688 121.75 218.597656 121.042969 C 219.917969 120.003906 221.234375 118.945312 222.445312 117.78125 C 223.796875 116.484375 225.074219 115.113281 226.265625 113.675781 C 227.992188 111.574219 229.355469 109.222656 230.601562 106.804688 C 231.898438 104.296875 232.925781 101.65625 233.660156 98.929688 C 233.964844 97.796875 234.078125 96.609375 234.355469 95.46875 C 234.585938 94.5 234.664062 93.5 234.589844 92.503906 C 234.585938 92.425781 234.621094 92.347656 234.625 92.269531 C 234.652344 91.6875 234.6875 91.105469 234.691406 90.527344 C 234.695312 89.691406 234.613281 88.855469 234.691406 88.03125 C 234.730469 87.59375 234.832031 87.1875 234.632812 86.769531 C 234.523438 86.539062 234.609375 86.375 234.816406 86.230469 C 234.949219 86.140625 235.117188 85.992188 235.125 85.859375 C 235.160156 85.414062 235.148438 84.964844 235.082031 84.523438 C 234.871094 83.351562 234.4375 82.21875 234.644531 80.984375 C 234.679688 80.691406 234.617188 80.394531 234.472656 80.140625 C 233.6875 78.777344 233.507812 77.242188 233.136719 75.757812 C 232.785156 74.355469 232.3125 73.011719 231.230469 71.964844 C 230.988281 71.734375 230.796875 71.457031 230.664062 71.152344 C 229.386719 68.050781 227.625 65.226562 225.726562 62.476562 C 224.253906 60.339844 222.65625 58.300781 220.828125 56.460938 C 219.421875 55.046875 217.894531 53.761719 216.457031 52.378906 C 214.941406 50.925781 213.28125 49.652344 211.589844 48.421875 C 210.675781 47.757812 209.722656 47.148438 208.59375 46.886719 C 208.296875 46.816406 208.089844 46.871094 207.960938 47.140625 C 207.835938 47.410156 207.640625 47.398438 207.433594 47.296875 C 207.03125 47.089844 206.632812 46.875 206.25 46.640625 C 206.09375 46.542969 205.980469 46.371094 205.777344 46.164062 C 206.28125 46.308594 206.667969 46.453125 207.066406 46.507812 C 207.230469 46.53125 207.425781 46.363281 207.609375 46.285156 C 207.496094 46.105469 207.429688 45.847656 207.269531 45.761719 C 206.203125 45.199219 205.132812 44.644531 204.039062 44.136719 C 200.441406 42.460938 196.738281 41.085938 192.84375 40.265625 C 192.027344 40.09375 191.21875 39.886719 190.398438 39.757812 C 189.402344 39.605469 188.386719 39.578125 187.402344 39.398438 C 186.160156 39.15625 184.894531 39.054688 183.628906 39.09375 C 182.308594 39.140625 180.976562 39.003906 179.65625 39.054688 C 178.222656 39.109375 176.796875 39.273438 175.367188 39.414062 C 174.601562 39.492188 173.839844 39.59375 173.082031 39.726562 C 172.15625 39.886719 171.238281 40.085938 170.316406 40.28125 C 169.828125 40.382812 169.339844 40.507812 168.855469 40.636719 C 168.589844 40.707031 168.507812 40.871094 168.59375 41.15625 C 168.664062 41.398438 168.648438 41.667969 168.683594 42.023438 C 168.828125 42.03125 169.0625 42.105469 169.25 42.039062 C 169.652344 41.90625 170.042969 41.734375 170.410156 41.523438 C 171.121094 41.113281 171.386719 41.070312 172.265625 41.390625 C 171.953125 41.527344 171.695312 41.667969 171.421875 41.757812 C 170.878906 41.925781 170.320312 42.046875 169.78125 42.226562 C 168.632812 42.617188 167.46875 42.523438 166.296875 42.398438 C 166.230469 42.390625 166.128906 42.324219 166.121094 42.277344 C 166.117188 42.234375 166.121094 42.1875 166.136719 42.148438 C 166.152344 42.105469 166.175781 42.070312 166.207031 42.039062 C 166.300781 41.972656 166.429688 41.964844 166.539062 41.917969 C 166.902344 41.769531 167.257812 41.609375 167.511719 41.167969 C 166.675781 41.304688 165.910156 41.394531 165.164062 41.5625 C 164.507812 41.722656 163.859375 41.921875 163.222656 42.160156 C 163.011719 42.234375 162.707031 42.382812 162.660156 42.554688 C 162.433594 43.414062 161.753906 43.597656 161.035156 43.859375 C 159.777344 44.316406 158.558594 44.882812 157.320312 45.402344 C 156.78125 45.628906 156.246094 45.863281 155.699219 46.074219 C 155.589844 46.117188 155.40625 46.128906 155.324219 46.066406 C 155.03125 45.832031 155.140625 45.273438 155.488281 45.09375 C 155.863281 44.902344 156.222656 44.675781 156.609375 44.5 C 157.414062 44.128906 158.226562 43.785156 159.039062 43.429688 C 159.328125 43.304688 159.523438 43.382812 159.644531 43.683594 C 159.761719 43.96875 160.011719 44.046875 160.273438 43.941406 C 160.695312 43.777344 161.105469 43.578125 161.496094 43.34375 C 161.65625 43.246094 161.851562 42.964844 161.816406 42.820312 C 161.71875 42.429688 161.898438 42.316406 162.207031 42.234375 C 162.667969 42.109375 163.132812 41.992188 163.589844 41.839844 C 163.859375 41.75 164.011719 41.527344 163.929688 41.238281 C 163.839844 40.929688 163.554688 41.007812 163.355469 41.066406 C 162.019531 41.4375 160.660156 41.746094 159.367188 42.230469 C 156.3125 43.375 153.292969 44.605469 150.257812 45.796875 C 150.101562 45.859375 149.9375 45.90625 149.78125 45.957031 C 149.765625 45.925781 149.75 45.894531 149.734375 45.859375 C 149.839844 45.761719 149.953125 45.675781 150.078125 45.605469 C 150.390625 45.457031 150.730469 45.363281 151.027344 45.195312 C 151.363281 45.015625 151.675781 44.792969 151.957031 44.539062 C 152.148438 44.351562 152.070312 44.167969 151.761719 44.167969 C 151.535156 44.167969 151.304688 44.167969 151.074219 44.167969 L 151.054688 44.023438 C 151.320312 43.910156 151.574219 43.769531 151.851562 43.691406 C 152.828125 43.40625 153.8125 43.152344 154.792969 42.878906 C 156.457031 42.40625 157.835938 41.484375 158.957031 40.179688 C 159.125 39.984375 159.242188 39.75 159.4375 39.453125 C 159.085938 39.453125 158.820312 39.394531 158.59375 39.460938 C 158.039062 39.636719 157.496094 39.851562 156.960938 40.078125 C 154.8125 40.984375 152.695312 41.960938 150.433594 42.578125 C 150.03125 42.6875 149.601562 42.699219 149.183594 42.757812 C 149.171875 42.707031 149.15625 42.660156 149.144531 42.609375 C 149.34375 42.488281 149.535156 42.351562 149.746094 42.246094 C 150.96875 41.632812 152.183594 41.003906 153.421875 40.425781 C 155.417969 39.496094 157.4375 38.613281 159.4375 37.691406 C 160.632812 37.144531 161.8125 36.566406 162.996094 35.992188 C 163.078125 35.953125 163.140625 35.863281 163.28125 35.734375 C 163.160156 35.726562 163.039062 35.726562 162.917969 35.734375 C 162.316406 35.851562 161.703125 35.933594 161.117188 36.101562 C 159.695312 36.503906 158.285156 36.957031 156.867188 37.382812 C 155.375 37.835938 153.945312 38.402344 152.621094 39.253906 C 151.640625 39.882812 150.585938 40.402344 149.40625 40.585938 C 149.257812 40.609375 149.09375 40.554688 148.9375 40.535156 C 148.9375 40.492188 148.9375 40.449219 148.9375 40.40625 C 149.210938 40.226562 149.519531 40.082031 149.753906 39.859375 C 149.914062 39.699219 150.097656 39.417969 150.0625 39.230469 C 150 38.902344 150.132812 38.746094 150.359375 38.613281 C 150.96875 38.257812 151.609375 37.957031 152.1875 37.566406 C 152.785156 37.175781 153.34375 36.726562 153.855469 36.230469 C 154.09375 35.984375 154.390625 35.808594 154.71875 35.722656 C 155.089844 35.625 155.488281 35.558594 155.796875 35.359375 C 156.492188 34.917969 157.140625 34.40625 157.800781 33.910156 C 157.921875 33.820312 157.992188 33.667969 158.089844 33.542969 L 158.046875 33.402344 C 157.773438 33.433594 157.484375 33.40625 157.230469 33.5 C 156.203125 33.894531 155.1875 34.308594 154.175781 34.742188 C 152.042969 35.65625 149.929688 36.609375 147.792969 37.511719 C 146.796875 37.933594 145.769531 38.292969 144.746094 38.65625 C 144.648438 38.6875 144.550781 38.699219 144.449219 38.691406 C 144.351562 38.683594 144.253906 38.652344 144.164062 38.609375 C 143.921875 38.445312 143.699219 38.40625 143.457031 38.53125 C 142.941406 38.804688 142.429688 39.082031 141.921875 39.367188 C 141.488281 39.609375 141.066406 39.859375 140.636719 40.105469 C 140.609375 40.066406 140.582031 40.027344 140.558594 39.984375 C 141.015625 39.585938 141.433594 39.117188 141.941406 38.789062 C 143.335938 37.890625 144.785156 37.070312 146.175781 36.167969 C 146.855469 35.730469 147.464844 35.175781 148.09375 34.664062 C 148.171875 34.597656 148.21875 34.480469 148.277344 34.386719 L 148.203125 34.289062 L 145 35.777344 C 144.972656 35.730469 144.949219 35.679688 144.925781 35.632812 C 145.019531 35.546875 145.121094 35.464844 145.222656 35.390625 C 145.714844 35.070312 146.191406 34.726562 146.699219 34.445312 C 149.140625 33.089844 151.585938 31.75 154.039062 30.421875 C 154.796875 30.011719 155.601562 29.683594 156.363281 29.28125 C 156.523438 29.195312 156.585938 28.933594 156.691406 28.753906 C 156.484375 28.695312 156.265625 28.5625 156.074219 28.59375 C 155.632812 28.671875 155.199219 28.796875 154.78125 28.96875 C 153.484375 29.5 152.175781 30.019531 150.910156 30.621094 C 149.613281 31.238281 148.359375 31.949219 147.085938 32.613281 C 146.613281 32.851562 146.128906 33.074219 145.648438 33.304688 L 145.601562 33.214844 C 145.703125 33.117188 145.816406 33.023438 145.933594 32.941406 C 147.1875 32.207031 148.410156 31.414062 149.703125 30.761719 C 151.949219 29.625 154.238281 28.566406 156.601562 27.679688 C 158.644531 26.917969 160.699219 26.175781 162.75 25.4375 C 163.09375 25.3125 163.3125 25.15625 163.230469 24.746094 C 163.171875 24.472656 163.308594 24.316406 163.539062 24.167969 C 164.640625 23.453125 165.832031 23.121094 167.140625 23.261719 C 167.707031 23.320312 168.125 23.15625 168.492188 22.695312 C 168.664062 22.480469 169.058594 22.285156 169.3125 22.320312 C 170.300781 22.464844 171.148438 22.117188 171.988281 21.703125 C 172.171875 21.613281 172.320312 21.445312 172.484375 21.3125 L 172.410156 21.140625 C 168.574219 21.484375 164.851562 22.476562 161.101562 23.320312 L 161.058594 23.195312 L 163.097656 22.183594 C 162.972656 22.113281 162.824219 22.082031 162.679688 22.105469 C 162.230469 22.152344 161.785156 22.210938 161.339844 22.269531 C 161.113281 22.292969 160.890625 22.328125 160.671875 22.382812 C 159.527344 22.707031 158.371094 23 157.25 23.390625 C 154.261719 24.417969 151.359375 25.660156 148.507812 27.007812 C 146.574219 27.921875 144.671875 28.898438 142.753906 29.839844 C 142.441406 29.992188 142.121094 30.121094 141.703125 30.300781 C 141.792969 30.082031 141.851562 29.988281 141.863281 29.890625 C 141.886719 29.75 141.9375 29.535156 141.875 29.488281 C 141.773438 29.40625 141.578125 29.398438 141.441406 29.4375 C 141.183594 29.503906 140.9375 29.601562 140.710938 29.734375 C 139.847656 30.257812 138.964844 30.761719 138.148438 31.351562 C 137.289062 31.972656 136.378906 32.558594 135.835938 33.535156 C 135.730469 33.707031 135.578125 33.84375 135.394531 33.925781 C 135.25 33.992188 135.058594 33.953125 134.886719 33.960938 C 134.941406 33.816406 134.964844 33.640625 135.0625 33.53125 C 135.648438 32.921875 136.21875 32.296875 136.851562 31.742188 C 138.097656 30.65625 139.355469 29.578125 140.652344 28.554688 C 141.640625 27.773438 142.691406 27.0625 143.734375 26.347656 C 144.984375 25.488281 146.261719 24.675781 147.507812 23.808594 C 148.929688 22.824219 150.324219 21.800781 151.742188 20.804688 C 151.824219 20.753906 151.917969 20.714844 152.015625 20.699219 C 152.113281 20.683594 152.214844 20.6875 152.308594 20.707031 C 153.175781 20.96875 153.867188 20.621094 154.453125 20.074219 C 155.042969 19.527344 155.675781 19.222656 156.503906 19.304688 C 157.25 19.375 157.945312 19.125 158.617188 18.8125 C 159.632812 18.328125 160.625 17.792969 161.671875 17.378906 C 162.347656 17.113281 163.070312 16.863281 163.835938 17.078125 C 164.058594 17.148438 164.296875 17.140625 164.515625 17.058594 C 164.734375 16.976562 164.921875 16.824219 165.042969 16.625 C 165.140625 16.46875 165.191406 16.273438 165.3125 16.140625 C 165.4375 16.007812 165.640625 15.847656 165.742188 15.886719 C 166.6875 16.234375 167.558594 15.804688 168.4375 15.628906 C 169.300781 15.449219 170.128906 15.097656 170.980469 14.875 C 171.363281 14.773438 171.84375 14.636719 172.132812 15.035156 C 172.363281 15.34375 172.617188 15.332031 172.90625 15.292969 C 174.023438 15.140625 175.136719 14.941406 176.257812 14.832031 C 177.347656 14.726562 178.445312 14.671875 179.535156 14.671875 C 181.71875 14.671875 183.898438 14.722656 186.082031 14.75 C 186.523438 14.757812 186.96875 14.730469 187.40625 14.765625 C 188.601562 14.851562 189.792969 14.992188 190.988281 15.054688 C 191.699219 15.089844 192.292969 15.214844 192.640625 15.921875 C 192.800781 16.253906 193.121094 16.363281 193.492188 16.191406 C 193.644531 16.109375 193.808594 16.058594 193.980469 16.039062 C 194.789062 16.015625 195.628906 15.730469 196.390625 16.253906 C 196.417969 16.273438 196.472656 16.265625 196.507812 16.273438 C 197.191406 16.417969 197.875 16.570312 198.5625 16.710938 C 199.414062 16.890625 200.28125 17.023438 201.125 17.246094 C 201.964844 17.472656 202.8125 17.71875 203.445312 18.40625 C 203.585938 18.570312 203.820312 18.644531 204.019531 18.746094 C 204.285156 18.882812 204.566406 19 204.832031 19.140625 C 205.074219 19.273438 205.296875 19.457031 205.550781 19.566406 C 207.339844 20.324219 209.117188 21.117188 210.933594 21.808594 C 213.132812 22.652344 215.398438 23.332031 217.507812 24.402344 C 218.816406 25.070312 220.117188 25.738281 221.175781 26.78125 C 222.335938 27.921875 223.605469 28.882812 225.132812 29.5 C 225.5625 29.679688 225.917969 30 226.140625 30.410156 C 226.675781 31.484375 227.570312 32.152344 228.546875 32.730469 C 229.726562 33.429688 230.773438 34.300781 231.765625 35.222656 C 233.207031 36.5625 234.597656 37.953125 235.941406 39.394531 C 237.289062 40.84375 238.5625 42.355469 239.816406 43.882812 C 240.652344 44.898438 241.433594 45.960938 242.164062 47.054688 C 243.402344 48.914062 244.625 50.785156 245.769531 52.703125 C 246.601562 54.085938 247.285156 55.558594 248.054688 56.980469 C 248.851562 58.453125 249.722656 59.882812 250.464844 61.378906 C 250.859375 62.183594 251.089844 63.085938 251.324219 63.960938 C 251.5625 64.839844 251.636719 65.765625 252.175781 66.507812 C 252.601562 67.082031 252.902344 67.742188 253.050781 68.4375 C 253.128906 68.828125 253.160156 69.226562 253.222656 69.621094 C 253.390625 70.707031 253.570312 71.792969 253.734375 72.882812 C 253.921875 74.109375 254.335938 75.242188 255.078125 76.246094 C 255.238281 76.464844 255.226562 76.652344 255.035156 76.847656 C 254.554688 77.34375 254.445312 77.917969 254.632812 78.578125 C 254.691406 78.773438 254.742188 79.082031 254.644531 79.183594 C 254.226562 79.609375 254.230469 80.140625 254.113281 80.65625 C 254.023438 81.0625 254.113281 81.375 254.304688 81.710938 C 254.527344 82.085938 254.71875 82.476562 254.875 82.882812 C 255.050781 83.375 254.949219 83.464844 254.414062 83.375 C 254.175781 83.910156 253.992188 84.441406 254.164062 85.0625 C 254.320312 85.621094 254.226562 86.179688 253.984375 86.699219 C 253.792969 87.113281 253.449219 87.230469 253.105469 87.015625 C 253.027344 86.96875 252.984375 86.855469 252.925781 86.773438 C 253.015625 86.738281 253.117188 86.652344 253.191406 86.671875 C 253.582031 86.769531 253.644531 86.476562 253.726562 86.230469 C 253.765625 86.085938 253.785156 85.941406 253.789062 85.792969 C 253.84375 85.191406 254.050781 84.589844 253.714844 83.988281 C 253.636719 83.855469 253.679688 83.613281 253.742188 83.453125 C 254.007812 82.78125 253.945312 82.117188 253.730469 81.460938 C 253.644531 81.191406 253.578125 80.820312 253.203125 80.859375 C 252.824219 80.894531 252.941406 81.28125 252.839844 81.523438 C 252.78125 81.664062 252.636719 81.851562 252.511719 81.867188 C 252.210938 81.90625 252.050781 82.054688 252.050781 82.320312 C 252.050781 83.25 252.089844 84.183594 252.089844 85.113281 C 252.09375 85.371094 252.050781 85.625 251.964844 85.867188 C 251.800781 86.289062 251.492188 86.671875 251.425781 87.101562 C 251.25 88.179688 251.140625 89.265625 251.101562 90.355469 C 251.070312 91.597656 250.90625 92.792969 250.359375 93.914062 C 250.171875 94.292969 250.175781 94.664062 250.285156 95.070312 C 250.449219 95.683594 250.464844 96.3125 250.148438 96.894531 C 250.074219 97.023438 249.921875 97.109375 249.761719 97.257812 C 249.714844 97.089844 249.683594 97.035156 249.691406 96.988281 C 249.8125 95.996094 249.484375 94.992188 249.78125 94.003906 C 249.835938 93.796875 249.863281 93.582031 249.863281 93.367188 C 249.894531 91.992188 249.933594 90.617188 249.941406 89.242188 C 249.957031 87.902344 249.957031 86.5625 249.941406 85.222656 C 249.933594 84.261719 249.914062 83.300781 249.851562 82.34375 C 249.835938 82.132812 249.679688 81.847656 249.5 81.742188 C 248.988281 81.441406 248.9375 81.359375 249.320312 80.878906 C 249.535156 80.613281 249.46875 80.410156 249.3125 80.160156 C 249.164062 79.929688 249 79.6875 248.9375 79.425781 C 248.828125 78.949219 248.835938 78.445312 248.71875 77.972656 C 248.367188 76.574219 248.011719 75.175781 247.609375 73.792969 C 247.085938 72.007812 246.355469 70.296875 245.511719 68.640625 C 245.390625 68.402344 245.164062 68.214844 244.988281 68.003906 L 244.789062 68.070312 C 244.777344 68.34375 244.707031 68.632812 244.769531 68.886719 C 244.925781 69.570312 245.183594 70.226562 245.316406 70.910156 C 245.445312 71.59375 245.644531 72.246094 246.109375 72.789062 C 246.222656 72.9375 246.320312 73.097656 246.398438 73.265625 C 246.523438 73.507812 246.523438 73.703125 246.253906 73.875 C 246.1875 73.925781 246.132812 73.988281 246.089844 74.0625 C 246.050781 74.132812 246.023438 74.210938 246.011719 74.292969 C 245.984375 74.609375 245.992188 74.929688 246.03125 75.242188 C 246.171875 76.347656 246.375 77.449219 246.476562 78.558594 C 246.621094 80.179688 246.753906 81.804688 246.792969 83.429688 C 246.832031 85.085938 246.773438 86.746094 246.722656 88.402344 C 246.679688 89.671875 246.621094 90.941406 246.496094 92.203125 C 246.363281 93.5625 246.148438 94.917969 245.964844 96.273438 C 245.84375 97.15625 245.753906 98.042969 245.574219 98.910156 C 245.324219 100.113281 245.03125 101.308594 244.710938 102.492188 C 244.253906 104.1875 243.792969 105.886719 243.253906 107.558594 C 242.382812 110.230469 241.296875 112.828125 240.007812 115.324219 C 237.789062 119.652344 235.046875 123.691406 231.851562 127.351562 C 231.210938 128.089844 230.503906 128.769531 229.820312 129.46875 C 229.449219 129.851562 229.089844 130.253906 228.683594 130.59375 C 228.546875 130.710938 228.28125 130.695312 228.074219 130.710938 C 227.699219 130.730469 227.289062 130.640625 226.953125 130.761719 C 226.539062 130.910156 226.191406 131.238281 225.804688 131.46875 C 225.613281 131.566406 225.417969 131.65625 225.21875 131.730469 L 225.21875 131.09375 C 224.910156 131.183594 224.574219 131.214844 224.324219 131.375 C 223.09375 132.140625 221.875 132.929688 220.664062 133.726562 C 219.046875 134.796875 217.453125 135.90625 215.824219 136.960938 C 213.230469 138.632812 210.601562 140.25 207.792969 141.539062 C 206.355469 142.199219 204.859375 142.75 203.363281 143.289062 C 202.382812 143.640625 201.367188 143.890625 200.359375 144.175781 C 199.730469 144.351562 199.132812 144.683594 198.429688 144.550781 C 198.285156 144.523438 198.113281 144.636719 197.921875 144.695312 C 198.011719 144.855469 198.074219 144.957031 198.125 145.058594 C 198.269531 145.339844 198.183594 145.542969 197.871094 145.574219 C 197.253906 145.648438 196.632812 145.738281 196.011719 145.746094 C 194.367188 145.769531 192.71875 145.703125 191.074219 145.765625 C 190.207031 145.800781 189.347656 146.042969 188.480469 146.167969 C 188.152344 146.214844 187.816406 146.199219 187.480469 146.210938 C 186.863281 146.226562 186.171875 146.070312 185.644531 146.296875 C 184.753906 146.675781 183.847656 146.636719 182.972656 146.589844 C 181.542969 146.519531 180.125 146.238281 178.699219 146.082031 C 178.339844 146.039062 177.925781 145.949219 177.523438 146.316406 L 178.453125 146.910156 L 178.402344 147.039062 C 177.765625 146.949219 177.121094 146.894531 176.496094 146.757812 C 175.964844 146.644531 175.9375 146.488281 176.324219 146.066406 C 176.21875 146.003906 176.128906 145.90625 176.023438 145.894531 C 175.449219 145.816406 174.867188 145.714844 174.285156 145.710938 C 174.066406 145.710938 173.808594 145.90625 173.632812 146.078125 C 173.410156 146.296875 173.195312 146.355469 172.910156 146.273438 C 172.660156 146.191406 172.402344 146.121094 172.144531 146.066406 C 171.292969 145.921875 170.4375 145.796875 169.585938 145.664062 C 169.199219 145.605469 168.8125 145.550781 168.425781 145.492188 L 168.394531 145.605469 C 168.6875 145.753906 168.96875 145.933594 169.277344 146.042969 C 170.054688 146.316406 170.855469 146.527344 171.621094 146.816406 C 172.203125 147.039062 172.753906 147.339844 173.304688 147.632812 C 173.40625 147.6875 173.445312 147.859375 173.511719 147.980469 C 173.390625 148.039062 173.269531 148.144531 173.144531 148.148438 C 172.980469 148.152344 172.8125 148.0625 172.640625 148.039062 C 172.4375 148.011719 172.226562 148.015625 172.019531 148.007812 L 171.988281 148.167969 L 172.847656 148.5 L 172.816406 148.644531 C 172.589844 148.632812 172.363281 148.609375 172.140625 148.574219 C 171.519531 148.445312 170.902344 148.304688 170.285156 148.152344 C 169.234375 147.890625 168.183594 147.621094 167.136719 147.339844 C 166.257812 147.105469 165.382812 146.859375 164.503906 146.617188 C 163.835938 146.4375 163.171875 146.261719 162.503906 146.097656 C 161.980469 145.96875 161.453125 145.847656 160.921875 145.753906 C 160.8125 145.734375 160.679688 145.855469 160.554688 145.910156 C 160.613281 146.035156 160.640625 146.203125 160.738281 146.277344 C 160.9375 146.429688 161.175781 146.527344 161.398438 146.644531 C 163.632812 147.808594 166.027344 148.53125 168.453125 149.15625 C 169.386719 149.398438 170.328125 149.601562 171.261719 149.847656 C 172.207031 150.097656 173.144531 150.367188 174.078125 150.652344 C 174.800781 150.875 175.507812 151.132812 176.214844 151.398438 C 176.308594 151.429688 176.367188 151.558594 176.441406 151.636719 C 176.382812 151.679688 176.324219 151.75 176.257812 151.761719 C 175.617188 151.847656 174.96875 151.933594 174.320312 152.007812 C 174.078125 152.035156 173.730469 151.941406 173.707031 152.269531 C 173.699219 152.402344 174.046875 152.566406 174.246094 152.707031 C 174.292969 152.738281 174.378906 152.71875 174.4375 152.738281 C 174.738281 152.839844 175.050781 152.921875 175.332031 153.058594 C 175.488281 153.140625 175.59375 153.316406 175.71875 153.449219 L 175.632812 153.558594 C 175.503906 153.554688 175.375 153.539062 175.25 153.511719 C 174.757812 153.363281 174.277344 153.144531 173.773438 153.058594 C 173.210938 152.960938 172.640625 152.933594 172.074219 152.96875 C 171.617188 153 171.511719 153.332031 171.839844 153.65625 C 172.128906 153.945312 172.453125 154.273438 172.824219 154.394531 C 173.765625 154.699219 174.738281 154.898438 175.699219 155.140625 C 176.289062 155.289062 176.886719 155.402344 177.457031 155.605469 C 177.761719 155.710938 178.011719 155.960938 178.273438 156.167969 C 178.300781 156.199219 178.320312 156.238281 178.332031 156.28125 C 178.34375 156.324219 178.34375 156.367188 178.335938 156.410156 C 178.328125 156.453125 178.214844 156.496094 178.144531 156.503906 C 178.023438 156.523438 177.902344 156.515625 177.785156 156.488281 C 176.933594 156.222656 176.082031 155.972656 175.179688 156.015625 C 175.070312 156.003906 174.964844 155.980469 174.863281 155.945312 C 174.125 155.785156 173.386719 155.613281 172.644531 155.480469 C 172.367188 155.433594 172.066406 155.496094 171.777344 155.507812 L 171.765625 155.660156 C 171.886719 155.726562 172.007812 155.828125 172.136719 155.851562 C 172.972656 156 173.816406 156.128906 174.652344 156.269531 C 174.8125 156.289062 174.964844 156.328125 175.109375 156.390625 C 175.492188 156.574219 175.867188 156.777344 176.234375 156.984375 C 176.410156 157.078125 176.570312 157.203125 176.738281 157.3125 C 176.722656 157.355469 176.710938 157.394531 176.695312 157.4375 C 176.53125 157.4375 176.363281 157.464844 176.203125 157.4375 C 175.429688 157.277344 174.652344 157.109375 173.882812 156.917969 C 172.316406 156.535156 170.753906 156.132812 169.1875 155.75 C 168.222656 155.511719 167.265625 155.238281 166.285156 155.105469 C 165.730469 155.023438 165.320312 154.832031 165.007812 154.40625 C 164.847656 154.175781 164.636719 153.984375 164.390625 153.851562 C 164.144531 153.71875 163.867188 153.640625 163.585938 153.628906 C 162.710938 153.582031 161.847656 153.257812 160.949219 153.523438 C 160.777344 153.574219 160.53125 153.460938 160.347656 153.371094 C 159.871094 153.132812 159.390625 152.898438 158.953125 152.601562 C 158.160156 152.066406 157.265625 151.699219 156.324219 151.527344 C 155.601562 151.386719 154.867188 151.269531 154.140625 151.117188 C 153.808594 151.042969 153.5 150.867188 153.160156 150.8125 C 152.695312 150.742188 152.597656 150.902344 152.78125 151.335938 C 152.847656 151.492188 152.882812 151.65625 152.933594 151.820312 L 152.824219 151.886719 C 152.726562 151.828125 152.578125 151.792969 152.542969 151.710938 C 152.355469 151.261719 151.960938 151.09375 151.566406 150.886719 C 151.4375 150.820312 151.285156 150.574219 151.316406 150.453125 C 151.445312 149.984375 151.171875 149.8125 150.832031 149.632812 C 149.828125 149.089844 148.804688 148.574219 147.835938 147.96875 C 145.839844 146.722656 143.847656 145.476562 141.914062 144.136719 C 140.429688 143.113281 139.039062 141.953125 137.613281 140.847656 C 137.234375 140.550781 136.828125 140.269531 136.53125 139.902344 C 135.265625 138.347656 134.027344 136.777344 132.804688 135.1875 C 131.773438 133.839844 130.765625 132.472656 129.507812 131.320312 C 129.386719 131.195312 129.246094 131.089844 129.09375 131.007812 C 128.988281 130.953125 128.84375 130.96875 128.71875 130.957031 C 128.707031 131.082031 128.660156 131.222656 128.699219 131.332031 C 128.78125 131.527344 128.882812 131.71875 129 131.894531 C 130.164062 133.75 131.53125 135.472656 133.070312 137.03125 C 134.15625 138.136719 135.332031 139.15625 136.46875 140.214844 C 137.355469 141.042969 138.226562 141.894531 139.140625 142.695312 C 140.355469 143.761719 141.609375 144.78125 142.828125 145.832031 C 143.007812 145.988281 143.101562 146.234375 143.230469 146.445312 L 143.113281 146.558594 C 142.917969 146.460938 142.703125 146.394531 142.53125 146.265625 C 140.265625 144.605469 137.980469 142.964844 135.753906 141.253906 C 134.46875 140.261719 133.265625 139.160156 132.03125 138.101562 C 131.347656 137.515625 130.808594 136.863281 130.84375 135.871094 C 130.859375 135.386719 130.4375 135.019531 130.046875 135.136719 C 129.65625 135.25 129.460938 135.074219 129.265625 134.824219 C 128.539062 133.886719 127.796875 132.960938 127.09375 132.007812 C 125.027344 129.234375 123.199219 126.285156 121.636719 123.199219 C 119.828125 119.597656 118.378906 115.828125 117.3125 111.945312 C 116.574219 109.25 115.945312 106.53125 115.515625 103.769531 C 115.449219 103.328125 115.3125 102.894531 115.257812 102.449219 C 115.144531 101.539062 115.050781 100.625 114.96875 99.710938 C 114.863281 98.542969 114.773438 97.378906 114.679688 96.210938 C 114.660156 95.945312 114.65625 95.675781 114.632812 95.410156 C 114.546875 94.390625 114.472656 93.367188 114.359375 92.347656 C 114.320312 92.003906 114.246094 91.632812 114.078125 91.339844 C 113.492188 90.3125 113.164062 89.210938 113.167969 88.039062 C 113.195312 86.167969 113.167969 84.300781 113.378906 82.414062 Z M 113.378906 82.414062 " clip-rule="nonzero"/></clipPath><linearGradient x1="1895.974708" gradientTransform="matrix(-0.0804576, 0, 0, 0.080424, 255.189467, 14.671158)" y1="191.74219" x2="-126.394961" gradientUnits="userSpaceOnUse" y2="1593.126061" id="bcfe25d618"><stop stop-opacity="1" stop-color="rgb(0%, 100%, 100%)" offset="0"/><stop stop-opacity="1" stop-color="rgb(0%, 100%, 100%)" offset="0.0625"/><stop stop-opacity="1" stop-color="rgb(0.0488281%, 99.897766%, 99.963379%)" offset="0.0703125"/><stop stop-opacity="1" stop-color="rgb(0.167847%, 99.653625%, 99.879456%)" offset="0.078125"/><stop stop-opacity="1" stop-color="rgb(0.308228%, 99.36676%, 99.780273%)" offset="0.0859375"/><stop stop-opacity="1" stop-color="rgb(0.447083%, 99.081421%, 99.681091%)" offset="0.09375"/><stop stop-opacity="1" stop-color="rgb(0.587463%, 98.796082%, 99.581909%)" offset="0.101562"/><stop stop-opacity="1" stop-color="rgb(0.726318%, 98.510742%, 99.482727%)" offset="0.109375"/><stop stop-opacity="1" stop-color="rgb(0.866699%, 98.225403%, 99.383545%)" offset="0.117188"/><stop stop-opacity="1" stop-color="rgb(1.00708%, 97.940063%, 99.285889%)" offset="0.125"/><stop stop-opacity="1" stop-color="rgb(1.145935%, 97.654724%, 99.186707%)" offset="0.132812"/><stop stop-opacity="1" stop-color="rgb(1.286316%, 97.369385%, 99.087524%)" offset="0.140625"/><stop stop-opacity="1" stop-color="rgb(1.425171%, 97.08252%, 98.988342%)" offset="0.148438"/><stop stop-opacity="1" stop-color="rgb(1.565552%, 96.79718%, 98.88916%)" offset="0.15625"/><stop stop-opacity="1" stop-color="rgb(1.704407%, 96.511841%, 98.789978%)" offset="0.164062"/><stop stop-opacity="1" stop-color="rgb(1.844788%, 96.226501%, 98.692322%)" offset="0.171875"/><stop stop-opacity="1" stop-color="rgb(1.985168%, 95.941162%, 98.59314%)" offset="0.179688"/><stop stop-opacity="1" stop-color="rgb(2.124023%, 95.655823%, 98.493958%)" offset="0.1875"/><stop stop-opacity="1" stop-color="rgb(2.264404%, 95.370483%, 98.394775%)" offset="0.195312"/><stop stop-opacity="1" stop-color="rgb(2.403259%, 95.085144%, 98.295593%)" offset="0.203125"/><stop stop-opacity="1" stop-color="rgb(2.54364%, 94.798279%, 98.196411%)" offset="0.210938"/><stop stop-opacity="1" stop-color="rgb(2.682495%, 94.512939%, 98.097229%)" offset="0.21875"/><stop stop-opacity="1" stop-color="rgb(2.822876%, 94.2276%, 97.999573%)" offset="0.226562"/><stop stop-opacity="1" stop-color="rgb(2.963257%, 93.942261%, 97.900391%)" offset="0.234375"/><stop stop-opacity="1" stop-color="rgb(3.102112%, 93.656921%, 97.801208%)" offset="0.242188"/><stop stop-opacity="1" stop-color="rgb(3.242493%, 93.371582%, 97.702026%)" offset="0.25"/><stop stop-opacity="1" stop-color="rgb(3.381348%, 93.086243%, 97.602844%)" offset="0.257812"/><stop stop-opacity="1" stop-color="rgb(3.521729%, 92.800903%, 97.503662%)" offset="0.265625"/><stop stop-opacity="1" stop-color="rgb(3.660583%, 92.514038%, 97.406006%)" offset="0.273438"/><stop stop-opacity="1" stop-color="rgb(3.800964%, 92.228699%, 97.306824%)" offset="0.28125"/><stop stop-opacity="1" stop-color="rgb(3.941345%, 91.943359%, 97.207642%)" offset="0.289062"/><stop stop-opacity="1" stop-color="rgb(4.0802%, 91.65802%, 97.108459%)" offset="0.296875"/><stop stop-opacity="1" stop-color="rgb(4.220581%, 91.372681%, 97.009277%)" offset="0.304688"/><stop stop-opacity="1" stop-color="rgb(4.359436%, 91.087341%, 96.910095%)" offset="0.3125"/><stop stop-opacity="1" stop-color="rgb(4.499817%, 90.802002%, 96.812439%)" offset="0.320312"/><stop stop-opacity="1" stop-color="rgb(4.638672%, 90.516663%, 96.713257%)" offset="0.328125"/><stop stop-opacity="1" stop-color="rgb(4.779053%, 90.229797%, 96.614075%)" offset="0.335938"/><stop stop-opacity="1" stop-color="rgb(4.919434%, 89.944458%, 96.514893%)" offset="0.34375"/><stop stop-opacity="1" stop-color="rgb(5.058289%, 89.659119%, 96.41571%)" offset="0.351562"/><stop stop-opacity="1" stop-color="rgb(5.198669%, 89.373779%, 96.316528%)" offset="0.359375"/><stop stop-opacity="1" stop-color="rgb(5.337524%, 89.08844%, 96.218872%)" offset="0.367188"/><stop stop-opacity="1" stop-color="rgb(5.477905%, 88.803101%, 96.11969%)" offset="0.375"/><stop stop-opacity="1" stop-color="rgb(5.61676%, 88.517761%, 96.020508%)" offset="0.382812"/><stop stop-opacity="1" stop-color="rgb(5.757141%, 88.232422%, 95.921326%)" offset="0.390625"/><stop stop-opacity="1" stop-color="rgb(5.897522%, 87.945557%, 95.822144%)" offset="0.398438"/><stop stop-opacity="1" stop-color="rgb(6.036377%, 87.660217%, 95.722961%)" offset="0.40625"/><stop stop-opacity="1" stop-color="rgb(6.176758%, 87.374878%, 95.623779%)" offset="0.411015"/><stop stop-opacity="1" stop-color="rgb(6.246948%, 87.232971%, 95.574951%)" offset="0.414062"/><stop stop-opacity="1" stop-color="rgb(6.315613%, 87.089539%, 95.526123%)" offset="0.421875"/><stop stop-opacity="1" stop-color="rgb(6.455994%, 86.804199%, 95.426941%)" offset="0.429688"/><stop stop-opacity="1" stop-color="rgb(6.594849%, 86.51886%, 95.327759%)" offset="0.4375"/><stop stop-opacity="1" stop-color="rgb(6.735229%, 86.233521%, 95.228577%)" offset="0.445312"/><stop stop-opacity="1" stop-color="rgb(6.87561%, 85.946655%, 95.129395%)" offset="0.453125"/><stop stop-opacity="1" stop-color="rgb(7.014465%, 85.661316%, 95.030212%)" offset="0.460937"/><stop stop-opacity="1" stop-color="rgb(7.154846%, 85.375977%, 94.932556%)" offset="0.46875"/><stop stop-opacity="1" stop-color="rgb(7.293701%, 85.090637%, 94.833374%)" offset="0.476562"/><stop stop-opacity="1" stop-color="rgb(7.434082%, 84.805298%, 94.734192%)" offset="0.484375"/><stop stop-opacity="1" stop-color="rgb(7.572937%, 84.519958%, 94.63501%)" offset="0.492187"/><stop stop-opacity="1" stop-color="rgb(7.713318%, 84.234619%, 94.535828%)" offset="0.5"/><stop stop-opacity="1" stop-color="rgb(7.853699%, 83.94928%, 94.436646%)" offset="0.507812"/><stop stop-opacity="1" stop-color="rgb(7.992554%, 83.662415%, 94.338989%)" offset="0.515625"/><stop stop-opacity="1" stop-color="rgb(8.132935%, 83.377075%, 94.239807%)" offset="0.523438"/><stop stop-opacity="1" stop-color="rgb(8.27179%, 83.091736%, 94.140625%)" offset="0.53125"/><stop stop-opacity="1" stop-color="rgb(8.41217%, 82.806396%, 94.041443%)" offset="0.539062"/><stop stop-opacity="1" stop-color="rgb(8.551025%, 82.521057%, 93.942261%)" offset="0.546875"/><stop stop-opacity="1" stop-color="rgb(8.691406%, 82.235718%, 93.843079%)" offset="0.554688"/><stop stop-opacity="1" stop-color="rgb(8.831787%, 81.950378%, 93.745422%)" offset="0.5625"/><stop stop-opacity="1" stop-color="rgb(8.970642%, 81.665039%, 93.64624%)" offset="0.570312"/><stop stop-opacity="1" stop-color="rgb(9.111023%, 81.378174%, 93.547058%)" offset="0.578125"/><stop stop-opacity="1" stop-color="rgb(9.249878%, 81.092834%, 93.447876%)" offset="0.585938"/><stop stop-opacity="1" stop-color="rgb(9.390259%, 80.807495%, 93.348694%)" offset="0.588985"/><stop stop-opacity="1" stop-color="rgb(9.460449%, 80.665588%, 93.299866%)" offset="0.59375"/><stop stop-opacity="1" stop-color="rgb(9.529114%, 80.522156%, 93.249512%)" offset="0.601562"/><stop stop-opacity="1" stop-color="rgb(9.669495%, 80.236816%, 93.15033%)" offset="0.609375"/><stop stop-opacity="1" stop-color="rgb(9.809875%, 79.951477%, 93.052673%)" offset="0.617188"/><stop stop-opacity="1" stop-color="rgb(9.94873%, 79.666138%, 92.953491%)" offset="0.625"/><stop stop-opacity="1" stop-color="rgb(10.089111%, 79.380798%, 92.854309%)" offset="0.632812"/><stop stop-opacity="1" stop-color="rgb(10.227966%, 79.093933%, 92.755127%)" offset="0.640625"/><stop stop-opacity="1" stop-color="rgb(10.368347%, 78.808594%, 92.655945%)" offset="0.648438"/><stop stop-opacity="1" stop-color="rgb(10.507202%, 78.523254%, 92.556763%)" offset="0.65625"/><stop stop-opacity="1" stop-color="rgb(10.647583%, 78.237915%, 92.459106%)" offset="0.664062"/><stop stop-opacity="1" stop-color="rgb(10.787964%, 77.952576%, 92.359924%)" offset="0.671875"/><stop stop-opacity="1" stop-color="rgb(10.926819%, 77.667236%, 92.260742%)" offset="0.679688"/><stop stop-opacity="1" stop-color="rgb(11.0672%, 77.381897%, 92.16156%)" offset="0.6875"/><stop stop-opacity="1" stop-color="rgb(11.206055%, 77.096558%, 92.062378%)" offset="0.695312"/><stop stop-opacity="1" stop-color="rgb(11.346436%, 76.809692%, 91.963196%)" offset="0.703125"/><stop stop-opacity="1" stop-color="rgb(11.486816%, 76.524353%, 91.86554%)" offset="0.710938"/><stop stop-opacity="1" stop-color="rgb(11.625671%, 76.239014%, 91.766357%)" offset="0.71875"/><stop stop-opacity="1" stop-color="rgb(11.766052%, 75.953674%, 91.667175%)" offset="0.726562"/><stop stop-opacity="1" stop-color="rgb(11.904907%, 75.668335%, 91.567993%)" offset="0.734375"/><stop stop-opacity="1" stop-color="rgb(12.045288%, 75.382996%, 91.468811%)" offset="0.742188"/><stop stop-opacity="1" stop-color="rgb(12.184143%, 75.097656%, 91.369629%)" offset="0.75"/><stop stop-opacity="1" stop-color="rgb(12.324524%, 74.812317%, 91.270447%)" offset="0.757812"/><stop stop-opacity="1" stop-color="rgb(12.464905%, 74.525452%, 91.172791%)" offset="0.765625"/><stop stop-opacity="1" stop-color="rgb(12.60376%, 74.240112%, 91.073608%)" offset="0.773438"/><stop stop-opacity="1" stop-color="rgb(12.744141%, 73.954773%, 90.974426%)" offset="0.78125"/><stop stop-opacity="1" stop-color="rgb(12.882996%, 73.669434%, 90.875244%)" offset="0.789062"/><stop stop-opacity="1" stop-color="rgb(13.023376%, 73.384094%, 90.776062%)" offset="0.796875"/><stop stop-opacity="1" stop-color="rgb(13.162231%, 73.098755%, 90.67688%)" offset="0.804688"/><stop stop-opacity="1" stop-color="rgb(13.302612%, 72.813416%, 90.579224%)" offset="0.8125"/><stop stop-opacity="1" stop-color="rgb(13.442993%, 72.528076%, 90.480042%)" offset="0.820312"/><stop stop-opacity="1" stop-color="rgb(13.581848%, 72.241211%, 90.380859%)" offset="0.828125"/><stop stop-opacity="1" stop-color="rgb(13.722229%, 71.955872%, 90.281677%)" offset="0.835938"/><stop stop-opacity="1" stop-color="rgb(13.861084%, 71.670532%, 90.182495%)" offset="0.84375"/><stop stop-opacity="1" stop-color="rgb(14.001465%, 71.385193%, 90.083313%)" offset="0.851562"/><stop stop-opacity="1" stop-color="rgb(14.14032%, 71.099854%, 89.985657%)" offset="0.859375"/><stop stop-opacity="1" stop-color="rgb(14.280701%, 70.814514%, 89.886475%)" offset="0.867188"/><stop stop-opacity="1" stop-color="rgb(14.421082%, 70.529175%, 89.787292%)" offset="0.875"/><stop stop-opacity="1" stop-color="rgb(14.559937%, 70.243835%, 89.68811%)" offset="0.882812"/><stop stop-opacity="1" stop-color="rgb(14.700317%, 69.95697%, 89.588928%)" offset="0.890625"/><stop stop-opacity="1" stop-color="rgb(14.839172%, 69.671631%, 89.489746%)" offset="0.898438"/><stop stop-opacity="1" stop-color="rgb(14.979553%, 69.386292%, 89.39209%)" offset="0.90625"/><stop stop-opacity="1" stop-color="rgb(15.118408%, 69.100952%, 89.292908%)" offset="0.914062"/><stop stop-opacity="1" stop-color="rgb(15.258789%, 68.815613%, 89.193726%)" offset="0.921875"/><stop stop-opacity="1" stop-color="rgb(15.39917%, 68.530273%, 89.094543%)" offset="0.929688"/><stop stop-opacity="1" stop-color="rgb(15.538025%, 68.244934%, 88.995361%)" offset="0.9375"/><stop stop-opacity="1" stop-color="rgb(15.678406%, 67.959595%, 88.896179%)" offset="0.945312"/><stop stop-opacity="1" stop-color="rgb(15.817261%, 67.672729%, 88.796997%)" offset="0.953125"/><stop stop-opacity="1" stop-color="rgb(15.957642%, 67.38739%, 88.699341%)" offset="0.960938"/><stop stop-opacity="1" stop-color="rgb(16.062927%, 67.172241%, 88.624573%)" offset="0.96875"/><stop stop-opacity="1" stop-color="rgb(16.099548%, 67.098999%, 88.598633%)" offset="1"/></linearGradient></defs><g clip-path="url(#7fd67b5ddb)"><g clip-path="url(#2e36e7f512)"><path fill="url(#bcfe25d618)" d="M 255.1875 14.667969 L 255.1875 157.464844 L 113.335938 157.464844 L 113.335938 14.667969 Z M 255.1875 14.667969 " fill-rule="nonzero"/></g></g><g fill="#000000" fill-opacity="1"><g transform="translate(89.557188, 89.408601)"><g><path d="M 11.1875 -0.84375 L 11.1875 0 L 2.25 0 L 2.25 -12.953125 L 10.921875 -12.953125 L 10.921875 -12.09375 L 3.203125 -12.09375 L 3.203125 -7 L 10.09375 -7 L 10.09375 -6.15625 L 3.203125 -6.15625 L 3.203125 -0.84375 Z M 11.1875 -0.84375 "/></g></g></g><g fill="#000000" fill-opacity="1"><g transform="translate(105.631601, 89.408601)"><g><path d="M 2.25 -12.953125 L 7.375 -12.953125 C 8.71875 -12.953125 9.910156 -12.671875 10.953125 -12.109375 C 12.003906 -11.554688 12.816406 -10.789062 13.390625 -9.8125 C 13.972656 -8.832031 14.265625 -7.71875 14.265625 -6.46875 C 14.265625 -5.226562 13.972656 -4.117188 13.390625 -3.140625 C 12.816406 -2.160156 12.003906 -1.390625 10.953125 -0.828125 C 9.910156 -0.273438 8.71875 0 7.375 0 L 2.25 0 Z M 7.3125 -0.84375 C 8.507812 -0.84375 9.5625 -1.082031 10.46875 -1.5625 C 11.382812 -2.039062 12.085938 -2.703125 12.578125 -3.546875 C 13.066406 -4.398438 13.3125 -5.375 13.3125 -6.46875 C 13.3125 -7.570312 13.066406 -8.546875 12.578125 -9.390625 C 12.085938 -10.242188 11.382812 -10.90625 10.46875 -11.375 C 9.5625 -11.851562 8.507812 -12.09375 7.3125 -12.09375 L 3.203125 -12.09375 L 3.203125 -0.84375 Z M 7.3125 -0.84375 "/></g></g></g><g fill="#000000" fill-opacity="1"><g transform="translate(124.60993, 89.408601)"><g><path d="M 19.578125 -12.953125 L 15.1875 0 L 14.1875 0 L 10.171875 -11.625 L 6.140625 0 L 5.140625 0 L 0.734375 -12.953125 L 1.734375 -12.953125 L 5.671875 -1.296875 L 9.734375 -12.953125 L 10.640625 -12.953125 L 14.671875 -1.28125 L 18.640625 -12.953125 Z M 19.578125 -12.953125 "/></g></g></g><g fill="#000000" fill-opacity="1"><g transform="translate(148.619262, 89.408601)"><g><path d="M 2.25 -12.953125 L 3.203125 -12.953125 L 3.203125 0 L 2.25 0 Z M 2.25 -12.953125 "/></g></g></g><g fill="#000000" fill-opacity="1"><g transform="translate(157.776047, 89.408601)"><g><path d="M 12.796875 -12.953125 L 12.796875 0 L 12.03125 0 L 3.203125 -11.25 L 3.203125 0 L 2.25 0 L 2.25 -12.953125 L 3.046875 -12.953125 L 11.859375 -1.703125 L 11.859375 -12.953125 Z M 12.796875 -12.953125 "/></g></g></g><g fill="#000000" fill-opacity="1"><g transform="translate(176.532426, 89.408601)"><g/></g></g><g fill="#000000" fill-opacity="1"><g transform="translate(184.986348, 89.408601)"><g><path d="M 7.734375 0.09375 C 6.460938 0.09375 5.316406 -0.1875 4.296875 -0.75 C 3.285156 -1.320312 2.484375 -2.109375 1.890625 -3.109375 C 1.304688 -4.109375 1.015625 -5.226562 1.015625 -6.46875 C 1.015625 -7.71875 1.304688 -8.84375 1.890625 -9.84375 C 2.484375 -10.84375 3.285156 -11.625 4.296875 -12.1875 C 5.316406 -12.757812 6.460938 -13.046875 7.734375 -13.046875 C 8.671875 -13.046875 9.53125 -12.894531 10.3125 -12.59375 C 11.101562 -12.289062 11.78125 -11.84375 12.34375 -11.25 L 11.75 -10.640625 C 10.707031 -11.660156 9.378906 -12.171875 7.765625 -12.171875 C 6.679688 -12.171875 5.695312 -11.921875 4.8125 -11.421875 C 3.925781 -10.929688 3.226562 -10.25 2.71875 -9.375 C 2.21875 -8.507812 1.96875 -7.539062 1.96875 -6.46875 C 1.96875 -5.394531 2.21875 -4.421875 2.71875 -3.546875 C 3.226562 -2.679688 3.925781 -2.003906 4.8125 -1.515625 C 5.695312 -1.023438 6.679688 -0.78125 7.765625 -0.78125 C 9.367188 -0.78125 10.695312 -1.296875 11.75 -2.328125 L 12.34375 -1.71875 C 11.78125 -1.125 11.101562 -0.671875 10.3125 -0.359375 C 9.519531 -0.0546875 8.660156 0.09375 7.734375 0.09375 Z M 7.734375 0.09375 "/></g></g></g><g fill="#000000" fill-opacity="1"><g transform="translate(201.93008, 89.408601)"><g><path d="M 12.796875 -12.953125 L 12.796875 0 L 11.859375 0 L 11.859375 -6.15625 L 3.203125 -6.15625 L 3.203125 0 L 2.25 0 L 2.25 -12.953125 L 3.203125 -12.953125 L 3.203125 -7 L 11.859375 -7 L 11.859375 -12.953125 Z M 12.796875 -12.953125 "/></g></g></g><g fill="#000000" fill-opacity="1"><g transform="translate(220.686452, 89.408601)"><g><path d="M 2.25 -12.953125 L 3.203125 -12.953125 L 3.203125 0 L 2.25 0 Z M 2.25 -12.953125 "/></g></g></g><g fill="#000000" fill-opacity="1"><g transform="translate(229.843233, 89.408601)"><g><path d="M 11.5 -6.421875 L 12.40625 -6.421875 L 12.40625 -1.578125 C 11.84375 -1.035156 11.15625 -0.617188 10.34375 -0.328125 C 9.539062 -0.046875 8.6875 0.09375 7.78125 0.09375 C 6.5 0.09375 5.34375 -0.1875 4.3125 -0.75 C 3.289062 -1.320312 2.484375 -2.109375 1.890625 -3.109375 C 1.304688 -4.109375 1.015625 -5.226562 1.015625 -6.46875 C 1.015625 -7.71875 1.304688 -8.84375 1.890625 -9.84375 C 2.484375 -10.84375 3.289062 -11.625 4.3125 -12.1875 C 5.34375 -12.757812 6.507812 -13.046875 7.8125 -13.046875 C 8.757812 -13.046875 9.628906 -12.894531 10.421875 -12.59375 C 11.222656 -12.289062 11.90625 -11.847656 12.46875 -11.265625 L 11.875 -10.640625 C 11.332031 -11.179688 10.722656 -11.570312 10.046875 -11.8125 C 9.378906 -12.050781 8.640625 -12.171875 7.828125 -12.171875 C 6.710938 -12.171875 5.707031 -11.921875 4.8125 -11.421875 C 3.925781 -10.929688 3.226562 -10.25 2.71875 -9.375 C 2.21875 -8.507812 1.96875 -7.539062 1.96875 -6.46875 C 1.96875 -5.414062 2.222656 -4.453125 2.734375 -3.578125 C 3.242188 -2.710938 3.941406 -2.03125 4.828125 -1.53125 C 5.710938 -1.03125 6.710938 -0.78125 7.828125 -0.78125 C 9.304688 -0.78125 10.53125 -1.175781 11.5 -1.96875 Z M 11.5 -6.421875 "/></g></g></g><g fill="#000000" fill-opacity="1"><g transform="translate(247.841262, 89.408601)"><g><path d="M 12.796875 -12.953125 L 12.796875 0 L 12.03125 0 L 3.203125 -11.25 L 3.203125 0 L 2.25 0 L 2.25 -12.953125 L 3.046875 -12.953125 L 11.859375 -1.703125 L 11.859375 -12.953125 Z M 12.796875 -12.953125 "/></g></g></g><g fill="#000000" fill-opacity="1"><g transform="translate(266.597633, 89.408601)"><g><path d="M 11.1875 -0.84375 L 11.1875 0 L 2.25 0 L 2.25 -12.953125 L 10.921875 -12.953125 L 10.921875 -12.09375 L 3.203125 -12.09375 L 3.203125 -7 L 10.09375 -7 L 10.09375 -6.15625 L 3.203125 -6.15625 L 3.203125 -0.84375 Z M 11.1875 -0.84375 "/></g></g></g><g fill="#000000" fill-opacity="1"><g transform="translate(135.889059, 100.82012)"><g><path d="M 5.8125 -3.84375 L 4.515625 0 L 4.21875 0 L 3.03125 -3.453125 L 1.828125 0 L 1.53125 0 L 0.21875 -3.84375 L 0.515625 -3.84375 L 1.6875 -0.390625 L 2.890625 -3.84375 L 3.15625 -3.84375 L 4.359375 -0.375 L 5.546875 -3.84375 Z M 5.8125 -3.84375 "/></g></g></g><g fill="#000000" fill-opacity="1"><g transform="translate(143.029279, 100.82012)"><g><path d="M 5.8125 -3.84375 L 4.515625 0 L 4.21875 0 L 3.03125 -3.453125 L 1.828125 0 L 1.53125 0 L 0.21875 -3.84375 L 0.515625 -3.84375 L 1.6875 -0.390625 L 2.890625 -3.84375 L 3.15625 -3.84375 L 4.359375 -0.375 L 5.546875 -3.84375 Z M 5.8125 -3.84375 "/></g></g></g><g fill="#000000" fill-opacity="1"><g transform="translate(150.1695, 100.82012)"><g><path d="M 5.8125 -3.84375 L 4.515625 0 L 4.21875 0 L 3.03125 -3.453125 L 1.828125 0 L 1.53125 0 L 0.21875 -3.84375 L 0.515625 -3.84375 L 1.6875 -0.390625 L 2.890625 -3.84375 L 3.15625 -3.84375 L 4.359375 -0.375 L 5.546875 -3.84375 Z M 5.8125 -3.84375 "/></g></g></g><g fill="#000000" fill-opacity="1"><g transform="translate(157.30972, 100.82012)"><g><path d="M 0.546875 0.015625 C 0.484375 0.015625 0.425781 -0.00390625 0.375 -0.046875 C 0.332031 -0.0859375 0.3125 -0.144531 0.3125 -0.21875 C 0.3125 -0.28125 0.332031 -0.332031 0.375 -0.375 C 0.425781 -0.425781 0.484375 -0.453125 0.546875 -0.453125 C 0.609375 -0.453125 0.660156 -0.425781 0.703125 -0.375 C 0.753906 -0.332031 0.78125 -0.28125 0.78125 -0.21875 C 0.78125 -0.144531 0.753906 -0.0859375 0.703125 -0.046875 C 0.660156 -0.00390625 0.609375 0.015625 0.546875 0.015625 Z M 0.546875 0.015625 "/></g></g></g><g fill="#000000" fill-opacity="1"><g transform="translate(159.510096, 100.82012)"><g><path d="M 3.328125 -0.25 L 3.328125 0 L 0.671875 0 L 0.671875 -3.84375 L 3.25 -3.84375 L 3.25 -3.59375 L 0.953125 -3.59375 L 0.953125 -2.078125 L 3 -2.078125 L 3 -1.828125 L 0.953125 -1.828125 L 0.953125 -0.25 Z M 3.328125 -0.25 "/></g></g></g><g fill="#000000" fill-opacity="1"><g transform="translate(164.290415, 100.82012)"><g><path d="M 0.671875 -3.84375 L 2.1875 -3.84375 C 2.59375 -3.84375 2.945312 -3.757812 3.25 -3.59375 C 3.5625 -3.4375 3.800781 -3.210938 3.96875 -2.921875 C 4.144531 -2.628906 4.234375 -2.296875 4.234375 -1.921875 C 4.234375 -1.554688 4.144531 -1.226562 3.96875 -0.9375 C 3.800781 -0.644531 3.5625 -0.414062 3.25 -0.25 C 2.945312 -0.0820312 2.59375 0 2.1875 0 L 0.671875 0 Z M 2.171875 -0.25 C 2.523438 -0.25 2.835938 -0.316406 3.109375 -0.453125 C 3.378906 -0.597656 3.585938 -0.796875 3.734375 -1.046875 C 3.878906 -1.304688 3.953125 -1.597656 3.953125 -1.921875 C 3.953125 -2.253906 3.878906 -2.546875 3.734375 -2.796875 C 3.585938 -3.046875 3.378906 -3.238281 3.109375 -3.375 C 2.835938 -3.519531 2.523438 -3.59375 2.171875 -3.59375 L 0.953125 -3.59375 L 0.953125 -0.25 Z M 2.171875 -0.25 "/></g></g></g><g fill="#000000" fill-opacity="1"><g transform="translate(169.934379, 100.82012)"><g><path d="M 5.8125 -3.84375 L 4.515625 0 L 4.21875 0 L 3.03125 -3.453125 L 1.828125 0 L 1.53125 0 L 0.21875 -3.84375 L 0.515625 -3.84375 L 1.6875 -0.390625 L 2.890625 -3.84375 L 3.15625 -3.84375 L 4.359375 -0.375 L 5.546875 -3.84375 Z M 5.8125 -3.84375 "/></g></g></g><g fill="#000000" fill-opacity="1"><g transform="translate(177.0746, 100.82012)"><g><path d="M 0.671875 -3.84375 L 0.953125 -3.84375 L 0.953125 0 L 0.671875 0 Z M 0.671875 -3.84375 "/></g></g></g><g fill="#000000" fill-opacity="1"><g transform="translate(179.797562, 100.82012)"><g><path d="M 3.8125 -3.84375 L 3.8125 0 L 3.578125 0 L 0.953125 -3.34375 L 0.953125 0 L 0.671875 0 L 0.671875 -3.84375 L 0.90625 -3.84375 L 3.53125 -0.5 L 3.53125 -3.84375 Z M 3.8125 -3.84375 "/></g></g></g><g fill="#000000" fill-opacity="1"><g transform="translate(185.375516, 100.82012)"><g><path d="M 2.296875 0.03125 C 1.921875 0.03125 1.582031 -0.0507812 1.28125 -0.21875 C 0.976562 -0.394531 0.738281 -0.628906 0.5625 -0.921875 C 0.382812 -1.222656 0.296875 -1.554688 0.296875 -1.921875 C 0.296875 -2.296875 0.382812 -2.628906 0.5625 -2.921875 C 0.738281 -3.222656 0.976562 -3.457031 1.28125 -3.625 C 1.582031 -3.789062 1.921875 -3.875 2.296875 -3.875 C 2.578125 -3.875 2.832031 -3.828125 3.0625 -3.734375 C 3.300781 -3.648438 3.503906 -3.519531 3.671875 -3.34375 L 3.5 -3.15625 C 3.1875 -3.46875 2.789062 -3.625 2.3125 -3.625 C 1.988281 -3.625 1.691406 -3.546875 1.421875 -3.390625 C 1.160156 -3.242188 0.953125 -3.039062 0.796875 -2.78125 C 0.648438 -2.53125 0.578125 -2.242188 0.578125 -1.921875 C 0.578125 -1.609375 0.648438 -1.320312 0.796875 -1.0625 C 0.953125 -0.800781 1.160156 -0.597656 1.421875 -0.453125 C 1.691406 -0.304688 1.988281 -0.234375 2.3125 -0.234375 C 2.789062 -0.234375 3.1875 -0.382812 3.5 -0.6875 L 3.671875 -0.515625 C 3.503906 -0.335938 3.300781 -0.203125 3.0625 -0.109375 C 2.832031 -0.015625 2.578125 0.03125 2.296875 0.03125 Z M 2.296875 0.03125 "/></g></g></g><g fill="#000000" fill-opacity="1"><g transform="translate(190.414377, 100.82012)"><g><path d="M 3.8125 -3.84375 L 3.8125 0 L 3.53125 0 L 3.53125 -1.828125 L 0.953125 -1.828125 L 0.953125 0 L 0.671875 0 L 0.671875 -3.84375 L 0.953125 -3.84375 L 0.953125 -2.078125 L 3.53125 -2.078125 L 3.53125 -3.84375 Z M 3.8125 -3.84375 "/></g></g></g><g fill="#000000" fill-opacity="1"><g transform="translate(195.99233, 100.82012)"><g><path d="M 0.671875 -3.84375 L 0.953125 -3.84375 L 0.953125 0 L 0.671875 0 Z M 0.671875 -3.84375 "/></g></g></g><g fill="#000000" fill-opacity="1"><g transform="translate(198.715289, 100.82012)"><g><path d="M 3.421875 -1.90625 L 3.6875 -1.90625 L 3.6875 -0.46875 C 3.519531 -0.300781 3.316406 -0.175781 3.078125 -0.09375 C 2.835938 -0.0078125 2.582031 0.03125 2.3125 0.03125 C 1.9375 0.03125 1.59375 -0.0507812 1.28125 -0.21875 C 0.976562 -0.394531 0.738281 -0.628906 0.5625 -0.921875 C 0.382812 -1.222656 0.296875 -1.554688 0.296875 -1.921875 C 0.296875 -2.296875 0.382812 -2.628906 0.5625 -2.921875 C 0.738281 -3.222656 0.976562 -3.457031 1.28125 -3.625 C 1.59375 -3.789062 1.941406 -3.875 2.328125 -3.875 C 2.609375 -3.875 2.863281 -3.828125 3.09375 -3.734375 C 3.332031 -3.648438 3.535156 -3.519531 3.703125 -3.34375 L 3.53125 -3.15625 C 3.363281 -3.320312 3.179688 -3.441406 2.984375 -3.515625 C 2.785156 -3.585938 2.566406 -3.625 2.328125 -3.625 C 1.992188 -3.625 1.691406 -3.546875 1.421875 -3.390625 C 1.160156 -3.242188 0.953125 -3.039062 0.796875 -2.78125 C 0.648438 -2.53125 0.578125 -2.242188 0.578125 -1.921875 C 0.578125 -1.609375 0.65625 -1.320312 0.8125 -1.0625 C 0.96875 -0.800781 1.175781 -0.597656 1.4375 -0.453125 C 1.695312 -0.304688 1.992188 -0.234375 2.328125 -0.234375 C 2.765625 -0.234375 3.128906 -0.347656 3.421875 -0.578125 Z M 3.421875 -1.90625 "/></g></g></g><g fill="#000000" fill-opacity="1"><g transform="translate(204.0677, 100.82012)"><g><path d="M 3.8125 -3.84375 L 3.8125 0 L 3.578125 0 L 0.953125 -3.34375 L 0.953125 0 L 0.671875 0 L 0.671875 -3.84375 L 0.90625 -3.84375 L 3.53125 -0.5 L 3.53125 -3.84375 Z M 3.8125 -3.84375 "/></g></g></g><g fill="#000000" fill-opacity="1"><g transform="translate(209.645651, 100.82012)"><g><path d="M 3.328125 -0.25 L 3.328125 0 L 0.671875 0 L 0.671875 -3.84375 L 3.25 -3.84375 L 3.25 -3.59375 L 0.953125 -3.59375 L 0.953125 -2.078125 L 3 -2.078125 L 3 -1.828125 L 0.953125 -1.828125 L 0.953125 -0.25 Z M 3.328125 -0.25 "/></g></g></g><g fill="#000000" fill-opacity="1"><g transform="translate(214.425967, 100.82012)"><g><path d="M 0.546875 0.015625 C 0.484375 0.015625 0.425781 -0.00390625 0.375 -0.046875 C 0.332031 -0.0859375 0.3125 -0.144531 0.3125 -0.21875 C 0.3125 -0.28125 0.332031 -0.332031 0.375 -0.375 C 0.425781 -0.425781 0.484375 -0.453125 0.546875 -0.453125 C 0.609375 -0.453125 0.660156 -0.425781 0.703125 -0.375 C 0.753906 -0.332031 0.78125 -0.28125 0.78125 -0.21875 C 0.78125 -0.144531 0.753906 -0.0859375 0.703125 -0.046875 C 0.660156 -0.00390625 0.609375 0.015625 0.546875 0.015625 Z M 0.546875 0.015625 "/></g></g></g><g fill="#000000" fill-opacity="1"><g transform="translate(216.626339, 100.82012)"><g><path d="M 2.296875 0.03125 C 1.921875 0.03125 1.582031 -0.0507812 1.28125 -0.21875 C 0.976562 -0.394531 0.738281 -0.628906 0.5625 -0.921875 C 0.382812 -1.222656 0.296875 -1.554688 0.296875 -1.921875 C 0.296875 -2.296875 0.382812 -2.628906 0.5625 -2.921875 C 0.738281 -3.222656 0.976562 -3.457031 1.28125 -3.625 C 1.582031 -3.789062 1.921875 -3.875 2.296875 -3.875 C 2.578125 -3.875 2.832031 -3.828125 3.0625 -3.734375 C 3.300781 -3.648438 3.503906 -3.519531 3.671875 -3.34375 L 3.5 -3.15625 C 3.1875 -3.46875 2.789062 -3.625 2.3125 -3.625 C 1.988281 -3.625 1.691406 -3.546875 1.421875 -3.390625 C 1.160156 -3.242188 0.953125 -3.039062 0.796875 -2.78125 C 0.648438 -2.53125 0.578125 -2.242188 0.578125 -1.921875 C 0.578125 -1.609375 0.648438 -1.320312 0.796875 -1.0625 C 0.953125 -0.800781 1.160156 -0.597656 1.421875 -0.453125 C 1.691406 -0.304688 1.988281 -0.234375 2.3125 -0.234375 C 2.789062 -0.234375 3.1875 -0.382812 3.5 -0.6875 L 3.671875 -0.515625 C 3.503906 -0.335938 3.300781 -0.203125 3.0625 -0.109375 C 2.832031 -0.015625 2.578125 0.03125 2.296875 0.03125 Z M 2.296875 0.03125 "/></g></g></g><g fill="#000000" fill-opacity="1"><g transform="translate(221.665196, 100.82012)"><g><path d="M 2.296875 0.03125 C 1.921875 0.03125 1.582031 -0.0507812 1.28125 -0.21875 C 0.976562 -0.394531 0.738281 -0.628906 0.5625 -0.921875 C 0.382812 -1.222656 0.296875 -1.554688 0.296875 -1.921875 C 0.296875 -2.285156 0.382812 -2.613281 0.5625 -2.90625 C 0.738281 -3.207031 0.976562 -3.441406 1.28125 -3.609375 C 1.582031 -3.785156 1.921875 -3.875 2.296875 -3.875 C 2.679688 -3.875 3.023438 -3.789062 3.328125 -3.625 C 3.628906 -3.457031 3.867188 -3.222656 4.046875 -2.921875 C 4.222656 -2.628906 4.3125 -2.296875 4.3125 -1.921875 C 4.3125 -1.554688 4.222656 -1.222656 4.046875 -0.921875 C 3.867188 -0.628906 3.628906 -0.394531 3.328125 -0.21875 C 3.023438 -0.0507812 2.679688 0.03125 2.296875 0.03125 Z M 2.296875 -0.234375 C 2.617188 -0.234375 2.910156 -0.304688 3.171875 -0.453125 C 3.429688 -0.597656 3.632812 -0.800781 3.78125 -1.0625 C 3.9375 -1.320312 4.015625 -1.609375 4.015625 -1.921875 C 4.015625 -2.242188 3.9375 -2.53125 3.78125 -2.78125 C 3.632812 -3.039062 3.429688 -3.242188 3.171875 -3.390625 C 2.910156 -3.546875 2.617188 -3.625 2.296875 -3.625 C 1.984375 -3.625 1.691406 -3.546875 1.421875 -3.390625 C 1.160156 -3.242188 0.953125 -3.039062 0.796875 -2.78125 C 0.648438 -2.53125 0.578125 -2.242188 0.578125 -1.921875 C 0.578125 -1.609375 0.648438 -1.320312 0.796875 -1.0625 C 0.953125 -0.800781 1.160156 -0.597656 1.421875 -0.453125 C 1.691406 -0.304688 1.984375 -0.234375 2.296875 -0.234375 Z M 2.296875 -0.234375 "/></g></g></g><g fill="#000000" fill-opacity="1"><g transform="translate(227.375172, 100.82012)"><g><path d="M 4.3125 0 L 4.3125 -3.296875 L 2.6875 -0.515625 L 2.5625 -0.515625 L 0.953125 -3.28125 L 0.953125 0 L 0.671875 0 L 0.671875 -3.84375 L 0.90625 -3.84375 L 2.625 -0.875 L 4.34375 -3.84375 L 4.578125 -3.84375 L 4.59375 0 Z M 4.3125 0 "/></g></g></g></svg>