<svg xmlns="http://www.w3.org/2000/svg" xmlns:xlink="http://www.w3.org/1999/xlink" width="500" zoomAndPan="magnify" viewBox="0 0 375 172.499995" height="230" preserveAspectRatio="xMidYMid meet" version="1.0"><defs><g/><clipPath id="9201dfc6d8"><path d="M 1.003906 17.789062 L 372.675781 17.789062 L 372.675781 150.902344 L 1.003906 150.902344 Z M 1.003906 17.789062 " clip-rule="nonzero"/></clipPath><clipPath id="0f9c014cd5"><path d="M 369.851562 36.089844 C 370.105469 35.859375 370.566406 35.832031 370.765625 35.582031 C 371.335938 34.859375 371.8125 34.074219 372.328125 33.316406 C 372.636719 32.863281 372.542969 32.515625 371.988281 32.492188 C 371.296875 32.46875 370.609375 32.582031 369.914062 32.597656 C 368.753906 32.621094 367.585938 32.648438 366.421875 32.597656 C 366.148438 32.582031 365.859375 32.285156 365.628906 32.0625 C 364.660156 31.148438 363.480469 30.90625 362.210938 30.886719 C 360.984375 30.867188 359.738281 30.640625 358.574219 31.269531 C 358.527344 31.289062 358.476562 31.296875 358.429688 31.296875 C 358.378906 31.296875 358.328125 31.289062 358.28125 31.269531 C 357.914062 31.113281 357.347656 31.011719 357.25 30.746094 C 357.15625 30.480469 357.40625 29.949219 357.625 29.628906 C 358.324219 28.609375 359.441406 29.109375 360.378906 28.953125 C 360.921875 28.863281 361.46875 28.78125 362.101562 28.683594 C 361.308594 27.339844 361.394531 27.15625 362.699219 26.84375 C 363.628906 26.621094 364.65625 27.394531 365.542969 26.558594 C 365.601562 26.503906 365.871094 26.605469 366 26.695312 C 366.699219 27.171875 367.039062 26.824219 367.402344 26.003906 C 366.488281 26.003906 365.695312 25.914062 364.929688 26.023438 C 363.546875 26.222656 362.195312 25.824219 360.789062 26.007812 C 359.765625 26.140625 358.636719 25.570312 357.582031 25.234375 C 357.015625 25.054688 356.601562 24.785156 356.246094 25.59375 C 356.125 25.875 355.398438 26.054688 354.984375 25.992188 C 354.386719 25.910156 353.832031 25.464844 353.230469 25.378906 C 352.433594 25.269531 352.003906 24.992188 352.1875 24.101562 L 350.855469 24.101562 C 351.171875 26 350.855469 26.414062 349.253906 26.265625 C 348.964844 26.242188 348.570312 26.078125 348.457031 25.867188 C 348.375 25.707031 348.683594 25.355469 348.796875 25.082031 C 348.90625 24.804688 349.074219 24.539062 349.023438 24.316406 C 348.964844 24.203125 348.882812 24.105469 348.777344 24.035156 C 348.671875 23.96875 348.550781 23.925781 348.425781 23.917969 C 347.851562 23.984375 347.296875 24.1875 346.726562 24.289062 C 346.152344 24.390625 345.542969 24.558594 344.972656 24.488281 C 343.90625 24.367188 342.863281 24.003906 341.800781 23.910156 C 340.53125 23.800781 339.242188 23.894531 337.964844 23.851562 C 337.71875 23.84375 337.480469 23.617188 337.238281 23.488281 L 337.21875 23.148438 L 346.574219 20.558594 L 345.484375 18.21875 C 343.941406 18.597656 342.3125 18.449219 340.863281 17.789062 C 339.609375 18.21875 338.628906 18.824219 337.65625 18.820312 C 336.578125 18.820312 336.0625 19.21875 335.804688 20.085938 C 335.503906 21.066406 334.878906 21.582031 333.933594 21.910156 C 333.304688 22.128906 332.628906 22.457031 332.183594 22.933594 C 331.324219 23.855469 330.25 24.105469 329.101562 24.277344 C 328.675781 24.308594 328.253906 24.394531 327.84375 24.527344 C 327.039062 24.867188 326.28125 25.324219 325.46875 25.644531 C 325.164062 25.761719 324.757812 25.628906 324.398438 25.613281 C 324.539062 25.214844 324.597656 24.757812 324.847656 24.457031 C 324.972656 24.324219 325.125 24.222656 325.292969 24.152344 C 325.460938 24.085938 325.640625 24.054688 325.816406 24.058594 C 327.394531 24.257812 328.605469 23.261719 330.011719 22.878906 C 330.277344 22.808594 330.453125 22.386719 330.671875 22.128906 C 330.375 21.914062 330.101562 21.625 329.769531 21.519531 C 329.523438 21.4375 329.199219 21.585938 328.914062 21.648438 C 328.28125 21.789062 327.589844 22.179688 327.023438 22.046875 C 325.570312 21.707031 324.535156 22.40625 323.425781 23.082031 C 322.90625 23.402344 322.289062 23.851562 321.757812 23.796875 C 321.105469 23.730469 320.839844 24.0625 320.402344 24.332031 C 319.875 24.652344 319.699219 25.699219 318.65625 25.171875 C 318.394531 25.039062 317.660156 25.464844 317.382812 25.820312 C 316.828125 26.539062 316.316406 26.566406 315.523438 26.246094 C 314.933594 26.027344 314.296875 25.984375 313.679688 26.121094 C 313.066406 26.261719 312.484375 26.65625 311.953125 27.011719 C 311.59375 27.25 311.183594 27.570312 311.035156 27.945312 C 310.578125 29.097656 308.808594 29.894531 307.714844 29.292969 C 307.398438 29.085938 307.160156 28.777344 307.046875 28.417969 C 306.75 27.480469 306.542969 26.515625 306.277344 25.480469 C 306.03125 25.558594 305.703125 25.570312 305.640625 25.699219 C 305.105469 26.882812 304.019531 27.136719 302.925781 27.402344 C 302.710938 27.457031 302.433594 27.546875 302.328125 27.714844 C 301.429688 29.070312 300.539062 30.4375 299.71875 31.839844 C 299.628906 31.992188 299.917969 32.390625 300.0625 32.652344 C 300.210938 32.914062 300.4375 33.195312 300.628906 33.464844 C 299.929688 33.835938 299.261719 34.339844 298.515625 34.535156 C 297.976562 34.675781 297.582031 34.226562 297.605469 33.539062 C 297.605469 33.339844 297.304688 32.976562 297.140625 32.976562 C 296.824219 33.007812 296.523438 33.132812 296.273438 33.332031 C 295.898438 33.597656 295.601562 34.003906 295.207031 34.222656 C 294.292969 34.730469 293.277344 34.921875 292.671875 36.035156 C 292.261719 36.792969 291.265625 37.640625 290.46875 37.707031 C 288.757812 37.851562 288.742188 38.980469 288.480469 40.121094 C 288.414062 40.464844 288.234375 40.773438 287.964844 40.996094 C 287.238281 41.488281 286.871094 42.113281 286.90625 42.988281 C 286.9375 43.710938 286.597656 44.160156 285.910156 44.402344 C 285.613281 44.527344 285.320312 44.671875 285.035156 44.835938 C 284.261719 45.222656 283.488281 45.929688 282.71875 45.917969 C 281.660156 45.90625 281.363281 46.457031 281.03125 47.160156 C 279.945312 49.460938 277.855469 50.777344 275.984375 52.304688 C 275.765625 52.484375 275.148438 52.535156 274.988281 52.371094 C 274.421875 51.804688 273.972656 51.117188 273.417969 50.398438 C 273.679688 50.183594 273.921875 49.859375 274.230469 49.765625 C 274.929688 49.550781 275.097656 49.03125 274.75 48.578125 C 274.570312 48.351562 273.714844 48.304688 273.472656 48.523438 C 272.675781 49.238281 271.382812 49.097656 270.789062 50.15625 C 270.691406 50.328125 270.246094 50.386719 269.972656 50.367188 C 268.496094 50.25 267.027344 50.191406 265.648438 49.410156 C 265.117188 49.109375 264.070312 48.8125 263.660156 49.964844 C 263.597656 50.140625 263.28125 50.382812 263.136719 50.351562 C 261.882812 50.082031 261.160156 51.269531 260.023438 51.460938 C 260.257812 51.6875 260.507812 51.835938 260.738281 51.804688 C 262.058594 51.625 263.367188 51.355469 264.691406 51.207031 C 265.527344 51.113281 266.378906 51.1875 267.226562 51.1875 L 267.335938 50.800781 C 267.863281 51.375 268.59375 51.863281 268.851562 52.539062 C 269.113281 53.214844 268.910156 54.089844 268.910156 54.8125 L 271.582031 55.101562 C 271.59375 55.21875 271.605469 55.335938 271.617188 55.453125 C 270.84375 56.214844 270.082031 56.980469 269.289062 57.71875 C 269.121094 57.863281 268.90625 57.949219 268.679688 57.960938 C 267.683594 58.027344 266.996094 58.421875 266.699219 59.460938 C 266.613281 59.742188 266.167969 59.960938 265.847656 60.132812 C 265.140625 60.515625 264.28125 60.714844 263.710938 61.238281 C 262.117188 62.703125 260.328125 63.730469 258.183594 64.15625 C 257.847656 64.222656 257.554688 64.554688 257.253906 64.78125 C 256.78125 65.144531 256.335938 65.546875 255.847656 65.894531 C 255.480469 66.15625 255.054688 66.347656 254.679688 66.589844 C 253.71875 67.199219 252.800781 67.882812 251.796875 68.40625 C 251.453125 68.585938 250.585938 68.523438 250.496094 68.324219 C 249.933594 67.089844 249.519531 65.789062 249.074219 64.507812 C 249.023438 64.363281 249.105469 64.179688 249.101562 64.015625 C 249.101562 63.542969 249.1875 63.03125 249.035156 62.605469 C 248.707031 61.65625 249.121094 60.972656 249.621094 60.257812 C 249.84375 59.964844 250.007812 59.628906 250.09375 59.273438 C 250.347656 57.949219 250.578125 56.636719 251.816406 55.800781 C 251.996094 55.640625 252.148438 55.460938 252.285156 55.265625 C 251.402344 55.15625 250.785156 55.171875 250.28125 55.949219 C 249.644531 56.945312 248.511719 56.746094 248.050781 55.640625 C 247.921875 55.414062 247.765625 55.199219 247.589844 55.003906 C 247.375 55.414062 247.121094 55.683594 247.101562 55.972656 C 246.949219 57.851562 246.148438 59.761719 247.394531 61.578125 C 247.792969 62.164062 247.898438 62.90625 247.28125 63.363281 C 246.621094 63.851562 245.8125 64.136719 245.066406 64.507812 L 244.695312 64.320312 C 244.757812 63.507812 244.789062 62.6875 244.894531 61.878906 C 245.070312 60.460938 245.320312 59.046875 245.476562 57.625 C 245.628906 56.203125 245.675781 54.796875 246.472656 53.546875 C 246.816406 53.003906 246.84375 52.542969 246.089844 52.351562 C 245.414062 52.183594 245.355469 51.6875 245.40625 51.121094 C 245.4375 50.757812 245.582031 50.347656 245.460938 50.042969 C 244.863281 48.539062 244.800781 47.042969 245.03125 45.4375 C 245.230469 44 244.675781 43.695312 243.359375 44.300781 C 243.160156 44.398438 243.027344 44.765625 242.960938 45.03125 C 242.894531 45.292969 243.011719 45.628906 242.910156 45.863281 C 242.648438 46.484375 242.621094 46.980469 243.21875 47.441406 C 243.398438 47.578125 243.539062 48.039062 243.441406 48.203125 C 243.023438 48.882812 243.164062 49.484375 243.421875 50.167969 C 243.761719 51.039062 244.03125 51.9375 244.21875 52.851562 C 244.300781 53.25 244.117188 53.726562 244.007812 54.160156 C 243.828125 54.878906 243.449219 55.59375 243.460938 56.304688 C 243.476562 57.058594 243.96875 57.804688 243.355469 58.546875 C 243.308594 58.601562 243.472656 58.914062 243.609375 59.023438 C 244.40625 59.648438 244.25 60.113281 243.460938 60.628906 C 243.242188 60.773438 243.121094 61.292969 243.183594 61.589844 C 243.351562 62.414062 243.691406 63.203125 243.863281 64.027344 C 243.914062 64.273438 243.699219 64.667969 243.484375 64.835938 C 243.359375 64.9375 242.886719 64.804688 242.742188 64.636719 C 242.296875 64.128906 241.9375 63.539062 241.527344 62.996094 C 240.648438 61.84375 241.117188 60.660156 241.328125 59.429688 C 241.515625 58.207031 241.585938 56.964844 241.535156 55.726562 C 241.496094 54.191406 241.242188 52.660156 241.203125 51.128906 C 241.15625 49.136719 241.769531 47.089844 240.261719 45.277344 C 239.84375 44.78125 239.9375 43.882812 240.550781 43.226562 L 242.273438 44.292969 L 242.460938 44.070312 C 242.34375 43.707031 242.320312 43.273438 242.09375 42.996094 C 241.066406 41.777344 241.328125 40.335938 241.277344 38.9375 C 241.265625 38.511719 241.222656 38.089844 241.144531 37.671875 C 240.945312 36.609375 240.6875 35.558594 240.546875 34.484375 C 240.507812 34.15625 240.722656 33.554688 240.933594 33.488281 C 241.273438 33.394531 241.878906 33.527344 242.066406 33.785156 C 242.515625 34.402344 242.976562 35.117188 243.09375 35.847656 C 243.402344 37.742188 243.492188 39.667969 243.746094 41.578125 C 243.796875 41.960938 244.132812 42.304688 244.34375 42.667969 L 244.617188 42.519531 C 244.617188 41.773438 244.617188 41.023438 244.617188 40.273438 C 244.617188 39.816406 244.601562 39.355469 244.5625 38.898438 C 244.523438 38.5 244.53125 38.050781 244.363281 37.703125 C 243.992188 36.972656 244.5625 36.679688 244.972656 36.476562 C 245.171875 36.371094 245.84375 36.6875 245.929688 36.9375 C 246.5 38.613281 247.535156 40.140625 247.226562 42.097656 C 247.082031 43.007812 247.476562 44.015625 247.683594 44.96875 C 247.984375 46.351562 248.054688 47.710938 247.515625 49.054688 C 247.480469 49.148438 247.480469 49.253906 247.515625 49.347656 C 247.667969 49.699219 247.859375 50.027344 248.089844 50.335938 C 248.152344 50.410156 248.632812 50.308594 248.6875 50.191406 C 248.839844 49.777344 248.949219 49.347656 249.003906 48.90625 C 249.03125 48.632812 249.035156 48.355469 249.015625 48.082031 C 249.015625 47.207031 249.363281 46.121094 248.964844 45.511719 C 248.234375 44.386719 248.15625 43.296875 248.128906 42.050781 C 248.066406 39.449219 247.792969 36.851562 247.683594 34.25 C 247.648438 33.414062 247.4375 32.75 246.734375 32.300781 C 246.183594 31.953125 246.011719 31.488281 246.109375 30.863281 C 246.195312 30.476562 246.210938 30.074219 246.152344 29.683594 C 246.089844 29.410156 245.800781 29.019531 245.566406 28.984375 C 243.492188 28.667969 242.550781 27.246094 241.90625 25.457031 C 241.808594 25.1875 241.40625 24.8125 241.1875 24.839844 C 240.5625 24.921875 239.925781 24.40625 239.300781 24.96875 C 238.894531 25.316406 238.421875 25.578125 237.90625 25.738281 C 235.996094 26.34375 233.949219 26.378906 232.019531 25.839844 C 231.722656 25.761719 231.480469 25.480469 231.207031 25.304688 C 230.734375 25.007812 230.253906 24.722656 229.5 24.269531 C 229.609375 24.808594 229.6875 25.355469 229.742188 25.90625 C 229.75 26.164062 229.691406 26.53125 229.523438 26.652344 C 229.355469 26.773438 228.886719 26.796875 228.742188 26.652344 C 228.386719 26.3125 228.144531 25.855469 227.832031 25.457031 C 227.691406 25.28125 227.488281 25.042969 227.304688 25.035156 C 227.195312 25.058594 227.09375 25.109375 227.003906 25.183594 C 226.917969 25.253906 226.851562 25.34375 226.804688 25.449219 C 226.621094 25.964844 226.308594 26.261719 225.777344 26.085938 C 224.101562 25.53125 223.058594 26.246094 222.230469 27.660156 C 221.925781 28.15625 221.472656 28.542969 220.929688 28.765625 C 219.683594 29.242188 218.363281 29.519531 217.105469 29.976562 C 216.28125 30.273438 216 29.605469 215.613281 29.222656 C 215.507812 29.117188 215.875 28.550781 216.011719 28.183594 C 216.160156 27.753906 216.492188 27.242188 216.375 26.890625 C 216.105469 26.074219 214.878906 25.738281 214.0625 26.117188 C 213.320312 26.445312 212.492188 26.550781 211.691406 26.410156 C 210.890625 26.273438 210.144531 25.902344 209.550781 25.34375 C 209.238281 25.058594 208.433594 25.054688 207.980469 25.230469 C 207.410156 25.457031 206.898438 25.949219 206.476562 26.429688 C 205.902344 27.082031 205.460938 27.847656 204.925781 28.535156 C 204.535156 29.023438 204.121094 29.488281 203.679688 29.929688 C 203.558594 30.058594 203.273438 30.0625 203.191406 30.203125 C 202.378906 31.5625 200.925781 31.957031 199.632812 32.574219 C 198.804688 32.972656 198.597656 32.773438 198.679688 31.820312 C 198.742188 31.121094 198.425781 30.800781 197.75 30.953125 C 197.441406 31.046875 197.15625 31.207031 196.914062 31.421875 C 196.535156 31.734375 196.261719 31.941406 195.722656 31.554688 C 195.433594 31.355469 194.792969 31.488281 194.394531 31.664062 C 194.257812 31.722656 194.375 32.367188 194.382812 32.742188 C 194.382812 33.035156 194.511719 33.511719 194.382812 33.582031 C 194.078125 33.761719 193.71875 33.816406 193.375 33.734375 C 193.042969 33.625 192.796875 33.273438 192.285156 32.828125 C 192.011719 33.378906 191.78125 33.875 191.523438 34.359375 C 191.265625 34.839844 191.0625 35.410156 190.679688 35.769531 C 189.453125 36.921875 188.074219 37.828125 186.40625 38.273438 C 186.140625 38.34375 186.007812 38.953125 185.828125 39.3125 C 186.148438 39.40625 186.464844 39.511719 186.792969 39.585938 C 187.117188 39.660156 187.671875 39.605469 187.707031 39.730469 C 187.839844 40.167969 187.996094 40.726562 187.226562 40.886719 C 186.875 40.972656 186.570312 41.183594 186.363281 41.484375 C 186.066406 41.972656 185.625 42.199219 185.242188 41.894531 C 184.960938 41.667969 184.941406 41.097656 184.824219 40.683594 C 184.757812 40.4375 184.734375 40.183594 184.6875 39.9375 C 184.351562 40.199219 184.289062 40.625 184.171875 40.648438 C 183.160156 40.824219 183.132812 41.8125 182.625 42.390625 C 182.453125 42.589844 182.082031 42.601562 181.8125 42.726562 C 181.488281 42.875 181.175781 43.050781 180.859375 43.214844 C 181.09375 43.46875 181.292969 43.882812 181.574219 43.945312 C 182.292969 44.105469 182.445312 44.542969 182.203125 45.089844 C 181.972656 45.605469 181.671875 46.191406 181.234375 46.484375 C 179.394531 47.710938 177.578125 48.921875 176.742188 51.113281 C 176.703125 51.226562 176.542969 51.292969 176.472656 51.398438 C 176.085938 51.917969 175.753906 52.492188 175.300781 52.945312 C 174.980469 53.269531 174.394531 53.714844 174.109375 53.613281 C 173.113281 53.25 172.914062 54.023438 172.550781 54.535156 C 171.269531 56.328125 169.792969 57.902344 167.785156 58.882812 C 167.65625 59.210938 167.605469 59.664062 167.351562 59.90625 C 166.4375 60.777344 165.449219 61.566406 164.5 62.402344 C 164.039062 62.800781 163.667969 63.398438 163.136719 63.628906 C 162.328125 63.96875 161.859375 64.441406 161.617188 65.277344 C 161.460938 65.710938 161.203125 66.101562 160.867188 66.414062 C 159.742188 67.546875 158.582031 68.644531 157.421875 69.738281 C 157.261719 69.890625 157.011719 69.9375 156.816406 70.066406 C 156.386719 70.332031 155.902344 70.546875 155.558594 70.898438 C 154.476562 71.996094 153.464844 73.160156 152.390625 74.261719 C 152.007812 74.660156 151.519531 74.9375 151.074219 75.257812 C 150.6875 75.539062 150.242188 75.757812 149.917969 76.097656 C 149.238281 76.8125 148.648438 77.613281 147.96875 78.324219 C 147.511719 78.796875 147.007812 79.453125 146.449219 79.539062 C 145.472656 79.683594 145.152344 80.382812 144.617188 80.964844 C 144.160156 81.464844 143.640625 81.90625 143.074219 82.285156 C 142.953125 82.367188 142.351562 82.085938 142.339844 81.925781 C 142.28125 81.144531 142.140625 80.273438 142.402344 79.582031 C 142.839844 78.4375 142.089844 77.527344 142.089844 76.496094 C 142.089844 76.496094 141.96875 76.496094 141.78125 76.480469 C 141.589844 77.453125 141.292969 78.402344 140.898438 79.308594 C 140.476562 80.363281 140.804688 81.777344 141 83.003906 C 141.136719 83.871094 140.777344 84.996094 140.003906 85.460938 C 139.40625 85.824219 138.921875 86.347656 138.359375 86.757812 C 137.996094 86.992188 137.621094 87.207031 137.234375 87.398438 C 137.097656 87.03125 136.871094 86.671875 136.835938 86.292969 C 136.75 85.472656 136.867188 84.621094 136.679688 83.832031 C 136.5625 83.34375 135.769531 82.941406 135.78125 82.523438 C 135.796875 82.101562 136.433594 81.691406 136.863281 81.203125 C 135.832031 81.140625 135.449219 80.605469 135.570312 79.664062 C 135.929688 76.890625 136.367188 74.125 136.597656 71.339844 C 136.796875 68.96875 136.796875 66.574219 136.832031 64.191406 C 136.832031 63.753906 136.632812 63.3125 136.53125 62.867188 L 135.894531 62.945312 C 135.667969 61.09375 135.667969 61.09375 134.898438 61.257812 C 134.664062 63.292969 134.664062 63.292969 136.175781 63.914062 C 136.28125 65.488281 136.269531 65.460938 134.929688 65.9375 C 134.78125 66.019531 134.652344 66.128906 134.550781 66.265625 C 134.453125 66.402344 134.386719 66.558594 134.355469 66.722656 C 134.367188 66.882812 134.417969 67.03125 134.5 67.164062 C 134.585938 67.300781 134.699219 67.410156 134.835938 67.488281 C 135.617188 67.820312 135.503906 68.484375 135.359375 69.007812 C 135.261719 69.367188 134.804688 69.84375 134.464844 69.882812 C 133.617188 69.976562 133.195312 70.425781 133.582031 71.1875 C 134.175781 72.382812 134.652344 73.578125 134.230469 74.953125 C 133.898438 76.039062 133.730469 77.195312 133.25 78.210938 C 132.683594 79.417969 132.636719 80.121094 133.527344 81.027344 C 134.324219 81.839844 134.226562 82.621094 133.300781 83.300781 C 133.027344 83.5 132.703125 83.8125 132.664062 84.109375 C 132.359375 86.148438 132.148438 88.171875 133.613281 89.953125 C 134.125 90.574219 133.800781 91.492188 133.195312 91.8125 C 132.589844 92.164062 132.015625 92.566406 131.472656 93.007812 C 131.191406 93.222656 130.992188 93.585938 130.675781 93.730469 C 129.878906 94.097656 129.0625 94.421875 128.230469 94.703125 C 128.03125 94.773438 127.59375 94.710938 127.542969 94.59375 C 127.261719 93.933594 126.871094 93.238281 126.882812 92.558594 C 126.941406 91.050781 127.085938 89.546875 127.316406 88.050781 C 127.59375 86.015625 128.003906 83.996094 128.222656 81.953125 C 128.382812 80.441406 128.3125 78.910156 128.382812 77.386719 C 128.421875 76.601562 128.109375 76.355469 127.523438 76.523438 C 127.113281 77.214844 126.835938 77.859375 126.402344 78.367188 C 125.722656 79.164062 125.71875 79.769531 126.46875 80.582031 C 126.707031 80.851562 126.835938 81.199219 126.832031 81.554688 C 126.75 82.699219 126.605469 83.839844 126.390625 84.96875 C 126.339844 85.238281 125.890625 85.421875 125.652344 85.667969 C 125.371094 85.960938 124.9375 86.265625 124.886719 86.605469 C 124.691406 88.027344 124.671875 89.484375 124.445312 90.90625 C 124.222656 92.300781 123.824219 93.664062 123.496094 95.035156 C 123.496094 95.0625 123.390625 95.070312 123.191406 95.121094 C 123.179688 94.707031 123.128906 94.296875 123.039062 93.894531 C 122.878906 93.507812 122.6875 93.132812 122.460938 92.777344 C 121.683594 93.300781 121.25 93.773438 121.734375 94.644531 C 121.875 94.976562 121.914062 95.347656 121.84375 95.703125 C 121.769531 96.253906 121.328125 96.578125 120.859375 96.328125 C 120.578125 96.175781 120.367188 95.605469 120.394531 95.25 C 120.425781 94.890625 120.867188 94.625 121.011719 94.273438 C 121.113281 94.03125 121.09375 93.5 120.988281 93.457031 C 119.898438 93.035156 119.273438 92.367188 119.511719 91.121094 C 119.527344 91.039062 119.410156 90.941406 119.402344 90.851562 C 119.371094 90.320312 119.371094 89.785156 119.402344 89.257812 C 119.472656 88.789062 119.570312 88.328125 119.699219 87.871094 C 120.980469 87.65625 121.492188 86.109375 120.753906 84.210938 C 120.757812 84.398438 120.742188 84.582031 120.703125 84.765625 C 120.386719 85.507812 120.226562 86.640625 119.679688 86.886719 C 118.851562 87.253906 118.546875 87.9375 118.546875 88.457031 C 118.546875 90.820312 118.746094 93.179688 118.847656 95.542969 C 118.863281 95.875 118.792969 96.359375 118.578125 96.511719 C 118.417969 96.597656 118.238281 96.652344 118.054688 96.664062 C 117.867188 96.675781 117.683594 96.644531 117.511719 96.578125 C 115.953125 95.894531 115.617188 94.433594 115.324219 92.953125 C 115.125 91.941406 115.023438 90.875 114.617188 89.949219 C 114.101562 88.773438 113.933594 87.816406 115.121094 87.03125 C 114.789062 86.371094 114.453125 85.917969 114.359375 85.417969 C 114.21875 84.707031 114.277344 83.960938 114.242188 83.226562 C 114.195312 82.34375 114.011719 81.441406 114.136719 80.585938 C 114.242188 79.886719 114.609375 79.265625 114.078125 78.574219 C 113.953125 78.414062 114.039062 78.058594 114.078125 77.800781 C 114.214844 76.945312 114.464844 76.101562 114.519531 75.242188 C 114.664062 73.050781 114.546875 70.867188 114.800781 68.652344 C 115.113281 65.890625 115.828125 63.136719 115.511719 60.292969 C 115.371094 59.054688 115.621094 57.78125 115.613281 56.523438 C 115.613281 56.027344 115.386719 55.535156 115.304688 55.21875 L 112.519531 56.433594 C 112.609375 56.609375 112.757812 56.894531 112.902344 57.1875 C 113.042969 57.476562 113.3125 57.773438 113.296875 58.054688 C 113.214844 59.429688 113.265625 60.867188 112.855469 62.152344 C 112.507812 63.257812 112.667969 64.070312 113.128906 65.027344 C 113.636719 66.070312 113.238281 67.039062 112.265625 67.523438 C 111.734375 67.785156 110.507812 67.382812 110.214844 66.605469 C 109.789062 65.480469 109.363281 64.246094 109.402344 63.070312 C 109.488281 60.125 109.808594 57.1875 110.097656 54.253906 C 110.21875 53.363281 110.414062 52.480469 110.679688 51.621094 C 110.726562 51.457031 111.007812 51.316406 111.207031 51.242188 C 112.148438 50.890625 113.300781 51.480469 113.949219 52.625 C 114.273438 53.195312 115.125 53.460938 115.367188 53.023438 C 115.6875 52.464844 115.902344 51.855469 116 51.21875 C 116.199219 49.859375 116.085938 48.429688 116.457031 47.132812 C 116.757812 46.054688 117.03125 45.035156 117.054688 43.90625 C 117.054688 43.539062 117.609375 43.183594 117.890625 42.804688 C 118.167969 42.429688 118.46875 42.113281 118.617188 41.714844 C 118.957031 40.789062 119.046875 39.710938 120.238281 39.402344 C 120.695312 39.285156 121.417969 39.003906 121.589844 39.191406 C 122.675781 40.363281 123.230469 39.542969 123.863281 38.734375 C 124.085938 38.449219 124.4375 38.257812 124.621094 37.957031 C 124.800781 37.65625 124.996094 37.210938 124.878906 36.972656 C 124.347656 35.878906 124.730469 35.164062 125.578125 34.441406 C 126.246094 33.871094 126.066406 33.183594 125.296875 32.882812 C 124.527344 32.582031 124.484375 32.085938 125.035156 31.46875 C 125.300781 31.171875 125.417969 30.726562 125.550781 30.332031 C 125.789062 29.625 125.96875 28.898438 126.238281 28.203125 C 126.265625 28.128906 126.730469 28.179688 126.976562 28.242188 C 127.722656 28.441406 128.3125 29.269531 129.179688 28.839844 C 129.253906 28.242188 129.292969 27.679688 129.394531 27.136719 C 129.566406 26.191406 129.019531 25.632812 128.089844 25.898438 C 127.191406 26.15625 126.308594 26.476562 125.429688 26.796875 C 124.328125 27.195312 123.242188 27.652344 122.136719 28.027344 C 121.851562 28.121094 121.496094 27.996094 121.171875 27.976562 C 121.34375 27.664062 121.460938 27.300781 121.699219 27.050781 C 122.121094 26.652344 122.5625 26.273438 123.023438 25.921875 C 122.542969 25.675781 122 25.578125 121.464844 25.636719 C 120.929688 25.691406 120.421875 25.90625 120.003906 26.25 C 118.625 27.386719 117.03125 27.300781 115.296875 27.195312 L 116.140625 25.589844 L 115.953125 25.332031 C 115.480469 25.488281 114.925781 25.53125 114.558594 25.828125 C 113.695312 26.523438 112.941406 27.355469 112.109375 28.09375 C 111.847656 28.328125 111.417969 28.652344 111.175781 28.578125 C 110.195312 28.273438 109.78125 28.976562 109.1875 29.472656 C 107.914062 30.546875 106.550781 30.921875 104.917969 30.15625 C 104.433594 29.929688 103.6875 30.136719 103.097656 30.285156 C 101.902344 30.578125 100.761719 31.039062 99.929688 32.039062 C 99.835938 32.148438 99.621094 32.140625 99.488281 32.238281 C 99.070312 32.472656 98.675781 32.75 98.308594 33.066406 C 97.363281 33.992188 96.464844 34.964844 95.523438 35.90625 C 95.386719 35.996094 95.230469 36.050781 95.066406 36.074219 C 94.351562 36.273438 93.640625 36.511719 92.914062 36.671875 C 92.601562 36.738281 92.160156 36.773438 91.945312 36.605469 C 91.222656 36.046875 90.4375 35.492188 89.933594 34.757812 C 88.699219 32.964844 85.191406 33.019531 83.746094 34.914062 C 83.148438 35.6875 82.074219 36.109375 81.1875 36.628906 C 80.558594 36.996094 79.820312 37.195312 79.230469 37.605469 C 78.25 38.285156 77.40625 39.167969 76.394531 39.777344 C 75.847656 40.109375 75.050781 39.976562 74.402344 40.175781 C 73.054688 40.550781 71.785156 41.082031 71 42.371094 C 70.917969 42.503906 70.660156 42.523438 70.484375 42.605469 C 70.144531 42.769531 69.738281 42.867188 69.492188 43.121094 C 69.007812 43.605469 68.707031 44.316406 68.164062 44.683594 C 67.253906 45.3125 66.171875 45.679688 65.238281 46.289062 C 64.1875 46.976562 63.480469 48.148438 62.152344 48.457031 C 62.105469 48.476562 62.0625 48.503906 62.027344 48.542969 C 61.996094 48.582031 61.96875 48.628906 61.953125 48.675781 C 61.769531 49.578125 61.058594 49.925781 60.347656 50.347656 C 59.875 50.628906 59.566406 51.09375 58.886719 50.980469 C 58.699219 50.949219 58.320312 51.394531 58.214844 51.6875 C 57.804688 52.820312 56.839844 53.351562 55.871094 53.738281 C 55.335938 53.957031 54.972656 54.082031 54.75 54.652344 C 54.640625 54.945312 54.136719 55.351562 53.933594 55.292969 C 53.035156 55.027344 53.050781 55.878906 52.636719 56.195312 C 52.226562 56.511719 51.699219 56.773438 51.246094 57.074219 C 51.1875 57.113281 51.246094 57.285156 51.179688 57.355469 C 50.6875 58.015625 50.214844 58.667969 49.28125 58.804688 C 48.875 58.886719 48.511719 59.109375 48.253906 59.429688 C 47.203125 60.757812 45.988281 61.832031 44.359375 62.40625 C 44.246094 62.464844 44.144531 62.546875 44.0625 62.644531 C 43.980469 62.746094 43.917969 62.859375 43.882812 62.984375 C 43.5 64.179688 42.429688 64.605469 41.492188 65.207031 C 41 65.519531 40.527344 65.867188 40.082031 66.246094 C 39.835938 66.457031 39.683594 66.773438 39.460938 67.007812 C 37.78125 68.769531 35.992188 70.4375 34.4375 72.304688 C 33.183594 73.804688 32.222656 75.550781 31.105469 77.167969 C 30.867188 77.507812 30.492188 77.75 30.203125 78.058594 C 29.699219 78.601562 29.152344 79.117188 28.742188 79.726562 C 28.335938 80.335938 28.175781 81.039062 27.796875 81.632812 C 27.164062 82.628906 26.480469 83.589844 25.746094 84.515625 C 25.292969 85.085938 24.6875 85.53125 24.1875 86.070312 C 23.847656 86.402344 23.5625 86.792969 23.355469 87.222656 C 22.9375 88.21875 22.640625 89.242188 21.507812 89.757812 C 21.222656 89.886719 20.960938 90.554688 21.042969 90.894531 C 21.199219 91.519531 20.953125 91.804688 20.539062 92.136719 C 19.515625 92.964844 18.726562 93.878906 18.703125 95.355469 C 18.691406 96.042969 18.242188 96.773438 17.851562 97.398438 C 17.105469 98.59375 16.222656 99.707031 15.460938 100.894531 C 14.636719 102.191406 13.898438 103.542969 13.09375 104.855469 C 12.480469 105.851562 10.835938 106.023438 10.867188 107.574219 C 10.867188 107.648438 10.648438 107.710938 10.566406 107.804688 C 10.28125 108.152344 10.035156 108.539062 9.71875 108.855469 C 9.457031 109.121094 9.101562 109.289062 8.8125 109.53125 C 8.3125 109.949219 7.761719 110.328125 7.359375 110.832031 C 6.625 111.75 6.1875 113.164062 5.257812 113.609375 C 3.664062 114.371094 3.808594 116.199219 2.574219 117.046875 C 2.535156 117.078125 2.535156 117.171875 2.515625 117.234375 C 2.316406 117.933594 2.234375 118.699219 1.898438 119.328125 C 0.988281 121.054688 0.542969 122.78125 1.6875 124.539062 C 2.371094 125.554688 3.121094 126.527344 3.933594 127.445312 C 4.390625 127.976562 4.976562 128.394531 5.5 128.867188 C 5.933594 129.265625 6.328125 129.703125 6.796875 130.050781 C 8.488281 131.304688 10.53125 131.300781 12.484375 131.472656 C 13.386719 131.550781 14.328125 131.203125 15.238281 131.011719 C 16.152344 130.824219 17.074219 130.738281 17.875 130.355469 C 19.179688 129.730469 20.394531 128.914062 21.628906 128.160156 C 22.335938 127.726562 23.023438 127.257812 23.695312 126.765625 C 24.558594 126.15625 25.390625 125.503906 26.183594 124.8125 C 27.007812 124.0625 27.6875 123.15625 28.527344 122.421875 C 29.902344 121.226562 31.394531 120.152344 32.773438 118.953125 C 33.746094 118.105469 34.5625 117.078125 35.535156 116.234375 C 36.234375 115.636719 37.074219 115.183594 37.859375 114.675781 C 38.457031 114.289062 39.113281 113.96875 39.675781 113.527344 C 40.773438 112.664062 41.820312 111.734375 42.890625 110.839844 C 42.988281 110.761719 43.148438 110.773438 43.261719 110.707031 C 44.253906 110.125 45.339844 109.640625 46.230469 108.914062 C 47.699219 107.71875 49.613281 107.285156 50.96875 105.863281 C 51.765625 105.042969 53.0625 104.75 54.042969 104.070312 C 55.90625 102.796875 57.710938 101.429688 59.53125 100.085938 C 60.84375 99.121094 62.171875 98.179688 63.433594 97.152344 C 64.800781 96.039062 66.121094 94.863281 67.414062 93.671875 C 68.273438 92.890625 69.03125 92.003906 69.894531 91.230469 C 70.453125 90.738281 71.066406 90.3125 71.722656 89.957031 C 72.304688 89.636719 73.367188 90.089844 73.441406 90.679688 C 73.566406 91.585938 73.628906 92.503906 73.625 93.417969 C 73.625 94.757812 73.53125 96.097656 73.476562 97.4375 C 73.460938 97.800781 73.582031 98.234375 73.414062 98.515625 C 72.523438 99.980469 72.710938 101.703125 72.558594 103.242188 C 72.359375 105.253906 71.664062 107.121094 71.433594 109.09375 C 71.355469 109.757812 70.917969 110.429688 71.007812 111.046875 C 71.136719 111.921875 70.996094 112.816406 70.597656 113.609375 C 70.417969 114.007812 70.519531 114.515625 70.488281 115.082031 C 70.992188 114.65625 71.253906 114.269531 71.59375 114.179688 C 72.554688 113.921875 73.871094 114.996094 73.929688 115.992188 C 73.949219 116.253906 73.996094 116.515625 74.03125 116.773438 C 74.179688 117.804688 74.445312 118.832031 74.449219 119.859375 C 74.449219 121.003906 74.21875 122.144531 74.085938 123.285156 C 73.886719 124.957031 72.445312 125.730469 70.910156 125.023438 C 70.648438 124.917969 70.359375 124.917969 70.097656 125.023438 C 69.101562 125.460938 68.875 126.191406 69.433594 127.285156 C 69.84375 128.082031 69.875 128.664062 68.820312 128.910156 C 68.664062 128.945312 68.585938 129.292969 68.453125 129.527344 C 68.535156 129.558594 68.625 129.582031 68.710938 129.597656 C 69.375 129.488281 70.007812 129.523438 70.246094 130.285156 C 70.46875 130.996094 69.976562 131.191406 69.40625 131.339844 C 69.304688 131.367188 69.179688 131.859375 69.265625 131.9375 C 69.75 132.417969 70.292969 132.839844 70.859375 133.316406 C 70.980469 133.199219 71.164062 132.917969 71.417969 132.8125 C 71.675781 132.707031 72.214844 132.558594 72.328125 132.691406 C 72.757812 133.171875 73.382812 133.777344 73.359375 134.308594 C 73.296875 135.777344 74.03125 136.996094 74.257812 138.335938 C 74.457031 139.496094 74.890625 140.507812 75.328125 141.554688 C 75.476562 141.910156 75.582031 142.285156 75.699219 142.652344 C 75.933594 143.382812 76.003906 144.132812 76.65625 144.738281 C 77.34375 145.425781 77.933594 146.207031 78.40625 147.0625 C 79.050781 148.148438 79.574219 148.507812 80.777344 148.257812 C 81.753906 148.058594 82.699219 147.796875 83.648438 148.347656 C 83.796875 148.433594 84.046875 148.367188 84.238281 148.347656 C 85.453125 148.179688 86.667969 148 87.878906 147.828125 C 87.945312 147.824219 88.011719 147.800781 88.066406 147.765625 C 88.875 147.058594 89.511719 147.351562 90.21875 148.003906 C 91.039062 148.761719 91.066406 148.832031 90.136719 149.414062 C 89.96875 149.523438 89.9375 149.851562 89.835938 150.078125 C 90.5625 150.300781 91.382812 150.855469 91.988281 150.675781 C 93.261719 150.292969 94.28125 149.160156 95.769531 149.28125 C 95.851562 149.269531 95.933594 149.242188 96.003906 149.199219 C 96.074219 149.15625 96.136719 149.097656 96.183594 149.027344 C 96.933594 148.007812 98.15625 147.859375 99.191406 147.359375 C 99.539062 147.191406 99.875 146.960938 100.246094 146.886719 C 101.453125 146.65625 102.667969 146.464844 103.882812 146.300781 C 104.394531 146.234375 105.011719 146.449219 105.417969 146.226562 C 106.488281 145.648438 107.46875 144.894531 108.503906 144.234375 C 108.726562 144.089844 109.171875 143.894531 109.253906 143.976562 C 109.988281 144.738281 110.398438 144.046875 111.007812 143.746094 C 112.027344 143.246094 111.996094 142.214844 112.488281 141.464844 C 112.660156 141.199219 112.992188 140.867188 113.25 140.867188 C 113.605469 140.867188 114.113281 141.066406 114.28125 141.339844 C 114.777344 142.167969 115.140625 141.890625 115.75 141.449219 C 116.363281 141.007812 117.160156 140.570312 117.917969 140.472656 C 118.984375 140.332031 119.488281 139.761719 119.976562 138.910156 C 120.507812 137.988281 121.03125 136.976562 122.125 136.578125 C 122.324219 136.507812 122.757812 136.753906 122.902344 136.976562 C 123.277344 137.550781 124.003906 137.703125 124.417969 137.144531 C 124.652344 136.792969 124.808594 136.390625 124.878906 135.972656 C 125.078125 135.023438 126.601562 133.761719 127.46875 134.109375 C 128.597656 134.558594 129.457031 134.308594 130.355469 133.640625 C 130.503906 133.53125 130.742188 133.554688 130.917969 133.472656 C 131.714844 133.09375 132.566406 132.710938 132.550781 131.660156 C 132.550781 131.230469 131.941406 130.761719 132.800781 130.511719 C 133.191406 130.375 133.570312 130.21875 133.941406 130.035156 C 134.195312 130.476562 134.328125 130.960938 134.523438 130.988281 C 134.808594 131.027344 135.167969 130.789062 135.449219 130.589844 C 135.613281 130.46875 135.648438 130.191406 135.796875 130.019531 C 135.945312 129.851562 136.121094 129.621094 136.328125 129.5625 C 137.5625 129.25 138.785156 128.945312 139.675781 127.910156 C 139.84375 127.710938 140.175781 127.65625 140.4375 127.542969 C 140.800781 127.386719 141.320312 127.34375 141.503906 127.0625 C 142.535156 125.5625 144.246094 125.554688 145.722656 125.125 C 147.410156 124.636719 149.105469 124.285156 150.261719 122.777344 C 150.371094 122.640625 150.683594 122.664062 150.902344 122.605469 C 151.855469 122.351562 152.839844 122.179688 153.757812 121.828125 C 154.671875 121.476562 155.523438 120.902344 156.4375 120.511719 C 157.078125 120.234375 157.855469 120.222656 158.4375 119.871094 C 160.410156 118.695312 162.324219 117.417969 164.378906 116.109375 C 164.617188 116.597656 164.945312 116.960938 164.960938 117.335938 C 165.054688 119.730469 164.761719 122.144531 165.644531 124.46875 C 165.871094 125.066406 165.820312 125.828125 166.179688 126.304688 C 167.394531 127.921875 168.765625 129.425781 170.023438 131.011719 C 171.207031 132.496094 172.390625 133.972656 173.855469 135.183594 C 174.277344 135.535156 174.75 135.828125 175.25 136.050781 C 175.964844 136.355469 176.722656 136.550781 177.453125 136.820312 C 178.738281 137.296875 180 137.839844 181.296875 138.273438 C 183.03125 138.851562 184.785156 139.375 186.546875 139.867188 C 187.613281 140.167969 188.933594 140.066406 189.46875 139.269531 C 190.125 138.300781 191.164062 138.15625 191.804688 137.339844 C 193.164062 139.507812 193.820312 139.503906 195.847656 139.449219 C 196.246094 139.4375 196.644531 139.449219 197.042969 139.449219 C 198.019531 139.449219 199.035156 139.625 199.773438 138.667969 C 199.941406 138.449219 200.441406 138.46875 200.796875 138.425781 C 201.148438 138.382812 201.53125 138.4375 201.882812 138.371094 C 203.34375 138.085938 204.789062 137.703125 206.261719 137.488281 C 207.964844 137.242188 209.699219 137.199219 211.398438 136.941406 C 212.320312 136.800781 213.191406 136.300781 214.105469 136.144531 C 214.90625 135.984375 215.648438 135.625 216.269531 135.101562 C 216.46875 134.941406 216.953125 134.96875 217.21875 135.101562 C 217.832031 135.40625 218.511719 135.5625 219.195312 135.5625 C 219.878906 135.558594 220.554688 135.394531 221.167969 135.085938 C 221.753906 134.832031 222.371094 134.640625 222.996094 134.515625 C 223.847656 134.316406 224.640625 134.148438 225.03125 133.160156 C 225.285156 132.519531 225.785156 131.957031 226.253906 131.421875 C 226.78125 130.8125 227.117188 130.921875 227.417969 131.644531 C 227.542969 131.886719 227.699219 132.109375 227.882812 132.3125 C 228.558594 132.191406 229.03125 132.015625 229.488281 132.046875 C 231.351562 132.167969 233.210938 131.824219 234.910156 131.050781 C 236.332031 130.410156 237.773438 129.855469 239.429688 129.992188 C 240.167969 130.050781 240.964844 129.59375 241.699219 129.28125 C 242.535156 128.929688 243.316406 128.4375 244.152344 128.085938 C 245.628906 127.46875 247.136719 126.917969 248.621094 126.328125 C 249.632812 125.929688 250.613281 125.285156 251.652344 125.148438 C 252.824219 124.988281 253.746094 124.621094 254.585938 123.8125 C 255.421875 123 256.332031 122.253906 257.589844 122.085938 C 258.347656 121.953125 259.09375 121.765625 259.820312 121.519531 C 261.265625 121.082031 262.324219 120.023438 263.308594 119 C 264.621094 117.636719 266.058594 116.925781 267.9375 117.164062 C 268.796875 117.273438 269.480469 117.023438 270.015625 116.320312 C 270.214844 116.070312 270.496094 115.78125 270.78125 115.722656 C 271.972656 115.496094 273.167969 115.347656 274.382812 115.171875 C 275.496094 115.03125 276.507812 114.449219 277.195312 113.558594 C 277.46875 113.207031 277.554688 112.613281 277.894531 112.425781 C 279.308594 111.613281 280.769531 110.890625 282.273438 110.257812 C 283.816406 109.628906 285.503906 109.328125 287.007812 108.625 C 288.929688 107.730469 290.847656 106.730469 292.542969 105.476562 C 293.824219 104.527344 295.332031 104.410156 296.65625 103.738281 C 297.292969 103.414062 298.113281 103.472656 298.796875 103.21875 C 300.242188 102.675781 301.640625 102.023438 303.082031 101.460938 C 303.832031 101.167969 304.609375 100.949219 305.402344 100.8125 C 306.199219 100.6875 307.0625 100.828125 307.851562 100.660156 C 309.558594 100.285156 311.234375 99.746094 312.933594 99.351562 C 314.59375 98.96875 316.269531 98.660156 317.941406 98.355469 C 319.082031 98.148438 320.238281 98.003906 321.382812 97.820312 C 321.539062 97.769531 321.6875 97.710938 321.832031 97.636719 C 322.648438 97.367188 323.464844 97.085938 324.289062 96.839844 C 325.066406 96.617188 325.90625 96.554688 326.632812 96.226562 C 328.304688 95.476562 329.878906 94.488281 331.582031 93.835938 C 333.078125 93.253906 333.636719 92.007812 333.679688 90.777344 C 333.746094 89.050781 334.320312 87.5625 334.886719 86.015625 C 334.992188 85.660156 334.953125 85.277344 334.773438 84.953125 C 334.335938 84.234375 334.472656 83.640625 334.8125 82.914062 C 335.367188 81.734375 336.628906 81.9375 337.316406 81.46875 C 337.570312 80.210938 337.714844 79.0625 338.054688 77.96875 C 338.222656 77.410156 338.574219 76.929688 339.050781 76.601562 C 340.09375 75.976562 341.242188 75.535156 342.339844 74.988281 C 342.429688 74.921875 342.507812 74.839844 342.558594 74.742188 C 342.609375 74.648438 342.640625 74.539062 342.640625 74.429688 C 342.601562 73.851562 342.796875 73.515625 343.394531 73.527344 C 343.742188 73.550781 344.089844 73.59375 344.429688 73.660156 L 344.585938 74.058594 C 345.230469 73.453125 345.898438 72.863281 346.511719 72.230469 C 346.867188 71.851562 347.179688 71.433594 347.453125 70.992188 C 347.636719 70.667969 347.800781 70.335938 347.941406 69.996094 C 347.484375 69.957031 347.003906 69.8125 346.578125 69.914062 C 345.847656 70.085938 345.152344 70.410156 344.324219 70.710938 C 344.414062 70.441406 344.457031 70.296875 344.507812 70.152344 C 344.5625 70.011719 344.628906 69.871094 344.707031 69.71875 C 343.546875 69.507812 343.574219 69.519531 343.0625 70.449219 C 342.929688 70.6875 342.480469 70.984375 342.304688 70.917969 C 341.449219 70.585938 340.847656 70.890625 340.148438 71.386719 C 339.230469 72.042969 338.3125 71.535156 338.503906 70.441406 C 338.703125 69.3125 339.214844 68.226562 339.683594 67.164062 C 339.777344 66.972656 339.90625 66.800781 340.066406 66.660156 C 340.226562 66.523438 340.414062 66.417969 340.613281 66.351562 C 340.890625 66.285156 341.273438 66.65625 341.730469 66.898438 C 341.417969 65.679688 341.835938 64.863281 343.050781 64.554688 C 342.183594 63.410156 342.253906 63.300781 343.582031 62.917969 C 344.453125 62.667969 345.496094 62.460938 346.0625 61.859375 C 346.632812 61.257812 347.105469 60.988281 347.855469 60.910156 C 348.328125 60.863281 348.785156 60.605469 349.230469 60.40625 C 350.878906 59.671875 352.515625 58.910156 354.164062 58.171875 C 354.804688 57.886719 355.464844 57.644531 356.109375 57.375 C 357.050781 56.976562 357.992188 56.597656 358.917969 56.179688 C 359.132812 56.054688 359.308594 55.875 359.433594 55.660156 C 359.46875 55.605469 359.285156 55.304688 359.203125 55.300781 C 358.929688 55.300781 358.503906 55.285156 358.40625 55.445312 C 357.683594 56.589844 356.753906 55.898438 356.234375 55.472656 C 355.613281 54.964844 355.050781 55.085938 354.640625 55.347656 C 352.960938 56.421875 351.238281 56.34375 349.425781 55.851562 C 349.015625 55.757812 348.582031 55.808594 348.203125 55.996094 C 347.007812 56.644531 345.84375 57.253906 344.445312 56.59375 C 344.289062 56.523438 344.046875 56.59375 343.859375 56.632812 C 343.183594 56.742188 342.507812 56.933594 341.832031 56.949219 C 341.3125 56.960938 340.789062 56.75 340.265625 56.644531 C 340.265625 56.488281 340.28125 56.335938 340.289062 56.179688 C 341.164062 56.015625 342.050781 55.90625 342.90625 55.675781 C 344.296875 55.296875 345.769531 55.039062 347 54.351562 C 348.195312 53.6875 349.441406 53.597656 350.667969 53.292969 C 351.65625 53.074219 352.566406 52.589844 353.300781 51.898438 C 352.863281 51.832031 352.636719 51.742188 352.433594 51.777344 C 351.175781 51.976562 349.929688 52.238281 348.667969 52.421875 C 348.1875 52.496094 347.6875 52.421875 347.046875 52.421875 C 347.527344 51.390625 348.078125 51.066406 348.859375 51.324219 C 349.441406 51.511719 349.722656 51.261719 350.109375 50.847656 C 351.035156 49.867188 351.691406 48.359375 353.496094 48.792969 C 353.628906 48.804688 353.761719 48.773438 353.875 48.699219 C 354.613281 48.300781 355.34375 47.902344 356.183594 47.445312 C 355.832031 47.394531 355.472656 47.367188 355.117188 47.363281 C 354.445312 47.394531 354.03125 47.214844 354.121094 46.550781 L 360.378906 44.292969 C 360.210938 43.585938 359.917969 43.070312 360.035156 42.679688 C 360.234375 42.035156 360.855469 41.882812 361.558594 41.832031 C 362.171875 41.789062 362.761719 41.417969 363.367188 41.199219 C 363.6875 41.066406 364.019531 40.960938 364.359375 40.890625 C 365.574219 40.691406 366.792969 40.539062 368.007812 40.355469 C 368.128906 40.335938 368.230469 40.21875 368.347656 40.164062 C 368.910156 39.914062 369.457031 39.542969 370.046875 39.453125 C 370.964844 39.308594 371.289062 38.742188 371.542969 37.933594 C 371.035156 37.90625 370.601562 37.820312 370.1875 37.878906 C 369.484375 37.972656 369.257812 37.472656 369.226562 37.011719 C 369.222656 36.710938 369.578125 36.335938 369.851562 36.089844 Z M 77.449219 99.777344 C 77.222656 100.957031 76.816406 102.097656 76.53125 103.265625 C 76.441406 103.746094 76.394531 104.234375 76.386719 104.722656 C 76.328125 105.632812 76.28125 106.542969 76.214844 107.808594 C 76.730469 108.515625 76.746094 109.761719 75.972656 110.265625 C 75.460938 110.601562 75.035156 110.347656 74.449219 109.355469 C 74.390625 109.363281 74.332031 109.378906 74.28125 109.410156 C 73.929688 109.714844 73.585938 110.03125 73.242188 110.34375 C 73.085938 109.917969 72.898438 109.503906 72.679688 109.105469 C 72.03125 108.109375 72.988281 107.300781 72.953125 106.367188 C 72.898438 105.023438 72.851562 103.695312 73.832031 102.527344 C 74.535156 101.695312 74.457031 100.585938 74.429688 99.523438 C 74.414062 98.839844 74.753906 98.246094 75.539062 98.28125 C 76.839844 98.339844 77.613281 98.933594 77.449219 99.777344 Z M 87.605469 108.5625 C 86.925781 106.816406 87.390625 105.351562 87.96875 103.640625 C 88.648438 105.8125 88.59375 106.511719 87.609375 108.5625 Z M 185.828125 134.210938 C 187.398438 133.5 187.398438 133.5 188.339844 134.660156 C 187.417969 135.394531 186.835938 135.304688 185.832031 134.210938 Z M 216.921875 133.453125 C 216.796875 133.390625 216.691406 133.304688 216.605469 133.195312 C 216.519531 133.085938 216.457031 132.960938 216.421875 132.828125 C 216.402344 132.679688 216.75 132.351562 216.941406 132.34375 C 217.132812 132.339844 217.316406 132.640625 217.636719 132.925781 C 217.308594 133.183594 217.023438 133.503906 216.925781 133.453125 Z M 238.476562 57.113281 C 238.460938 57.34375 238.027344 57.546875 237.78125 57.761719 L 237.046875 56.902344 L 237.28125 56.78125 C 237.28125 55.925781 237.234375 55.0625 237.308594 54.210938 C 237.332031 53.929688 237.65625 53.671875 237.847656 53.402344 C 238.058594 53.628906 238.445312 53.839844 238.460938 54.078125 C 238.542969 55.085938 238.546875 56.101562 238.480469 57.113281 Z M 245.488281 65.554688 C 245.664062 65.523438 246.101562 65.898438 246.085938 66.054688 C 246.050781 66.34375 245.828125 66.734375 245.582031 66.835938 C 245.40625 66.90625 245.066406 66.570312 244.585938 66.285156 C 245.011719 65.921875 245.230469 65.601562 245.488281 65.554688 Z M 246.097656 71.203125 C 245.453125 71.457031 244.9375 71.355469 244.539062 70.679688 C 244.328125 70.351562 244.003906 70.113281 243.628906 70.007812 C 242.9375 69.832031 242.75 69.410156 242.988281 68.851562 C 243.253906 68.214844 243.097656 67.273438 244.203125 67.015625 C 244.335938 67.378906 244.441406 67.675781 244.554688 67.992188 L 245.902344 67.195312 C 246.101562 67.75 246.300781 68.214844 246.441406 68.691406 C 246.546875 69.027344 246.539062 69.414062 246.691406 69.722656 C 247.050781 70.464844 246.800781 70.921875 246.101562 71.203125 Z M 367.007812 37.769531 C 366.769531 37.917969 366.371094 37.820312 366.042969 37.832031 C 366.058594 37.464844 365.9375 37.007812 366.109375 36.75 C 366.589844 36.046875 367.246094 36.105469 368.089844 36.691406 C 367.691406 37.109375 367.402344 37.519531 367.011719 37.769531 Z M 367.007812 37.769531 " clip-rule="nonzero"/></clipPath><linearGradient x1="-36.236499" gradientTransform="matrix(0.199075, 0, 0, 0.199272, 1.003535, 17.789287)" y1="472.477114" x2="1888.209451" gradientUnits="userSpaceOnUse" y2="115.378836" id="b003adb15e"><stop stop-opacity="1" stop-color="rgb(15.85083%, 67.605591%, 88.774109%)" offset="0"/><stop stop-opacity="1" stop-color="rgb(15.788269%, 67.733765%, 88.818359%)" offset="0.0078125"/><stop stop-opacity="1" stop-color="rgb(15.663147%, 67.990112%, 88.908386%)" offset="0.015625"/><stop stop-opacity="1" stop-color="rgb(15.538025%, 68.24646%, 88.996887%)" offset="0.0234375"/><stop stop-opacity="1" stop-color="rgb(15.412903%, 68.501282%, 89.085388%)" offset="0.03125"/><stop stop-opacity="1" stop-color="rgb(15.287781%, 68.757629%, 89.173889%)" offset="0.0390625"/><stop stop-opacity="1" stop-color="rgb(15.162659%, 69.013977%, 89.26239%)" offset="0.046875"/><stop stop-opacity="1" stop-color="rgb(15.036011%, 69.270325%, 89.350891%)" offset="0.0546875"/><stop stop-opacity="1" stop-color="rgb(14.910889%, 69.526672%, 89.439392%)" offset="0.0622436"/><stop stop-opacity="1" stop-color="rgb(14.848328%, 69.654846%, 89.485168%)" offset="0.0625"/><stop stop-opacity="1" stop-color="rgb(14.785767%, 69.781494%, 89.529419%)" offset="0.0703125"/><stop stop-opacity="1" stop-color="rgb(14.660645%, 70.037842%, 89.61792%)" offset="0.078125"/><stop stop-opacity="1" stop-color="rgb(14.535522%, 70.294189%, 89.706421%)" offset="0.0859375"/><stop stop-opacity="1" stop-color="rgb(14.4104%, 70.550537%, 89.794922%)" offset="0.09375"/><stop stop-opacity="1" stop-color="rgb(14.285278%, 70.806885%, 89.883423%)" offset="0.101562"/><stop stop-opacity="1" stop-color="rgb(14.160156%, 71.061707%, 89.971924%)" offset="0.109375"/><stop stop-opacity="1" stop-color="rgb(14.035034%, 71.318054%, 90.060425%)" offset="0.117188"/><stop stop-opacity="1" stop-color="rgb(13.908386%, 71.574402%, 90.150452%)" offset="0.125"/><stop stop-opacity="1" stop-color="rgb(13.783264%, 71.83075%, 90.238953%)" offset="0.132813"/><stop stop-opacity="1" stop-color="rgb(13.658142%, 72.087097%, 90.327454%)" offset="0.140625"/><stop stop-opacity="1" stop-color="rgb(13.53302%, 72.341919%, 90.415955%)" offset="0.148438"/><stop stop-opacity="1" stop-color="rgb(13.407898%, 72.598267%, 90.504456%)" offset="0.15625"/><stop stop-opacity="1" stop-color="rgb(13.282776%, 72.854614%, 90.592957%)" offset="0.164063"/><stop stop-opacity="1" stop-color="rgb(13.157654%, 73.110962%, 90.681458%)" offset="0.171875"/><stop stop-opacity="1" stop-color="rgb(13.032532%, 73.365784%, 90.771484%)" offset="0.179688"/><stop stop-opacity="1" stop-color="rgb(12.90741%, 73.622131%, 90.859985%)" offset="0.1875"/><stop stop-opacity="1" stop-color="rgb(12.782288%, 73.878479%, 90.948486%)" offset="0.195313"/><stop stop-opacity="1" stop-color="rgb(12.65564%, 74.134827%, 91.036987%)" offset="0.203125"/><stop stop-opacity="1" stop-color="rgb(12.530518%, 74.391174%, 91.125488%)" offset="0.210938"/><stop stop-opacity="1" stop-color="rgb(12.405396%, 74.645996%, 91.213989%)" offset="0.21875"/><stop stop-opacity="1" stop-color="rgb(12.280273%, 74.902344%, 91.30249%)" offset="0.226563"/><stop stop-opacity="1" stop-color="rgb(12.155151%, 75.158691%, 91.392517%)" offset="0.234375"/><stop stop-opacity="1" stop-color="rgb(12.030029%, 75.415039%, 91.481018%)" offset="0.242188"/><stop stop-opacity="1" stop-color="rgb(11.904907%, 75.671387%, 91.569519%)" offset="0.25"/><stop stop-opacity="1" stop-color="rgb(11.779785%, 75.926208%, 91.65802%)" offset="0.257813"/><stop stop-opacity="1" stop-color="rgb(11.654663%, 76.182556%, 91.746521%)" offset="0.265625"/><stop stop-opacity="1" stop-color="rgb(11.528015%, 76.438904%, 91.835022%)" offset="0.273438"/><stop stop-opacity="1" stop-color="rgb(11.402893%, 76.695251%, 91.923523%)" offset="0.28125"/><stop stop-opacity="1" stop-color="rgb(11.277771%, 76.951599%, 92.01355%)" offset="0.289063"/><stop stop-opacity="1" stop-color="rgb(11.152649%, 77.206421%, 92.102051%)" offset="0.296875"/><stop stop-opacity="1" stop-color="rgb(11.027527%, 77.462769%, 92.190552%)" offset="0.304688"/><stop stop-opacity="1" stop-color="rgb(10.902405%, 77.719116%, 92.279053%)" offset="0.3125"/><stop stop-opacity="1" stop-color="rgb(10.777283%, 77.975464%, 92.367554%)" offset="0.320313"/><stop stop-opacity="1" stop-color="rgb(10.652161%, 78.230286%, 92.456055%)" offset="0.328125"/><stop stop-opacity="1" stop-color="rgb(10.527039%, 78.486633%, 92.544556%)" offset="0.335938"/><stop stop-opacity="1" stop-color="rgb(10.400391%, 78.742981%, 92.634583%)" offset="0.34375"/><stop stop-opacity="1" stop-color="rgb(10.275269%, 78.999329%, 92.723083%)" offset="0.351562"/><stop stop-opacity="1" stop-color="rgb(10.150146%, 79.255676%, 92.811584%)" offset="0.359375"/><stop stop-opacity="1" stop-color="rgb(10.025024%, 79.510498%, 92.900085%)" offset="0.367188"/><stop stop-opacity="1" stop-color="rgb(9.899902%, 79.766846%, 92.988586%)" offset="0.375"/><stop stop-opacity="1" stop-color="rgb(9.77478%, 80.023193%, 93.077087%)" offset="0.382812"/><stop stop-opacity="1" stop-color="rgb(9.649658%, 80.279541%, 93.165588%)" offset="0.390625"/><stop stop-opacity="1" stop-color="rgb(9.524536%, 80.535889%, 93.254089%)" offset="0.398438"/><stop stop-opacity="1" stop-color="rgb(9.399414%, 80.79071%, 93.344116%)" offset="0.40625"/><stop stop-opacity="1" stop-color="rgb(9.272766%, 81.047058%, 93.432617%)" offset="0.414063"/><stop stop-opacity="1" stop-color="rgb(9.147644%, 81.303406%, 93.521118%)" offset="0.421875"/><stop stop-opacity="1" stop-color="rgb(9.022522%, 81.559753%, 93.609619%)" offset="0.429688"/><stop stop-opacity="1" stop-color="rgb(8.8974%, 81.816101%, 93.69812%)" offset="0.4375"/><stop stop-opacity="1" stop-color="rgb(8.772278%, 82.070923%, 93.786621%)" offset="0.445313"/><stop stop-opacity="1" stop-color="rgb(8.647156%, 82.327271%, 93.875122%)" offset="0.453125"/><stop stop-opacity="1" stop-color="rgb(8.522034%, 82.583618%, 93.965149%)" offset="0.460938"/><stop stop-opacity="1" stop-color="rgb(8.396912%, 82.839966%, 94.05365%)" offset="0.46875"/><stop stop-opacity="1" stop-color="rgb(8.27179%, 83.094788%, 94.142151%)" offset="0.476563"/><stop stop-opacity="1" stop-color="rgb(8.145142%, 83.351135%, 94.230652%)" offset="0.484375"/><stop stop-opacity="1" stop-color="rgb(8.02002%, 83.607483%, 94.319153%)" offset="0.492188"/><stop stop-opacity="1" stop-color="rgb(7.894897%, 83.863831%, 94.407654%)" offset="0.5"/><stop stop-opacity="1" stop-color="rgb(7.769775%, 84.120178%, 94.496155%)" offset="0.507812"/><stop stop-opacity="1" stop-color="rgb(7.644653%, 84.375%, 94.586182%)" offset="0.515625"/><stop stop-opacity="1" stop-color="rgb(7.519531%, 84.631348%, 94.674683%)" offset="0.523438"/><stop stop-opacity="1" stop-color="rgb(7.394409%, 84.887695%, 94.763184%)" offset="0.53125"/><stop stop-opacity="1" stop-color="rgb(7.269287%, 85.144043%, 94.851685%)" offset="0.539063"/><stop stop-opacity="1" stop-color="rgb(7.144165%, 85.400391%, 94.940186%)" offset="0.546875"/><stop stop-opacity="1" stop-color="rgb(7.017517%, 85.655212%, 95.028687%)" offset="0.554688"/><stop stop-opacity="1" stop-color="rgb(6.892395%, 85.91156%, 95.117188%)" offset="0.5625"/><stop stop-opacity="1" stop-color="rgb(6.767273%, 86.167908%, 95.207214%)" offset="0.570312"/><stop stop-opacity="1" stop-color="rgb(6.642151%, 86.424255%, 95.295715%)" offset="0.578125"/><stop stop-opacity="1" stop-color="rgb(6.517029%, 86.680603%, 95.384216%)" offset="0.585938"/><stop stop-opacity="1" stop-color="rgb(6.391907%, 86.935425%, 95.472717%)" offset="0.59375"/><stop stop-opacity="1" stop-color="rgb(6.266785%, 87.191772%, 95.561218%)" offset="0.601562"/><stop stop-opacity="1" stop-color="rgb(6.141663%, 87.44812%, 95.649719%)" offset="0.609375"/><stop stop-opacity="1" stop-color="rgb(6.016541%, 87.704468%, 95.73822%)" offset="0.617188"/><stop stop-opacity="1" stop-color="rgb(5.889893%, 87.95929%, 95.828247%)" offset="0.625"/><stop stop-opacity="1" stop-color="rgb(5.764771%, 88.215637%, 95.916748%)" offset="0.632812"/><stop stop-opacity="1" stop-color="rgb(5.639648%, 88.471985%, 96.005249%)" offset="0.640625"/><stop stop-opacity="1" stop-color="rgb(5.514526%, 88.728333%, 96.09375%)" offset="0.648438"/><stop stop-opacity="1" stop-color="rgb(5.389404%, 88.98468%, 96.182251%)" offset="0.65625"/><stop stop-opacity="1" stop-color="rgb(5.264282%, 89.239502%, 96.270752%)" offset="0.664062"/><stop stop-opacity="1" stop-color="rgb(5.13916%, 89.49585%, 96.359253%)" offset="0.671875"/><stop stop-opacity="1" stop-color="rgb(5.014038%, 89.752197%, 96.44928%)" offset="0.679688"/><stop stop-opacity="1" stop-color="rgb(4.888916%, 90.008545%, 96.537781%)" offset="0.6875"/><stop stop-opacity="1" stop-color="rgb(4.762268%, 90.264893%, 96.626282%)" offset="0.695312"/><stop stop-opacity="1" stop-color="rgb(4.637146%, 90.519714%, 96.714783%)" offset="0.703125"/><stop stop-opacity="1" stop-color="rgb(4.512024%, 90.776062%, 96.803284%)" offset="0.710938"/><stop stop-opacity="1" stop-color="rgb(4.386902%, 91.03241%, 96.891785%)" offset="0.71875"/><stop stop-opacity="1" stop-color="rgb(4.26178%, 91.288757%, 96.980286%)" offset="0.726562"/><stop stop-opacity="1" stop-color="rgb(4.136658%, 91.545105%, 97.068787%)" offset="0.734375"/><stop stop-opacity="1" stop-color="rgb(4.011536%, 91.799927%, 97.158813%)" offset="0.742188"/><stop stop-opacity="1" stop-color="rgb(3.886414%, 92.056274%, 97.247314%)" offset="0.75"/><stop stop-opacity="1" stop-color="rgb(3.761292%, 92.312622%, 97.335815%)" offset="0.757812"/><stop stop-opacity="1" stop-color="rgb(3.634644%, 92.56897%, 97.424316%)" offset="0.765625"/><stop stop-opacity="1" stop-color="rgb(3.509521%, 92.823792%, 97.512817%)" offset="0.773438"/><stop stop-opacity="1" stop-color="rgb(3.384399%, 93.080139%, 97.601318%)" offset="0.78125"/><stop stop-opacity="1" stop-color="rgb(3.259277%, 93.336487%, 97.689819%)" offset="0.789062"/><stop stop-opacity="1" stop-color="rgb(3.134155%, 93.592834%, 97.779846%)" offset="0.796875"/><stop stop-opacity="1" stop-color="rgb(3.009033%, 93.849182%, 97.868347%)" offset="0.804687"/><stop stop-opacity="1" stop-color="rgb(2.883911%, 94.104004%, 97.956848%)" offset="0.8125"/><stop stop-opacity="1" stop-color="rgb(2.758789%, 94.360352%, 98.045349%)" offset="0.820312"/><stop stop-opacity="1" stop-color="rgb(2.633667%, 94.616699%, 98.13385%)" offset="0.828125"/><stop stop-opacity="1" stop-color="rgb(2.508545%, 94.873047%, 98.222351%)" offset="0.835937"/><stop stop-opacity="1" stop-color="rgb(2.381897%, 95.129395%, 98.310852%)" offset="0.84375"/><stop stop-opacity="1" stop-color="rgb(2.256775%, 95.384216%, 98.400879%)" offset="0.851562"/><stop stop-opacity="1" stop-color="rgb(2.131653%, 95.640564%, 98.48938%)" offset="0.859375"/><stop stop-opacity="1" stop-color="rgb(2.006531%, 95.896912%, 98.577881%)" offset="0.867188"/><stop stop-opacity="1" stop-color="rgb(1.881409%, 96.153259%, 98.666382%)" offset="0.875"/><stop stop-opacity="1" stop-color="rgb(1.756287%, 96.409607%, 98.754883%)" offset="0.882812"/><stop stop-opacity="1" stop-color="rgb(1.631165%, 96.664429%, 98.843384%)" offset="0.890625"/><stop stop-opacity="1" stop-color="rgb(1.506042%, 96.920776%, 98.931885%)" offset="0.898438"/><stop stop-opacity="1" stop-color="rgb(1.38092%, 97.177124%, 99.021912%)" offset="0.90625"/><stop stop-opacity="1" stop-color="rgb(1.254272%, 97.433472%, 99.110413%)" offset="0.914062"/><stop stop-opacity="1" stop-color="rgb(1.12915%, 97.688293%, 99.198914%)" offset="0.921875"/><stop stop-opacity="1" stop-color="rgb(1.004028%, 97.944641%, 99.287415%)" offset="0.929688"/><stop stop-opacity="1" stop-color="rgb(0.878906%, 98.200989%, 99.375916%)" offset="0.9375"/><stop stop-opacity="1" stop-color="rgb(0.753784%, 98.457336%, 99.464417%)" offset="0.937756"/><stop stop-opacity="1" stop-color="rgb(0.691223%, 98.58551%, 99.508667%)" offset="0.945312"/><stop stop-opacity="1" stop-color="rgb(0.628662%, 98.713684%, 99.552917%)" offset="0.953125"/><stop stop-opacity="1" stop-color="rgb(0.50354%, 98.968506%, 99.642944%)" offset="0.960938"/><stop stop-opacity="1" stop-color="rgb(0.378418%, 99.224854%, 99.731445%)" offset="0.96875"/><stop stop-opacity="1" stop-color="rgb(0.253296%, 99.481201%, 99.819946%)" offset="0.976562"/><stop stop-opacity="1" stop-color="rgb(0.126648%, 99.737549%, 99.908447%)" offset="0.984375"/><stop stop-opacity="1" stop-color="rgb(0.0320435%, 99.932861%, 99.975586%)" offset="1"/></linearGradient></defs><g clip-path="url(#9201dfc6d8)"><g clip-path="url(#0f9c014cd5)"><path fill="url(#b003adb15e)" d="M 1.003906 17.789062 L 1.003906 150.855469 L 372.636719 150.855469 L 372.636719 17.789062 Z M 1.003906 17.789062 " fill-rule="nonzero"/></g></g><g fill="#000000" fill-opacity="1"><g transform="translate(45.930367, 75.384901)"><g><path d="M 9.601562 -2.972656 L 13.679688 -14.476562 L 21.449219 -14.476562 L 21.449219 -17.488281 L 12.613281 -17.488281 L 5.867188 -22.632812 L 5.867188 -23.621094 L 21.449219 -23.621094 L 21.449219 -26.671875 L 2.820312 -26.671875 L 2.820312 -20.878906 L 7.542969 -17.488281 L 2.820312 -17.488281 L 2.820312 0.078125 L 21.792969 0.078125 L 21.792969 -2.972656 Z M 10.289062 -14.476562 L 5.867188 -2.972656 L 5.867188 -14.476562 Z M 10.289062 -14.476562 "/></g></g></g><g fill="#000000" fill-opacity="1"><g transform="translate(76.519139, 75.384901)"><g><path d="M 20.347656 -19.851562 C 17.90625 -25.335938 15.773438 -26.632812 10.476562 -26.632812 L 2.667969 -26.632812 L 2.667969 0.191406 L 9.523438 0.152344 C 18.785156 0.457031 21.335938 -6.171875 21.335938 -13.375 C 21.335938 -15.773438 20.992188 -17.753906 20.347656 -19.851562 Z M 5.753906 -23.585938 L 11.8125 -23.585938 L 5.753906 -6.933594 Z M 10.476562 -2.894531 L 7.773438 -2.894531 L 14.898438 -22.515625 C 17.640625 -20.039062 18.25 -16.878906 18.25 -13.375 C 18.25 -7.964844 16.496094 -3.011719 10.476562 -2.894531 Z M 10.476562 -2.894531 "/></g></g></g><g fill="#000000" fill-opacity="1"><g transform="translate(106.993645, 75.384901)"><g><path d="M 1.21875 -26.554688 L 11.085938 -0.113281 L 11.238281 0.265625 L 15.164062 0.230469 L 18.480469 -7.847656 L 21.375 -0.113281 L 21.601562 0.265625 L 25.070312 0.230469 L 25.414062 0.230469 L 34.214844 -23.242188 L 35.320312 -26.554688 Z M 5.640625 -23.621094 L 12.574219 -23.621094 L 16.992188 -12.269531 L 13.296875 -2.707031 L 10.746094 -9.296875 L 8.535156 -15.546875 Z M 15.507812 -23.621094 L 21.375 -23.621094 L 18.480469 -16.269531 L 16.613281 -21.03125 Z M 31.28125 -23.621094 L 23.242188 -2.707031 L 21.03125 -9.296875 L 19.925781 -12.269531 L 23.964844 -22.859375 L 24.230469 -23.621094 Z M 31.28125 -23.621094 "/></g></g></g><g fill="#000000" fill-opacity="1"><g transform="translate(151.142508, 75.384901)"><g><path d="M 2.820312 0.078125 L 6.667969 0.078125 L 6.667969 -26.824219 L 2.820312 -26.824219 Z M 2.820312 0.078125 "/></g></g></g><g fill="#000000" fill-opacity="1"><g transform="translate(168.514006, 75.384901)"><g><path d="M 20.5 -26.554688 L 20.5 -16.992188 L 6.132812 -26.554688 L 2.820312 -26.554688 L 2.820312 -0.0390625 L 6.132812 -0.0390625 L 13.144531 -18.480469 L 20.5 -13.296875 L 20.5 -0.0390625 L 23.8125 -0.0390625 L 23.8125 -26.554688 Z M 6.132812 -9.257812 L 6.132812 -22.898438 L 10.171875 -20.308594 Z M 6.132812 -9.257812 "/></g></g></g><g fill="#000000" fill-opacity="1"><g transform="translate(202.797529, 75.384901)"><g><path d="M 15.773438 -0.113281 L 15.773438 -26.59375 L 12.078125 -26.59375 L 0 -9.828125 L 0 -7.503906 L 12.382812 -7.503906 L 12.382812 -0.113281 Z M 6.363281 -10.171875 L 3.695312 -10.171875 L 10.058594 -19.203125 C 11.085938 -20.574219 11.660156 -21.566406 12.382812 -23.203125 L 12.382812 -19.203125 Z M 12.382812 -10.171875 L 10.058594 -10.171875 L 12.382812 -13.867188 Z M 12.382812 -10.171875 "/></g></g></g><g fill="#000000" fill-opacity="1"><g transform="translate(229.082127, 75.384901)"><g><path d="M 22.632812 -4.496094 L 20.308594 -6.171875 C 17.90625 -2.398438 12.117188 -2.515625 11.316406 -3.199219 L 18.9375 -22.707031 C 19.964844 -21.984375 20.347656 -21.527344 20.613281 -21.414062 L 21.640625 -22.402344 L 22.632812 -23.394531 C 17.03125 -29.148438 2.171875 -28.878906 1.257812 -14.324219 C 0.953125 -4.992188 7.964844 0.34375 14.441406 -0.078125 C 17.449219 -0.265625 20.269531 -1.21875 22.632812 -4.496094 Z M 4 -14.554688 C 4.609375 -21.449219 10.019531 -25.71875 16.269531 -24.078125 L 8.761719 -4.496094 C 3.65625 -7.582031 4 -13.984375 4 -14.554688 Z M 4 -14.554688 "/></g></g></g><g fill="#000000" fill-opacity="1"><g transform="translate(259.89945, 75.384901)"><g><path d="M 21.03125 -26.59375 L 21.03125 -19.011719 L 5.828125 -19.011719 L 5.828125 -26.59375 L 2.820312 -26.59375 L 2.820312 -0.078125 L 5.828125 -0.078125 L 11.542969 -15.203125 L 21.03125 -15.203125 L 21.03125 -0.078125 L 24.042969 -0.078125 L 24.042969 -26.59375 Z M 5.828125 -15.582031 L 7.734375 -15.582031 L 5.828125 -9.90625 Z M 5.828125 -15.582031 "/></g></g></g><g fill="#000000" fill-opacity="1"><g transform="translate(294.411508, 75.384901)"><g><path d="M 22.59375 -0.152344 L 22.59375 -1.867188 L 22.785156 -13.792969 L 17.832031 -13.753906 L 22.175781 -25.527344 C 20.839844 -25.871094 18.820312 -26.554688 15.621094 -26.824219 C 6.894531 -26.707031 1.941406 -21.144531 1.523438 -13.375 C 1.714844 -9.105469 2.515625 -5.90625 4.992188 -3.582031 C 8.078125 -0.722656 11.507812 -0.113281 15.277344 -0.113281 Z M 4.953125 -13.375 C 5.066406 -21.109375 10.933594 -24.535156 17.753906 -23.738281 L 10.59375 -3.925781 C 7.277344 -5.449219 4.839844 -8.953125 4.953125 -13.375 Z M 13.679688 -3.085938 L 16.460938 -11.390625 L 19.621094 -11.390625 L 19.507812 -3.199219 C 18.480469 -3.199219 15.621094 -3.085938 13.679688 -3.085938 Z M 13.679688 -3.085938 "/></g></g></g><g fill="#31547c" fill-opacity="1"><g transform="translate(72.662499, 127.499837)"><g><path d="M 41.109375 -6.46875 C 41.191406 -6.488281 41.425781 -6.539062 41.8125 -6.625 C 42.382812 -6.726562 43.070312 -6.847656 43.875 -6.984375 C 44.6875 -7.128906 45.398438 -7.226562 46.015625 -7.28125 C 46.640625 -7.332031 46.953125 -7.285156 46.953125 -7.140625 C 46.867188 -7.015625 46.484375 -6.847656 45.796875 -6.640625 C 45.117188 -6.441406 44.316406 -6.238281 43.390625 -6.03125 C 42.460938 -5.832031 41.601562 -5.65625 40.8125 -5.5 C 40.03125 -5.34375 39.503906 -5.234375 39.234375 -5.171875 C 38.671875 -5.078125 38.25 -4.789062 37.96875 -4.3125 C 35.53125 -0.90625 32.71875 2.144531 29.53125 4.84375 C 27.195312 6.863281 24.675781 8.632812 21.96875 10.15625 C 20.925781 10.757812 19.851562 11.289062 18.75 11.75 C 17.65625 12.207031 16.519531 12.570312 15.34375 12.84375 C 14.226562 13.082031 13.109375 13.148438 11.984375 13.046875 C 10.640625 12.910156 9.703125 12.414062 9.171875 11.5625 C 8.640625 10.707031 8.585938 9.640625 9.015625 8.359375 C 9.316406 7.566406 9.742188 6.859375 10.296875 6.234375 C 11.160156 5.222656 12.128906 4.332031 13.203125 3.5625 C 14.679688 2.488281 16.222656 1.53125 17.828125 0.6875 C 17.953125 0.625 18.082031 0.5625 18.21875 0.5 C 18.394531 0.414062 18.566406 0.316406 18.734375 0.203125 C 18.972656 0.0859375 19.09375 -0.101562 19.09375 -0.375 C 19.101562 -0.539062 19.109375 -0.710938 19.109375 -0.890625 C 19.109375 -1.148438 19.109375 -1.414062 19.109375 -1.6875 C 19.109375 -4.9375 19.109375 -8.203125 19.109375 -11.484375 C 19.109375 -15.898438 19.109375 -20.328125 19.109375 -24.765625 C 19.109375 -24.796875 19.109375 -24.835938 19.109375 -24.890625 C 19.109375 -25.285156 19.117188 -25.679688 19.140625 -26.078125 C 19.203125 -26.484375 19.488281 -26.695312 20 -26.71875 C 20.488281 -26.695312 20.753906 -26.476562 20.796875 -26.0625 C 20.835938 -25.707031 20.847656 -25.347656 20.828125 -24.984375 C 20.828125 -24.890625 20.828125 -24.8125 20.828125 -24.75 C 20.847656 -21.21875 20.847656 -17.6875 20.828125 -14.15625 C 20.828125 -10.289062 20.835938 -6.421875 20.859375 -2.546875 C 20.859375 -2.398438 20.847656 -2.253906 20.828125 -2.109375 C 20.796875 -1.453125 20.851562 -1.082031 21 -1 C 21.15625 -0.925781 21.585938 -1.050781 22.296875 -1.375 C 22.335938 -1.394531 22.378906 -1.414062 22.421875 -1.4375 C 26.628906 -3.207031 30.96875 -4.539062 35.4375 -5.4375 C 36.445312 -5.601562 37.207031 -6.132812 37.71875 -7.03125 C 38.914062 -9.101562 39.925781 -11.316406 40.75 -13.671875 C 41.582031 -16.035156 42.148438 -18.382812 42.453125 -20.71875 C 42.753906 -23.050781 42.71875 -25.210938 42.34375 -27.203125 C 41.96875 -29.191406 41.1875 -30.851562 40 -32.1875 C 38.8125 -33.519531 37.140625 -34.363281 34.984375 -34.71875 C 32.828125 -35.070312 30.109375 -34.78125 26.828125 -33.84375 C 25.171875 -33.394531 23.332031 -32.722656 21.3125 -31.828125 C 19.300781 -30.929688 17.253906 -29.863281 15.171875 -28.625 C 13.097656 -27.382812 11.140625 -26.035156 9.296875 -24.578125 C 7.453125 -23.117188 5.863281 -21.601562 4.53125 -20.03125 C 3.207031 -18.46875 2.285156 -16.898438 1.765625 -15.328125 C 1.617188 -14.835938 1.289062 -14.601562 0.78125 -14.625 C 0.507812 -14.625 0.3125 -14.703125 0.1875 -14.859375 C 0.0625 -15.023438 0.0234375 -15.234375 0.078125 -15.484375 C 0.265625 -16.085938 0.523438 -16.660156 0.859375 -17.203125 C 1.671875 -18.503906 2.597656 -19.710938 3.640625 -20.828125 C 6.328125 -23.742188 9.582031 -26.414062 13.40625 -28.84375 C 17.238281 -31.269531 21.046875 -33.117188 24.828125 -34.390625 C 28.328125 -35.503906 31.335938 -35.992188 33.859375 -35.859375 C 36.378906 -35.722656 38.445312 -35.082031 40.0625 -33.9375 C 41.675781 -32.800781 42.851562 -31.285156 43.59375 -29.390625 C 44.34375 -27.492188 44.691406 -25.34375 44.640625 -22.9375 C 44.597656 -20.53125 44.175781 -18 43.375 -15.34375 C 42.570312 -12.6875 41.414062 -10.023438 39.90625 -7.359375 C 39.59375 -6.796875 39.5 -6.46875 39.625 -6.375 C 39.75 -6.289062 40.03125 -6.296875 40.46875 -6.390625 C 40.65625 -6.421875 40.867188 -6.445312 41.109375 -6.46875 Z M 34.953125 -3.046875 C 35.003906 -3.117188 35.054688 -3.179688 35.109375 -3.234375 C 35.359375 -3.484375 35.523438 -3.796875 35.609375 -4.171875 C 35.472656 -4.265625 35.335938 -4.304688 35.203125 -4.296875 C 35.078125 -4.296875 34.941406 -4.28125 34.796875 -4.25 C 34.742188 -4.226562 34.695312 -4.207031 34.65625 -4.1875 C 32.539062 -3.644531 30.445312 -3.039062 28.375 -2.375 C 26.3125 -1.707031 24.28125 -0.929688 22.28125 -0.046875 C 22.132812 0.0234375 22.003906 0.0859375 21.890625 0.140625 C 21.554688 0.265625 21.3125 0.378906 21.15625 0.484375 C 21 0.585938 20.90625 0.71875 20.875 0.875 C 20.84375 1.039062 20.835938 1.28125 20.859375 1.59375 C 20.859375 1.769531 20.859375 1.972656 20.859375 2.203125 C 20.835938 2.554688 20.835938 2.90625 20.859375 3.25 C 20.859375 3.582031 20.847656 3.929688 20.828125 4.296875 C 20.828125 4.628906 20.8125 4.960938 20.78125 5.296875 C 20.695312 5.753906 20.421875 5.972656 19.953125 5.953125 C 19.441406 5.921875 19.175781 5.632812 19.15625 5.09375 C 19.125 4.5 19.109375 3.914062 19.109375 3.34375 C 19.109375 2.9375 19.109375 2.539062 19.109375 2.15625 C 19.078125 1.75 18.878906 1.632812 18.515625 1.8125 C 17.390625 2.414062 16.304688 3.078125 15.265625 3.796875 C 14.234375 4.523438 13.269531 5.347656 12.375 6.265625 C 11.820312 6.835938 11.367188 7.476562 11.015625 8.1875 C 10.722656 8.757812 10.566406 9.367188 10.546875 10.015625 C 10.566406 11.085938 11.09375 11.757812 12.125 12.03125 C 12.757812 12.1875 13.394531 12.195312 14.03125 12.0625 C 15.238281 11.820312 16.40625 11.46875 17.53125 11 C 18.664062 10.539062 19.765625 10 20.828125 9.375 C 23.597656 7.789062 26.148438 5.953125 28.484375 3.859375 C 30.828125 1.765625 32.984375 -0.535156 34.953125 -3.046875 Z M 34.953125 -3.046875 "/></g></g></g><g fill="#31547c" fill-opacity="1"><g transform="translate(117.553194, 127.499837)"><g><path d="M 11.09375 -5.5625 C 11.257812 -5.65625 11.421875 -5.726562 11.578125 -5.78125 C 11.742188 -5.84375 11.851562 -5.84375 11.90625 -5.78125 C 11.957031 -5.71875 11.890625 -5.578125 11.703125 -5.359375 C 11.128906 -4.703125 10.441406 -4.097656 9.640625 -3.546875 C 8.835938 -3.003906 8.015625 -2.539062 7.171875 -2.15625 C 6.503906 -1.863281 5.804688 -1.628906 5.078125 -1.453125 C 4.347656 -1.273438 3.625 -1.234375 2.90625 -1.328125 C 2.1875 -1.429688 1.53125 -1.753906 0.9375 -2.296875 C 0.0390625 -3.117188 -0.328125 -4.128906 -0.171875 -5.328125 C -0.046875 -6.273438 0.320312 -7.082031 0.9375 -7.75 C 1.550781 -8.414062 2.320312 -8.863281 3.25 -9.09375 C 4.019531 -9.269531 4.789062 -9.289062 5.5625 -9.15625 C 5.914062 -9.101562 6.238281 -8.984375 6.53125 -8.796875 C 6.800781 -8.585938 6.945312 -8.34375 6.96875 -8.0625 C 7 -7.789062 6.894531 -7.53125 6.65625 -7.28125 C 6.164062 -6.84375 5.597656 -6.582031 4.953125 -6.5 C 4.234375 -6.375 3.507812 -6.296875 2.78125 -6.265625 C 2.425781 -6.265625 2.175781 -6.191406 2.03125 -6.046875 C 1.894531 -5.898438 1.816406 -5.648438 1.796875 -5.296875 C 1.679688 -4.335938 1.988281 -3.554688 2.71875 -2.953125 C 3.164062 -2.597656 3.710938 -2.445312 4.359375 -2.5 C 5.015625 -2.550781 5.707031 -2.722656 6.4375 -3.015625 C 7.164062 -3.316406 7.878906 -3.660156 8.578125 -4.046875 C 9.273438 -4.441406 9.898438 -4.816406 10.453125 -5.171875 C 10.691406 -5.328125 10.90625 -5.457031 11.09375 -5.5625 Z M 3.09375 -7.609375 C 3.09375 -7.585938 3.082031 -7.578125 3.0625 -7.578125 C 3.03125 -7.546875 2.988281 -7.507812 2.9375 -7.46875 C 2.882812 -7.425781 2.835938 -7.382812 2.796875 -7.34375 C 2.753906 -7.300781 2.734375 -7.273438 2.734375 -7.265625 C 2.753906 -7.203125 2.894531 -7.1875 3.15625 -7.21875 C 3.414062 -7.25 3.703125 -7.296875 4.015625 -7.359375 C 4.328125 -7.421875 4.585938 -7.503906 4.796875 -7.609375 C 5.015625 -7.722656 5.082031 -7.859375 5 -8.015625 C 4.957031 -8.066406 4.90625 -8.109375 4.84375 -8.140625 C 4.789062 -8.171875 4.726562 -8.195312 4.65625 -8.21875 C 4.351562 -8.21875 4.070312 -8.15625 3.8125 -8.03125 C 3.5625 -7.914062 3.320312 -7.773438 3.09375 -7.609375 Z M 3.09375 -7.609375 "/></g></g></g><g fill="#31547c" fill-opacity="1"><g transform="translate(128.686729, 127.499837)"><g/></g></g><g fill="#31547c" fill-opacity="1"><g transform="translate(134.529534, 127.499837)"><g><path d="M 8.4375 -5.53125 C 8.863281 -5.9375 9.046875 -6.035156 8.984375 -5.828125 C 8.929688 -5.628906 8.703125 -5.265625 8.296875 -4.734375 C 7.890625 -4.203125 7.382812 -3.625 6.78125 -3 C 6.175781 -2.382812 5.535156 -1.847656 4.859375 -1.390625 C 4.179688 -0.929688 3.539062 -0.679688 2.9375 -0.640625 C 2.1875 -0.640625 1.585938 -0.859375 1.140625 -1.296875 C 0.691406 -1.742188 0.367188 -2.328125 0.171875 -3.046875 C -0.015625 -3.773438 -0.09375 -4.5625 -0.0625 -5.40625 C -0.0195312 -6.351562 0.015625 -7.296875 0.046875 -8.234375 C 0.0546875 -8.710938 0.0703125 -9.175781 0.09375 -9.625 C 0.132812 -10.382812 0.160156 -11.144531 0.171875 -11.90625 C 0.191406 -12.144531 0.15625 -12.34375 0.0625 -12.5 C -0.03125 -12.664062 -0.195312 -12.753906 -0.4375 -12.765625 C -0.707031 -12.785156 -1.046875 -12.796875 -1.453125 -12.796875 C -1.804688 -12.796875 -2.109375 -12.796875 -2.359375 -12.796875 C -2.710938 -12.828125 -2.945312 -12.914062 -3.0625 -13.0625 C -3.1875 -13.21875 -3.09375 -13.375 -2.78125 -13.53125 C -2.570312 -13.613281 -2.3125 -13.65625 -2 -13.65625 C -1.695312 -13.664062 -1.398438 -13.664062 -1.109375 -13.65625 C -0.929688 -13.644531 -0.769531 -13.640625 -0.625 -13.640625 C -0.175781 -13.640625 0.09375 -13.707031 0.1875 -13.84375 C 0.289062 -13.988281 0.351562 -14.269531 0.375 -14.6875 C 0.40625 -15.132812 0.429688 -15.582031 0.453125 -16.03125 C 0.460938 -16.269531 0.476562 -16.507812 0.5 -16.75 C 0.5 -17.101562 0.59375 -17.421875 0.78125 -17.703125 C 0.976562 -17.972656 1.234375 -18.078125 1.546875 -18.015625 C 1.804688 -17.941406 1.953125 -17.773438 1.984375 -17.515625 C 2.015625 -17.066406 2.03125 -16.617188 2.03125 -16.171875 C 2.039062 -15.910156 2.039062 -15.65625 2.03125 -15.40625 C 2.03125 -15.132812 2.035156 -14.851562 2.046875 -14.5625 C 2.035156 -14.164062 2.082031 -13.914062 2.1875 -13.8125 C 2.289062 -13.707031 2.554688 -13.65625 2.984375 -13.65625 C 3.671875 -13.65625 4.351562 -13.65625 5.03125 -13.65625 C 5.332031 -13.65625 6.242188 -13.675781 7.765625 -13.71875 C 9.285156 -13.757812 10.101562 -13.632812 10.21875 -13.34375 C 10.34375 -13.0625 9.382812 -12.894531 7.34375 -12.84375 C 6.101562 -12.78125 5.144531 -12.75 4.46875 -12.75 C 4.019531 -12.757812 3.613281 -12.765625 3.25 -12.765625 C 2.644531 -12.765625 2.269531 -12.660156 2.125 -12.453125 C 1.988281 -12.242188 1.925781 -11.820312 1.9375 -11.1875 C 1.925781 -10.632812 1.898438 -9.972656 1.859375 -9.203125 C 1.765625 -7.617188 1.71875 -6 1.71875 -4.34375 C 1.75 -3.207031 1.945312 -2.472656 2.3125 -2.140625 C 2.6875 -1.804688 3.164062 -1.742188 3.75 -1.953125 C 4.34375 -2.160156 4.984375 -2.535156 5.671875 -3.078125 C 6.359375 -3.617188 7.039062 -4.203125 7.71875 -4.828125 C 7.863281 -5.015625 8.039062 -5.191406 8.25 -5.359375 C 8.320312 -5.421875 8.382812 -5.476562 8.4375 -5.53125 Z M 8.4375 -5.53125 "/></g></g></g><g fill="#31547c" fill-opacity="1"><g transform="translate(142.822183, 127.499837)"><g><path d="M 8.84375 -6.296875 C 8.957031 -6.410156 9.015625 -6.269531 9.015625 -5.875 C 9.023438 -5.476562 8.664062 -4.925781 7.9375 -4.21875 C 7.21875 -3.507812 6.46875 -3.171875 5.6875 -3.203125 C 5.519531 -3.222656 5.375 -3.210938 5.25 -3.171875 C 5.132812 -3.128906 5.035156 -3.03125 4.953125 -2.875 C 4.867188 -2.738281 4.769531 -2.613281 4.65625 -2.5 C 4.65625 -2.5 4.648438 -2.488281 4.640625 -2.46875 C 4.160156 -1.96875 3.597656 -1.632812 2.953125 -1.46875 C 2.316406 -1.3125 1.710938 -1.363281 1.140625 -1.625 C 0.566406 -1.882812 0.148438 -2.378906 -0.109375 -3.109375 C -0.285156 -3.765625 -0.300781 -4.421875 -0.15625 -5.078125 C -0.0195312 -5.648438 0.191406 -6.191406 0.484375 -6.703125 C 0.835938 -7.367188 1.296875 -7.84375 1.859375 -8.125 C 2.421875 -8.40625 3.0625 -8.5625 3.78125 -8.59375 C 4.832031 -8.644531 5.5 -8.144531 5.78125 -7.09375 C 5.945312 -6.488281 5.988281 -5.878906 5.90625 -5.265625 C 5.882812 -5.117188 5.859375 -4.972656 5.828125 -4.828125 C 5.796875 -4.722656 5.765625 -4.617188 5.734375 -4.515625 C 5.703125 -4.179688 5.847656 -4.03125 6.171875 -4.0625 C 7.066406 -4.21875 7.957031 -4.960938 8.84375 -6.296875 Z M 2.578125 -2.375 C 3.117188 -2.625 3.5 -3.050781 3.71875 -3.65625 C 2.8125 -4.226562 2.203125 -5.054688 1.890625 -6.140625 C 1.609375 -5.640625 1.4375 -5.050781 1.375 -4.375 C 1.3125 -3.695312 1.378906 -3.132812 1.578125 -2.6875 C 1.773438 -2.25 2.109375 -2.144531 2.578125 -2.375 Z M 4.125 -4.859375 C 4.269531 -5.066406 4.351562 -5.328125 4.375 -5.640625 C 4.40625 -5.960938 4.390625 -6.273438 4.328125 -6.578125 C 4.273438 -6.890625 4.195312 -7.132812 4.09375 -7.3125 C 4 -7.488281 3.894531 -7.546875 3.78125 -7.484375 C 3.570312 -7.296875 3.453125 -7.03125 3.421875 -6.6875 C 3.398438 -6.34375 3.453125 -5.992188 3.578125 -5.640625 C 3.710938 -5.296875 3.894531 -5.035156 4.125 -4.859375 Z M 4.125 -4.859375 "/></g></g></g><g fill="#31547c" fill-opacity="1"><g transform="translate(151.39087, 127.499837)"><g><path d="M 18.046875 -5.609375 C 18.117188 -5.742188 18.222656 -5.8125 18.359375 -5.8125 C 18.503906 -5.820312 18.628906 -5.738281 18.734375 -5.5625 C 18.765625 -5.507812 18.722656 -5.378906 18.609375 -5.171875 C 18.503906 -4.960938 18.359375 -4.722656 18.171875 -4.453125 C 17.992188 -4.191406 17.816406 -3.953125 17.640625 -3.734375 C 17.472656 -3.515625 17.359375 -3.367188 17.296875 -3.296875 C 16.535156 -2.453125 15.769531 -1.832031 15 -1.4375 C 14.238281 -1.039062 13.40625 -0.957031 12.5 -1.1875 C 11.601562 -1.414062 10.597656 -2.054688 9.484375 -3.109375 C 9.316406 -3.285156 9.148438 -3.46875 8.984375 -3.65625 C 8.941406 -3.707031 8.898438 -3.757812 8.859375 -3.8125 C 8.671875 -4.019531 8.46875 -4.046875 8.25 -3.890625 C 8.019531 -3.722656 7.785156 -3.550781 7.546875 -3.375 C 7.335938 -3.226562 7.128906 -3.085938 6.921875 -2.953125 C 6.203125 -2.460938 5.445312 -2.050781 4.65625 -1.71875 C 3.8125 -1.34375 2.925781 -1.195312 2 -1.28125 C 0.550781 -1.445312 -0.195312 -2.25 -0.25 -3.6875 C -0.269531 -4.695312 -0.0546875 -5.601562 0.390625 -6.40625 C 0.835938 -7.207031 1.460938 -7.796875 2.265625 -8.171875 C 3.066406 -8.554688 3.992188 -8.632812 5.046875 -8.40625 C 5.160156 -8.375 5.3125 -8.335938 5.5 -8.296875 C 5.613281 -8.253906 5.753906 -8.21875 5.921875 -8.1875 C 5.828125 -8.425781 5.738281 -8.640625 5.65625 -8.828125 C 5.5 -9.128906 5.363281 -9.410156 5.25 -9.671875 C 4.550781 -11.097656 3.984375 -12.734375 3.546875 -14.578125 C 3.109375 -16.421875 2.890625 -18.3125 2.890625 -20.25 C 2.898438 -22.195312 3.222656 -24.003906 3.859375 -25.671875 C 4.503906 -27.347656 5.570312 -28.726562 7.0625 -29.8125 C 8.007812 -30.445312 8.984375 -30.789062 9.984375 -30.84375 C 10.992188 -30.894531 11.941406 -30.675781 12.828125 -30.1875 C 13.722656 -29.695312 14.453125 -28.960938 15.015625 -27.984375 C 15.734375 -26.628906 16.175781 -25.207031 16.34375 -23.71875 C 16.65625 -21.300781 16.609375 -19.046875 16.203125 -16.953125 C 15.796875 -14.859375 15.078125 -12.878906 14.046875 -11.015625 C 13.015625 -9.148438 11.707031 -7.335938 10.125 -5.578125 C 9.96875 -5.410156 9.882812 -5.273438 9.875 -5.171875 C 9.875 -5.078125 9.945312 -4.9375 10.09375 -4.75 C 10.414062 -4.332031 10.765625 -3.921875 11.140625 -3.515625 C 11.523438 -3.117188 11.953125 -2.785156 12.421875 -2.515625 C 13.085938 -2.234375 13.796875 -2.226562 14.546875 -2.5 C 15.296875 -2.78125 15.988281 -3.210938 16.625 -3.796875 C 17.269531 -4.378906 17.742188 -4.984375 18.046875 -5.609375 Z M 6.765625 -4.609375 C 6.960938 -4.773438 6.976562 -4.960938 6.8125 -5.171875 C 6.707031 -5.296875 6.609375 -5.425781 6.515625 -5.5625 C 6.234375 -5.894531 5.914062 -6.238281 5.5625 -6.59375 C 5.21875 -6.957031 4.851562 -7.226562 4.46875 -7.40625 C 4.09375 -7.59375 3.707031 -7.609375 3.3125 -7.453125 C 2.78125 -7.203125 2.335938 -6.753906 1.984375 -6.109375 C 1.640625 -5.472656 1.4375 -4.816406 1.375 -4.140625 C 1.3125 -3.460938 1.441406 -2.945312 1.765625 -2.59375 C 2.085938 -2.25 2.640625 -2.21875 3.421875 -2.5 C 4.640625 -3.03125 5.753906 -3.734375 6.765625 -4.609375 Z M 9.3125 -7.09375 C 10.9375 -9.007812 12.148438 -10.890625 12.953125 -12.734375 C 13.753906 -14.585938 14.296875 -16.75 14.578125 -19.21875 C 14.660156 -19.832031 14.695312 -20.628906 14.6875 -21.609375 C 14.6875 -22.585938 14.597656 -23.613281 14.421875 -24.6875 C 14.253906 -25.757812 13.953125 -26.734375 13.515625 -27.609375 C 13.078125 -28.484375 12.460938 -29.113281 11.671875 -29.5 C 10.890625 -29.882812 9.882812 -29.882812 8.65625 -29.5 C 7.3125 -28.707031 6.3125 -27.65625 5.65625 -26.34375 C 5.007812 -25.039062 4.640625 -23.585938 4.546875 -21.984375 C 4.453125 -20.378906 4.554688 -18.738281 4.859375 -17.0625 C 5.160156 -15.394531 5.582031 -13.8125 6.125 -12.3125 C 6.664062 -10.8125 7.25 -9.507812 7.875 -8.40625 C 7.9375 -8.257812 8.003906 -8.117188 8.078125 -7.984375 C 8.265625 -7.535156 8.53125 -7.125 8.875 -6.75 C 8.9375 -6.800781 8.992188 -6.84375 9.046875 -6.875 C 9.140625 -6.9375 9.226562 -7.007812 9.3125 -7.09375 Z M 9.3125 -7.09375 "/></g></g></g><g fill="#31547c" fill-opacity="1"><g transform="translate(169.333344, 127.499837)"><g><path d="M 8.84375 -6.296875 C 8.957031 -6.410156 9.015625 -6.269531 9.015625 -5.875 C 9.023438 -5.476562 8.664062 -4.925781 7.9375 -4.21875 C 7.21875 -3.507812 6.46875 -3.171875 5.6875 -3.203125 C 5.519531 -3.222656 5.375 -3.210938 5.25 -3.171875 C 5.132812 -3.128906 5.035156 -3.03125 4.953125 -2.875 C 4.867188 -2.738281 4.769531 -2.613281 4.65625 -2.5 C 4.65625 -2.5 4.648438 -2.488281 4.640625 -2.46875 C 4.160156 -1.96875 3.597656 -1.632812 2.953125 -1.46875 C 2.316406 -1.3125 1.710938 -1.363281 1.140625 -1.625 C 0.566406 -1.882812 0.148438 -2.378906 -0.109375 -3.109375 C -0.285156 -3.765625 -0.300781 -4.421875 -0.15625 -5.078125 C -0.0195312 -5.648438 0.191406 -6.191406 0.484375 -6.703125 C 0.835938 -7.367188 1.296875 -7.84375 1.859375 -8.125 C 2.421875 -8.40625 3.0625 -8.5625 3.78125 -8.59375 C 4.832031 -8.644531 5.5 -8.144531 5.78125 -7.09375 C 5.945312 -6.488281 5.988281 -5.878906 5.90625 -5.265625 C 5.882812 -5.117188 5.859375 -4.972656 5.828125 -4.828125 C 5.796875 -4.722656 5.765625 -4.617188 5.734375 -4.515625 C 5.703125 -4.179688 5.847656 -4.03125 6.171875 -4.0625 C 7.066406 -4.21875 7.957031 -4.960938 8.84375 -6.296875 Z M 2.578125 -2.375 C 3.117188 -2.625 3.5 -3.050781 3.71875 -3.65625 C 2.8125 -4.226562 2.203125 -5.054688 1.890625 -6.140625 C 1.609375 -5.640625 1.4375 -5.050781 1.375 -4.375 C 1.3125 -3.695312 1.378906 -3.132812 1.578125 -2.6875 C 1.773438 -2.25 2.109375 -2.144531 2.578125 -2.375 Z M 4.125 -4.859375 C 4.269531 -5.066406 4.351562 -5.328125 4.375 -5.640625 C 4.40625 -5.960938 4.390625 -6.273438 4.328125 -6.578125 C 4.273438 -6.890625 4.195312 -7.132812 4.09375 -7.3125 C 4 -7.488281 3.894531 -7.546875 3.78125 -7.484375 C 3.570312 -7.296875 3.453125 -7.03125 3.421875 -6.6875 C 3.398438 -6.34375 3.453125 -5.992188 3.578125 -5.640625 C 3.710938 -5.296875 3.894531 -5.035156 4.125 -4.859375 Z M 4.125 -4.859375 "/></g></g></g><g fill="#31547c" fill-opacity="1"><g transform="translate(177.902031, 127.499837)"><g/></g></g><g fill="#31547c" fill-opacity="1"><g transform="translate(183.744837, 127.499837)"><g><path d="M 11.890625 -5.78125 C 12.066406 -5.769531 12.039062 -5.539062 11.8125 -5.09375 C 11.582031 -4.644531 11.207031 -4.128906 10.6875 -3.546875 C 10.175781 -2.960938 9.597656 -2.457031 8.953125 -2.03125 C 8.316406 -1.613281 7.679688 -1.425781 7.046875 -1.46875 C 6.566406 -1.507812 6.210938 -1.648438 5.984375 -1.890625 C 5.765625 -2.128906 5.609375 -2.390625 5.515625 -2.671875 C 5.429688 -2.960938 5.378906 -3.210938 5.359375 -3.421875 C 5.347656 -3.578125 5.328125 -3.691406 5.296875 -3.765625 C 5.273438 -3.847656 5.234375 -3.851562 5.171875 -3.78125 C 4.671875 -2.65625 3.816406 -2.09375 2.609375 -2.09375 C 1.929688 -2.09375 1.378906 -2.390625 0.953125 -2.984375 C 0.535156 -3.585938 0.269531 -4.335938 0.15625 -5.234375 C 0.0507812 -6.140625 0.140625 -7.054688 0.421875 -7.984375 C 0.492188 -8.285156 0.679688 -8.5 0.984375 -8.625 C 1.203125 -8.707031 1.425781 -8.695312 1.65625 -8.59375 C 1.882812 -8.488281 2.007812 -8.335938 2.03125 -8.140625 C 2.03125 -7.929688 2.015625 -7.726562 1.984375 -7.53125 C 1.941406 -7.382812 1.910156 -7.238281 1.890625 -7.09375 C 1.867188 -6.539062 1.878906 -5.9375 1.921875 -5.28125 C 1.972656 -4.625 2.148438 -4.0625 2.453125 -3.59375 C 2.742188 -3.21875 3.066406 -3.164062 3.421875 -3.4375 C 3.773438 -3.71875 4.082031 -4.15625 4.34375 -4.75 C 4.550781 -5.21875 4.710938 -5.679688 4.828125 -6.140625 C 4.953125 -6.609375 5.03125 -6.96875 5.0625 -7.21875 C 5.09375 -7.332031 5.109375 -7.40625 5.109375 -7.4375 C 5.160156 -7.632812 5.210938 -7.828125 5.265625 -8.015625 C 5.347656 -8.296875 5.429688 -8.570312 5.515625 -8.84375 C 5.660156 -9.363281 6.03125 -9.582031 6.625 -9.5 C 6.988281 -9.46875 7.1875 -9.289062 7.21875 -8.96875 C 7.25 -8.53125 7.253906 -8.09375 7.234375 -7.65625 C 7.222656 -7.195312 7.203125 -6.75 7.171875 -6.3125 C 7.128906 -5.675781 7.101562 -5.046875 7.09375 -4.421875 C 7.070312 -3.503906 7.25 -2.96875 7.625 -2.8125 C 8.007812 -2.664062 8.472656 -2.765625 9.015625 -3.109375 C 9.566406 -3.460938 10.097656 -3.929688 10.609375 -4.515625 C 10.648438 -4.578125 10.707031 -4.648438 10.78125 -4.734375 C 10.882812 -4.859375 11.003906 -5 11.140625 -5.15625 C 11.285156 -5.320312 11.425781 -5.460938 11.5625 -5.578125 C 11.695312 -5.703125 11.804688 -5.769531 11.890625 -5.78125 Z M 11.890625 -5.78125 "/></g></g></g><g fill="#31547c" fill-opacity="1"><g transform="translate(194.958888, 127.499837)"><g><path d="M 9.515625 -4.421875 C 10.109375 -5.359375 10.457031 -5.953125 10.5625 -6.203125 C 10.675781 -6.460938 10.765625 -6.453125 10.828125 -6.171875 C 10.898438 -5.898438 10.710938 -5.28125 10.265625 -4.3125 C 9.816406 -3.34375 9.257812 -2.59375 8.59375 -2.0625 C 7.9375 -1.539062 7.320312 -1.347656 6.75 -1.484375 C 6.1875 -1.617188 5.78125 -2.015625 5.53125 -2.671875 C 5.289062 -3.328125 5.21875 -4.15625 5.3125 -5.15625 C 5.3125 -5.164062 5.320312 -5.207031 5.34375 -5.28125 C 5.351562 -5.445312 5.378906 -5.691406 5.421875 -6.015625 C 5.460938 -6.347656 5.492188 -6.691406 5.515625 -7.046875 C 5.535156 -7.398438 5.523438 -7.691406 5.484375 -7.921875 C 5.441406 -8.148438 5.335938 -8.234375 5.171875 -8.171875 C 4.765625 -7.941406 4.363281 -7.503906 3.96875 -6.859375 C 3.582031 -6.210938 3.234375 -5.535156 2.921875 -4.828125 C 2.609375 -4.117188 2.382812 -3.546875 2.25 -3.109375 C 2.195312 -2.972656 2.148438 -2.828125 2.109375 -2.671875 C 2.035156 -2.472656 1.957031 -2.273438 1.875 -2.078125 C 1.65625 -1.492188 1.269531 -1.269531 0.71875 -1.40625 C 0.40625 -1.46875 0.222656 -1.65625 0.171875 -1.96875 C 0.160156 -2.207031 0.15625 -2.429688 0.15625 -2.640625 C 0.15625 -2.785156 0.144531 -2.914062 0.125 -3.03125 C 0.09375 -4.726562 0.0507812 -6.441406 0 -8.171875 C 0.0078125 -8.367188 0.09375 -8.503906 0.25 -8.578125 C 0.414062 -8.660156 0.613281 -8.703125 0.84375 -8.703125 C 1.007812 -8.703125 1.164062 -8.65625 1.3125 -8.5625 C 1.46875 -8.46875 1.5625 -8.273438 1.59375 -7.984375 C 1.613281 -7.878906 1.625 -7.78125 1.625 -7.6875 C 1.632812 -7.632812 1.640625 -7.582031 1.640625 -7.53125 C 1.671875 -7.289062 1.6875 -7.085938 1.6875 -6.921875 C 1.6875 -6.671875 1.703125 -6.5 1.734375 -6.40625 C 1.773438 -6.3125 1.847656 -6.3125 1.953125 -6.40625 C 2.066406 -6.507812 2.253906 -6.753906 2.515625 -7.140625 C 2.941406 -7.804688 3.476562 -8.375 4.125 -8.84375 C 4.71875 -9.269531 5.367188 -9.445312 6.078125 -9.375 C 6.679688 -9.3125 7.085938 -8.992188 7.296875 -8.421875 C 7.378906 -8.128906 7.421875 -7.832031 7.421875 -7.53125 C 7.421875 -7.238281 7.398438 -6.945312 7.359375 -6.65625 C 7.347656 -6.34375 7.328125 -6.023438 7.296875 -5.703125 C 7.273438 -5.609375 7.253906 -5.507812 7.234375 -5.40625 C 7.140625 -4.3125 7.175781 -3.578125 7.34375 -3.203125 C 7.507812 -2.828125 7.765625 -2.703125 8.109375 -2.828125 C 8.453125 -2.960938 8.921875 -3.492188 9.515625 -4.421875 Z M 9.515625 -4.421875 "/></g></g></g><g fill="#31547c" fill-opacity="1"><g transform="translate(205.080284, 127.499837)"><g/></g></g><g fill="#31547c" fill-opacity="1"><g transform="translate(210.923089, 127.499837)"><g><path d="M 8.75 -5.65625 C 9.101562 -5.738281 9.5625 -5.984375 10.125 -6.390625 C 10.6875 -6.796875 10.9375 -6.800781 10.875 -6.40625 C 10.820312 -6.019531 10.519531 -5.695312 9.96875 -5.4375 C 9.414062 -5.175781 8.90625 -4.988281 8.4375 -4.875 C 8.3125 -4.84375 8.1875 -4.78125 8.0625 -4.6875 C 7.945312 -4.59375 7.875 -4.488281 7.84375 -4.375 C 7.757812 -3.882812 7.59375 -3.425781 7.34375 -3 C 6.675781 -1.976562 5.738281 -1.570312 4.53125 -1.78125 C 4.050781 -1.90625 3.742188 -2.140625 3.609375 -2.484375 C 3.484375 -2.828125 3.550781 -3.210938 3.8125 -3.640625 C 4.195312 -4.128906 4.664062 -4.492188 5.21875 -4.734375 C 5.414062 -4.828125 5.601562 -4.898438 5.78125 -4.953125 C 5.863281 -4.984375 5.960938 -5.015625 6.078125 -5.046875 C 6.296875 -5.171875 6.410156 -5.40625 6.421875 -5.75 C 6.441406 -6.09375 6.363281 -6.4375 6.1875 -6.78125 C 6.007812 -7.132812 5.765625 -7.375 5.453125 -7.5 C 5.140625 -7.625 4.765625 -7.507812 4.328125 -7.15625 C 3.898438 -6.757812 3.582031 -6.300781 3.375 -5.78125 C 2.863281 -4.738281 2.515625 -3.644531 2.328125 -2.5 C 1.984375 -0.46875 1.75 1.554688 1.625 3.578125 C 1.570312 4.523438 1.476562 5.460938 1.34375 6.390625 C 1.289062 6.773438 1.25 7.171875 1.21875 7.578125 C 1.195312 7.710938 1.160156 7.847656 1.109375 7.984375 C 1.046875 8.234375 0.859375 8.34375 0.546875 8.3125 C 0.234375 8.289062 0.0664062 8.144531 0.046875 7.875 C 0.0234375 7.59375 0.0234375 7.304688 0.046875 7.015625 C 0.046875 6.953125 0.046875 6.894531 0.046875 6.84375 C 0.0664062 6.488281 0.0859375 6.132812 0.109375 5.78125 C 0.117188 5.144531 0.132812 4.507812 0.15625 3.875 C 0.1875 1.3125 0.171875 -1.265625 0.109375 -3.859375 C 0.0859375 -4.835938 0.0664062 -5.800781 0.046875 -6.75 C 0.046875 -6.851562 0.046875 -6.953125 0.046875 -7.046875 C 0.015625 -7.390625 0.03125 -7.722656 0.09375 -8.046875 C 0.164062 -8.367188 0.378906 -8.550781 0.734375 -8.59375 C 1.097656 -8.632812 1.328125 -8.46875 1.421875 -8.09375 C 1.421875 -8.0625 1.421875 -8.023438 1.421875 -7.984375 C 1.535156 -7.265625 1.644531 -6.3125 1.75 -5.125 C 2.019531 -5.914062 2.359375 -6.550781 2.765625 -7.03125 C 3.171875 -7.519531 3.648438 -7.878906 4.203125 -8.109375 C 4.660156 -8.316406 5.128906 -8.398438 5.609375 -8.359375 C 6.097656 -8.316406 6.539062 -8.113281 6.9375 -7.75 C 7.34375 -7.394531 7.617188 -6.867188 7.765625 -6.171875 C 7.835938 -5.859375 7.929688 -5.671875 8.046875 -5.609375 C 8.160156 -5.554688 8.394531 -5.570312 8.75 -5.65625 Z M 5.3125 -2.515625 C 5.625 -2.679688 5.863281 -2.90625 6.03125 -3.1875 C 6.195312 -3.46875 6.285156 -3.710938 6.296875 -3.921875 C 6.304688 -4.140625 6.21875 -4.222656 6.03125 -4.171875 C 5.550781 -3.984375 5.222656 -3.738281 5.046875 -3.4375 C 4.867188 -3.144531 4.804688 -2.894531 4.859375 -2.6875 C 4.921875 -2.476562 5.070312 -2.421875 5.3125 -2.515625 Z M 5.3125 -2.515625 "/></g></g></g><g fill="#31547c" fill-opacity="1"><g transform="translate(221.125001, 127.499837)"><g><path d="M 8.84375 -6.296875 C 8.957031 -6.410156 9.015625 -6.269531 9.015625 -5.875 C 9.023438 -5.476562 8.664062 -4.925781 7.9375 -4.21875 C 7.21875 -3.507812 6.46875 -3.171875 5.6875 -3.203125 C 5.519531 -3.222656 5.375 -3.210938 5.25 -3.171875 C 5.132812 -3.128906 5.035156 -3.03125 4.953125 -2.875 C 4.867188 -2.738281 4.769531 -2.613281 4.65625 -2.5 C 4.65625 -2.5 4.648438 -2.488281 4.640625 -2.46875 C 4.160156 -1.96875 3.597656 -1.632812 2.953125 -1.46875 C 2.316406 -1.3125 1.710938 -1.363281 1.140625 -1.625 C 0.566406 -1.882812 0.148438 -2.378906 -0.109375 -3.109375 C -0.285156 -3.765625 -0.300781 -4.421875 -0.15625 -5.078125 C -0.0195312 -5.648438 0.191406 -6.191406 0.484375 -6.703125 C 0.835938 -7.367188 1.296875 -7.84375 1.859375 -8.125 C 2.421875 -8.40625 3.0625 -8.5625 3.78125 -8.59375 C 4.832031 -8.644531 5.5 -8.144531 5.78125 -7.09375 C 5.945312 -6.488281 5.988281 -5.878906 5.90625 -5.265625 C 5.882812 -5.117188 5.859375 -4.972656 5.828125 -4.828125 C 5.796875 -4.722656 5.765625 -4.617188 5.734375 -4.515625 C 5.703125 -4.179688 5.847656 -4.03125 6.171875 -4.0625 C 7.066406 -4.21875 7.957031 -4.960938 8.84375 -6.296875 Z M 2.578125 -2.375 C 3.117188 -2.625 3.5 -3.050781 3.71875 -3.65625 C 2.8125 -4.226562 2.203125 -5.054688 1.890625 -6.140625 C 1.609375 -5.640625 1.4375 -5.050781 1.375 -4.375 C 1.3125 -3.695312 1.378906 -3.132812 1.578125 -2.6875 C 1.773438 -2.25 2.109375 -2.144531 2.578125 -2.375 Z M 4.125 -4.859375 C 4.269531 -5.066406 4.351562 -5.328125 4.375 -5.640625 C 4.40625 -5.960938 4.390625 -6.273438 4.328125 -6.578125 C 4.273438 -6.890625 4.195312 -7.132812 4.09375 -7.3125 C 4 -7.488281 3.894531 -7.546875 3.78125 -7.484375 C 3.570312 -7.296875 3.453125 -7.03125 3.421875 -6.6875 C 3.398438 -6.34375 3.453125 -5.992188 3.578125 -5.640625 C 3.710938 -5.296875 3.894531 -5.035156 4.125 -4.859375 Z M 4.125 -4.859375 "/></g></g></g><g fill="#31547c" fill-opacity="1"><g transform="translate(229.693688, 127.499837)"><g><path d="M 10.671875 -5.609375 C 10.992188 -5.804688 11.207031 -5.863281 11.3125 -5.78125 C 11.414062 -5.695312 11.347656 -5.492188 11.109375 -5.171875 C 10.421875 -4.347656 9.5625 -3.578125 8.53125 -2.859375 C 7.507812 -2.140625 6.492188 -1.625 5.484375 -1.3125 C 4.835938 -1.070312 4.140625 -0.953125 3.390625 -0.953125 C 2.867188 -0.941406 2.34375 -1.019531 1.8125 -1.1875 C 0.675781 -1.550781 0.03125 -2.332031 -0.125 -3.53125 C -0.207031 -4.1875 -0.164062 -4.847656 0 -5.515625 C 0.195312 -6.179688 0.519531 -6.769531 0.96875 -7.28125 C 1.414062 -7.789062 1.972656 -8.175781 2.640625 -8.4375 C 3.253906 -8.675781 3.894531 -8.769531 4.5625 -8.71875 C 5.226562 -8.675781 5.773438 -8.46875 6.203125 -8.09375 C 6.273438 -8.019531 6.3125 -7.929688 6.3125 -7.828125 C 6.3125 -7.734375 6.289062 -7.632812 6.25 -7.53125 C 6.144531 -7.226562 6 -7.085938 5.8125 -7.109375 C 5.632812 -7.128906 5.421875 -7.203125 5.171875 -7.328125 C 4.984375 -7.429688 4.773438 -7.523438 4.546875 -7.609375 C 4.328125 -7.691406 4.101562 -7.707031 3.875 -7.65625 C 3.21875 -7.5625 2.671875 -7.207031 2.234375 -6.59375 C 1.867188 -6.082031 1.625 -5.515625 1.5 -4.890625 C 1.375 -4.273438 1.421875 -3.722656 1.640625 -3.234375 C 1.910156 -2.722656 2.347656 -2.429688 2.953125 -2.359375 C 3.566406 -2.296875 4.257812 -2.367188 5.03125 -2.578125 C 5.8125 -2.796875 6.585938 -3.085938 7.359375 -3.453125 C 8.140625 -3.828125 8.828125 -4.207031 9.421875 -4.59375 C 10.023438 -4.976562 10.441406 -5.316406 10.671875 -5.609375 Z M 10.671875 -5.609375 "/></g></g></g><g fill="#31547c" fill-opacity="1"><g transform="translate(240.275147, 127.499837)"><g><path d="M 8.84375 -6.296875 C 8.957031 -6.410156 9.015625 -6.269531 9.015625 -5.875 C 9.023438 -5.476562 8.664062 -4.925781 7.9375 -4.21875 C 7.21875 -3.507812 6.46875 -3.171875 5.6875 -3.203125 C 5.519531 -3.222656 5.375 -3.210938 5.25 -3.171875 C 5.132812 -3.128906 5.035156 -3.03125 4.953125 -2.875 C 4.867188 -2.738281 4.769531 -2.613281 4.65625 -2.5 C 4.65625 -2.5 4.648438 -2.488281 4.640625 -2.46875 C 4.160156 -1.96875 3.597656 -1.632812 2.953125 -1.46875 C 2.316406 -1.3125 1.710938 -1.363281 1.140625 -1.625 C 0.566406 -1.882812 0.148438 -2.378906 -0.109375 -3.109375 C -0.285156 -3.765625 -0.300781 -4.421875 -0.15625 -5.078125 C -0.0195312 -5.648438 0.191406 -6.191406 0.484375 -6.703125 C 0.835938 -7.367188 1.296875 -7.84375 1.859375 -8.125 C 2.421875 -8.40625 3.0625 -8.5625 3.78125 -8.59375 C 4.832031 -8.644531 5.5 -8.144531 5.78125 -7.09375 C 5.945312 -6.488281 5.988281 -5.878906 5.90625 -5.265625 C 5.882812 -5.117188 5.859375 -4.972656 5.828125 -4.828125 C 5.796875 -4.722656 5.765625 -4.617188 5.734375 -4.515625 C 5.703125 -4.179688 5.847656 -4.03125 6.171875 -4.0625 C 7.066406 -4.21875 7.957031 -4.960938 8.84375 -6.296875 Z M 2.578125 -2.375 C 3.117188 -2.625 3.5 -3.050781 3.71875 -3.65625 C 2.8125 -4.226562 2.203125 -5.054688 1.890625 -6.140625 C 1.609375 -5.640625 1.4375 -5.050781 1.375 -4.375 C 1.3125 -3.695312 1.378906 -3.132812 1.578125 -2.6875 C 1.773438 -2.25 2.109375 -2.144531 2.578125 -2.375 Z M 4.125 -4.859375 C 4.269531 -5.066406 4.351562 -5.328125 4.375 -5.640625 C 4.40625 -5.960938 4.390625 -6.273438 4.328125 -6.578125 C 4.273438 -6.890625 4.195312 -7.132812 4.09375 -7.3125 C 4 -7.488281 3.894531 -7.546875 3.78125 -7.484375 C 3.570312 -7.296875 3.453125 -7.03125 3.421875 -6.6875 C 3.398438 -6.34375 3.453125 -5.992188 3.578125 -5.640625 C 3.710938 -5.296875 3.894531 -5.035156 4.125 -4.859375 Z M 4.125 -4.859375 "/></g></g></g></svg>